<svg version="1.1" id="Laag_1" xmlns="http://www.w3.org/2000/svg" xmlns:xlink="http://www.w3.org/1999/xlink" x="0" y="0" viewBox="0 0 841.9 595.3" style="enable-background:new 0 0 841.9 595.3" xml:space="preserve">
  <style>
    .st1{fill:#03173d}.st5{stroke-linejoin:round;fill:none;stroke:#03173d;stroke-width:4;stroke-miterlimit:10}
  </style>
  <pattern width="1218.9" height="1502.4" patternUnits="userSpaceOnUse" id="stippels" viewBox="3.9 -1502.4 1218.9 1502.4" style="overflow:visible">
    <path style="fill:none" d="M3.9-1502.4h1218.9V0H3.9z"/>
    <circle class="st1" cx="1222.8" cy="-1467.2" r="3.9"/>
    <circle class="st1" cx="1222.8" cy="-1391.9" r="3.9"/>
    <circle class="st1" cx="1222.8" cy="-1316.5" r="3.9"/>
    <circle class="st1" cx="1222.8" cy="-1241.1" r="3.9"/>
    <circle class="st1" cx="1222.8" cy="-1165.7" r="3.9"/>
    <path class="st1" d="M1222.8-1086.4c-2.2 0-3.9-1.8-3.9-3.9 0-2.2 1.8-3.9 3.9-3.9 2.2 0 3.9 1.8 3.9 3.9.1 2.1-1.7 3.9-3.9 3.9z"/>
    <circle class="st1" cx="1222.8" cy="-1015" r="3.9"/>
    <circle class="st1" cx="1222.8" cy="-939.6" r="3.9"/>
    <circle class="st1" cx="1222.8" cy="-864.2" r="3.9"/>
    <circle class="st1" cx="1222.8" cy="-788.9" r="3.9"/>
    <path class="st1" d="M1222.8-709.6c-2.2 0-3.9-1.8-3.9-3.9 0-2.2 1.8-3.9 3.9-3.9 2.2 0 3.9 1.8 3.9 3.9.1 2.2-1.7 3.9-3.9 3.9z"/>
    <circle class="st1" cx="1222.8" cy="-638.1" r="3.9"/>
    <circle class="st1" cx="1222.8" cy="-562.7" r="3.9"/>
    <circle class="st1" cx="1222.8" cy="-487.4" r="3.9"/>
    <circle class="st1" cx="1222.8" cy="-412" r="3.9"/>
    <circle class="st1" cx="1222.8" cy="-336.6" r="3.9"/>
    <circle class="st1" cx="1222.8" cy="-261.2" r="3.9"/>
    <circle class="st1" cx="1222.8" cy="-185.9" r="3.9"/>
    <path class="st1" d="M1222.8-106.6c-2.2 0-3.9-1.8-3.9-3.9 0-2.2 1.8-3.9 3.9-3.9 2.2 0 3.9 1.8 3.9 3.9.1 2.2-1.7 3.9-3.9 3.9z"/>
    <circle class="st1" cx="1222.8" cy="-35.1" r="3.9"/>
    <circle class="st1" cx="1155.3" cy="-1467.2" r="3.9"/>
    <circle class="st1" cx="1155.3" cy="-1391.9" r="3.9"/>
    <circle class="st1" cx="1155.3" cy="-1316.5" r="3.9"/>
    <circle class="st1" cx="1155.3" cy="-1241.1" r="3.9"/>
    <circle class="st1" cx="1155.3" cy="-1165.7" r="3.9"/>
    <path class="st1" d="M1155.3-1086.4c-2.2 0-3.9-1.8-3.9-3.9 0-2.2 1.8-3.9 3.9-3.9 2.2 0 3.9 1.8 3.9 3.9.1 2.1-1.7 3.9-3.9 3.9z"/>
    <circle class="st1" cx="1155.3" cy="-1015" r="3.9"/>
    <circle class="st1" cx="1155.3" cy="-939.6" r="3.9"/>
    <circle class="st1" cx="1155.3" cy="-864.2" r="3.9"/>
    <circle class="st1" cx="1155.3" cy="-788.9" r="3.9"/>
    <path class="st1" d="M1155.3-709.6c-2.2 0-3.9-1.8-3.9-3.9 0-2.2 1.8-3.9 3.9-3.9s3.9 1.8 3.9 3.9c.1 2.2-1.7 3.9-3.9 3.9z"/>
    <circle class="st1" cx="1155.3" cy="-638.1" r="3.9"/>
    <circle class="st1" cx="1155.3" cy="-562.7" r="3.9"/>
    <circle class="st1" cx="1155.3" cy="-487.4" r="3.9"/>
    <circle class="st1" cx="1155.3" cy="-412" r="3.9"/>
    <circle class="st1" cx="1155.3" cy="-336.6" r="3.9"/>
    <circle class="st1" cx="1155.3" cy="-261.2" r="3.9"/>
    <circle class="st1" cx="1155.3" cy="-185.9" r="3.9"/>
    <path class="st1" d="M1155.3-106.6c-2.2 0-3.9-1.8-3.9-3.9 0-2.2 1.8-3.9 3.9-3.9 2.2 0 3.9 1.8 3.9 3.9.1 2.2-1.7 3.9-3.9 3.9z"/>
    <circle class="st1" cx="1155.3" cy="-35.1" r="3.9"/>
    <circle class="st1" cx="1087.8" cy="-1467.2" r="3.9"/>
    <circle class="st1" cx="1087.8" cy="-1391.9" r="3.9"/>
    <circle class="st1" cx="1087.8" cy="-1316.5" r="3.9"/>
    <circle class="st1" cx="1087.8" cy="-1241.1" r="3.9"/>
    <circle class="st1" cx="1087.8" cy="-1165.7" r="3.9"/>
    <path class="st1" d="M1087.8-1086.4c-2.2 0-3.9-1.8-3.9-3.9 0-2.2 1.8-3.9 3.9-3.9 2.2 0 3.9 1.8 3.9 3.9 0 2.1-1.7 3.9-3.9 3.9z"/>
    <circle class="st1" cx="1087.8" cy="-1015" r="3.9"/>
    <circle class="st1" cx="1087.8" cy="-939.6" r="3.9"/>
    <circle class="st1" cx="1087.8" cy="-864.2" r="3.9"/>
    <circle class="st1" cx="1087.8" cy="-788.9" r="3.9"/>
    <path class="st1" d="M1087.8-709.6c-2.2 0-3.9-1.8-3.9-3.9 0-2.2 1.8-3.9 3.9-3.9s3.9 1.8 3.9 3.9c0 2.2-1.7 3.9-3.9 3.9z"/>
    <circle class="st1" cx="1087.8" cy="-638.1" r="3.9"/>
    <circle class="st1" cx="1087.8" cy="-562.7" r="3.9"/>
    <circle class="st1" cx="1087.8" cy="-487.4" r="3.9"/>
    <circle class="st1" cx="1087.8" cy="-412" r="3.9"/>
    <circle class="st1" cx="1087.8" cy="-336.6" r="3.9"/>
    <circle class="st1" cx="1087.8" cy="-261.2" r="3.9"/>
    <circle class="st1" cx="1087.8" cy="-185.9" r="3.9"/>
    <path class="st1" d="M1087.8-106.6c-2.2 0-3.9-1.8-3.9-3.9 0-2.2 1.8-3.9 3.9-3.9 2.2 0 3.9 1.8 3.9 3.9 0 2.2-1.7 3.9-3.9 3.9z"/>
    <circle class="st1" cx="1087.8" cy="-35.1" r="3.9"/>
    <circle class="st1" cx="1020.3" cy="-1467.2" r="3.9"/>
    <circle class="st1" cx="1020.3" cy="-1391.9" r="3.9"/>
    <circle class="st1" cx="1020.3" cy="-1316.5" r="3.9"/>
    <circle class="st1" cx="1020.3" cy="-1241.1" r="3.9"/>
    <circle class="st1" cx="1020.3" cy="-1165.7" r="3.9"/>
    <path class="st1" d="M1020.3-1086.4c-2.2 0-3.9-1.8-3.9-3.9 0-2.2 1.8-3.9 3.9-3.9 2.2 0 3.9 1.8 3.9 3.9 0 2.1-1.7 3.9-3.9 3.9z"/>
    <circle class="st1" cx="1020.3" cy="-1015" r="3.9"/>
    <circle class="st1" cx="1020.3" cy="-939.6" r="3.9"/>
    <circle class="st1" cx="1020.3" cy="-864.2" r="3.9"/>
    <circle class="st1" cx="1020.3" cy="-788.9" r="3.9"/>
    <path class="st1" d="M1020.3-709.6c-2.2 0-3.9-1.8-3.9-3.9 0-2.2 1.8-3.9 3.9-3.9 2.2 0 3.9 1.8 3.9 3.9 0 2.2-1.7 3.9-3.9 3.9z"/>
    <circle class="st1" cx="1020.3" cy="-638.1" r="3.9"/>
    <circle class="st1" cx="1020.3" cy="-562.7" r="3.9"/>
    <circle class="st1" cx="1020.3" cy="-487.4" r="3.9"/>
    <circle class="st1" cx="1020.3" cy="-412" r="3.9"/>
    <circle class="st1" cx="1020.3" cy="-336.6" r="3.9"/>
    <circle class="st1" cx="1020.3" cy="-261.2" r="3.9"/>
    <circle class="st1" cx="1020.3" cy="-185.9" r="3.9"/>
    <path class="st1" d="M1020.3-106.6c-2.2 0-3.9-1.8-3.9-3.9 0-2.2 1.8-3.9 3.9-3.9 2.2 0 3.9 1.8 3.9 3.9 0 2.2-1.7 3.9-3.9 3.9z"/>
    <circle class="st1" cx="1020.3" cy="-35.1" r="3.9"/>
    <circle class="st1" cx="952.8" cy="-1467.2" r="3.9"/>
    <circle class="st1" cx="952.8" cy="-1391.9" r="3.9"/>
    <circle class="st1" cx="952.8" cy="-1316.5" r="3.9"/>
    <circle class="st1" cx="952.8" cy="-1241.1" r="3.9"/>
    <circle class="st1" cx="952.8" cy="-1165.7" r="3.9"/>
    <path class="st1" d="M952.8-1086.4c-2.2 0-3.9-1.8-3.9-3.9 0-2.2 1.8-3.9 3.9-3.9 2.2 0 3.9 1.8 3.9 3.9 0 2.1-1.7 3.9-3.9 3.9z"/>
    <circle class="st1" cx="952.8" cy="-1015" r="3.9"/>
    <circle class="st1" cx="952.8" cy="-939.6" r="3.9"/>
    <circle class="st1" cx="952.8" cy="-864.2" r="3.9"/>
    <circle class="st1" cx="952.8" cy="-788.9" r="3.9"/>
    <path class="st1" d="M952.8-709.6c-2.2 0-3.9-1.8-3.9-3.9 0-2.2 1.8-3.9 3.9-3.9 2.2 0 3.9 1.8 3.9 3.9 0 2.2-1.7 3.9-3.9 3.9z"/>
    <circle class="st1" cx="952.8" cy="-638.1" r="3.9"/>
    <circle class="st1" cx="952.8" cy="-562.7" r="3.9"/>
    <circle class="st1" cx="952.8" cy="-487.4" r="3.9"/>
    <circle class="st1" cx="952.8" cy="-412" r="3.9"/>
    <circle class="st1" cx="952.8" cy="-336.6" r="3.9"/>
    <circle class="st1" cx="952.8" cy="-261.2" r="3.9"/>
    <circle class="st1" cx="952.8" cy="-185.9" r="3.9"/>
    <path class="st1" d="M952.8-106.6c-2.2 0-3.9-1.8-3.9-3.9 0-2.2 1.8-3.9 3.9-3.9 2.2 0 3.9 1.8 3.9 3.9 0 2.2-1.7 3.9-3.9 3.9z"/>
    <circle class="st1" cx="952.8" cy="-35.1" r="3.9"/>
    <circle class="st1" cx="883.4" cy="-1467.2" r="3.9"/>
    <circle class="st1" cx="883.4" cy="-1391.9" r="3.9"/>
    <circle class="st1" cx="883.4" cy="-1316.5" r="3.9"/>
    <circle class="st1" cx="883.4" cy="-1241.1" r="3.9"/>
    <circle class="st1" cx="883.4" cy="-1165.7" r="3.9"/>
    <path class="st1" d="M883.4-1086.4c-2.2 0-3.9-1.8-3.9-3.9 0-2.2 1.8-3.9 3.9-3.9 2.2 0 3.9 1.8 3.9 3.9.1 2.1-1.7 3.9-3.9 3.9z"/>
    <circle class="st1" cx="883.4" cy="-1015" r="3.9"/>
    <circle class="st1" cx="883.4" cy="-939.6" r="3.9"/>
    <circle class="st1" cx="883.4" cy="-864.2" r="3.9"/>
    <circle class="st1" cx="883.4" cy="-788.9" r="3.9"/>
    <path class="st1" d="M883.4-709.6c-2.2 0-3.9-1.8-3.9-3.9 0-2.2 1.8-3.9 3.9-3.9 2.2 0 3.9 1.8 3.9 3.9.1 2.2-1.7 3.9-3.9 3.9z"/>
    <circle class="st1" cx="883.4" cy="-638.1" r="3.9"/>
    <circle class="st1" cx="883.4" cy="-562.7" r="3.9"/>
    <circle class="st1" cx="883.4" cy="-487.4" r="3.9"/>
    <circle class="st1" cx="883.4" cy="-412" r="3.9"/>
    <circle class="st1" cx="883.4" cy="-336.6" r="3.9"/>
    <circle class="st1" cx="883.4" cy="-261.2" r="3.9"/>
    <circle class="st1" cx="883.4" cy="-185.9" r="3.9"/>
    <path class="st1" d="M883.4-106.6c-2.2 0-3.9-1.8-3.9-3.9 0-2.2 1.8-3.9 3.9-3.9 2.2 0 3.9 1.8 3.9 3.9.1 2.2-1.7 3.9-3.9 3.9z"/>
    <circle class="st1" cx="883.4" cy="-35.1" r="3.9"/>
    <circle class="st1" cx="815.9" cy="-1467.2" r="3.9"/>
    <circle class="st1" cx="815.9" cy="-1391.9" r="3.9"/>
    <circle class="st1" cx="815.9" cy="-1316.5" r="3.9"/>
    <circle class="st1" cx="815.9" cy="-1241.1" r="3.9"/>
    <circle class="st1" cx="815.9" cy="-1165.7" r="3.9"/>
    <path class="st1" d="M815.9-1086.4c-2.2 0-3.9-1.8-3.9-3.9 0-2.2 1.8-3.9 3.9-3.9s3.9 1.8 3.9 3.9c0 2.1-1.7 3.9-3.9 3.9z"/>
    <circle class="st1" cx="815.9" cy="-1015" r="3.9"/>
    <circle class="st1" cx="815.9" cy="-939.6" r="3.9"/>
    <circle class="st1" cx="815.9" cy="-864.2" r="3.9"/>
    <circle class="st1" cx="815.9" cy="-788.9" r="3.9"/>
    <path class="st1" d="M815.9-709.6c-2.2 0-3.9-1.8-3.9-3.9 0-2.2 1.8-3.9 3.9-3.9 2.2 0 3.9 1.8 3.9 3.9 0 2.2-1.7 3.9-3.9 3.9z"/>
    <circle class="st1" cx="815.9" cy="-638.1" r="3.9"/>
    <circle class="st1" cx="815.9" cy="-562.7" r="3.9"/>
    <circle class="st1" cx="815.9" cy="-487.4" r="3.9"/>
    <circle class="st1" cx="815.9" cy="-412" r="3.9"/>
    <circle class="st1" cx="815.9" cy="-336.6" r="3.9"/>
    <circle class="st1" cx="815.9" cy="-261.2" r="3.9"/>
    <circle class="st1" cx="815.9" cy="-185.9" r="3.9"/>
    <path class="st1" d="M815.9-106.6c-2.2 0-3.9-1.8-3.9-3.9 0-2.2 1.8-3.9 3.9-3.9 2.2 0 3.9 1.8 3.9 3.9 0 2.2-1.7 3.9-3.9 3.9z"/>
    <circle class="st1" cx="815.9" cy="-35.1" r="3.9"/>
    <circle class="st1" cx="748.4" cy="-1467.2" r="3.9"/>
    <circle class="st1" cx="748.4" cy="-1391.9" r="3.9"/>
    <circle class="st1" cx="748.4" cy="-1316.5" r="3.9"/>
    <circle class="st1" cx="748.4" cy="-1241.1" r="3.9"/>
    <circle class="st1" cx="748.4" cy="-1165.7" r="3.9"/>
    <path class="st1" d="M748.4-1086.4c-2.2 0-3.9-1.8-3.9-3.9 0-2.2 1.8-3.9 3.9-3.9 2.2 0 3.9 1.8 3.9 3.9 0 2.1-1.7 3.9-3.9 3.9z"/>
    <circle class="st1" cx="748.4" cy="-1015" r="3.9"/>
    <circle class="st1" cx="748.4" cy="-939.6" r="3.9"/>
    <circle class="st1" cx="748.4" cy="-864.2" r="3.9"/>
    <circle class="st1" cx="748.4" cy="-788.9" r="3.9"/>
    <path class="st1" d="M748.4-709.6c-2.2 0-3.9-1.8-3.9-3.9 0-2.2 1.8-3.9 3.9-3.9 2.2 0 3.9 1.8 3.9 3.9 0 2.2-1.7 3.9-3.9 3.9z"/>
    <circle class="st1" cx="748.4" cy="-638.1" r="3.9"/>
    <circle class="st1" cx="748.4" cy="-562.7" r="3.9"/>
    <circle class="st1" cx="748.4" cy="-487.4" r="3.9"/>
    <circle class="st1" cx="748.4" cy="-412" r="3.9"/>
    <circle class="st1" cx="748.4" cy="-336.6" r="3.9"/>
    <circle class="st1" cx="748.4" cy="-261.2" r="3.9"/>
    <circle class="st1" cx="748.4" cy="-185.9" r="3.9"/>
    <path class="st1" d="M748.4-106.6c-2.2 0-3.9-1.8-3.9-3.9 0-2.2 1.8-3.9 3.9-3.9 2.2 0 3.9 1.8 3.9 3.9 0 2.2-1.7 3.9-3.9 3.9z"/>
    <circle class="st1" cx="748.4" cy="-35.1" r="3.9"/>
    <circle class="st1" cx="680.9" cy="-1467.2" r="3.9"/>
    <circle class="st1" cx="680.9" cy="-1391.9" r="3.9"/>
    <circle class="st1" cx="680.9" cy="-1316.5" r="3.9"/>
    <circle class="st1" cx="680.9" cy="-1241.1" r="3.9"/>
    <circle class="st1" cx="680.9" cy="-1165.7" r="3.9"/>
    <path class="st1" d="M680.9-1086.4c-2.2 0-3.9-1.8-3.9-3.9 0-2.2 1.8-3.9 3.9-3.9 2.2 0 3.9 1.8 3.9 3.9 0 2.1-1.7 3.9-3.9 3.9z"/>
    <circle class="st1" cx="680.9" cy="-1015" r="3.9"/>
    <circle class="st1" cx="680.9" cy="-939.6" r="3.9"/>
    <circle class="st1" cx="680.9" cy="-864.2" r="3.9"/>
    <circle class="st1" cx="680.9" cy="-788.9" r="3.9"/>
    <path class="st1" d="M680.9-709.6c-2.2 0-3.9-1.8-3.9-3.9 0-2.2 1.8-3.9 3.9-3.9 2.2 0 3.9 1.8 3.9 3.9 0 2.2-1.7 3.9-3.9 3.9z"/>
    <circle class="st1" cx="680.9" cy="-638.1" r="3.9"/>
    <circle class="st1" cx="680.9" cy="-562.7" r="3.9"/>
    <circle class="st1" cx="680.9" cy="-487.4" r="3.9"/>
    <circle class="st1" cx="680.9" cy="-412" r="3.9"/>
    <circle class="st1" cx="680.9" cy="-336.6" r="3.9"/>
    <circle class="st1" cx="680.9" cy="-261.2" r="3.9"/>
    <circle class="st1" cx="680.9" cy="-185.9" r="3.9"/>
    <path class="st1" d="M680.9-106.6c-2.2 0-3.9-1.8-3.9-3.9 0-2.2 1.8-3.9 3.9-3.9 2.2 0 3.9 1.8 3.9 3.9 0 2.2-1.7 3.9-3.9 3.9z"/>
    <circle class="st1" cx="680.9" cy="-35.1" r="3.9"/>
    <circle class="st1" cx="613.4" cy="-1467.2" r="3.9"/>
    <circle class="st1" cx="613.4" cy="-1391.9" r="3.9"/>
    <circle class="st1" cx="613.4" cy="-1316.5" r="3.9"/>
    <circle class="st1" cx="613.4" cy="-1241.1" r="3.9"/>
    <circle class="st1" cx="613.4" cy="-1165.7" r="3.9"/>
    <path class="st1" d="M613.4-1086.4c-2.2 0-3.9-1.8-3.9-3.9 0-2.2 1.8-3.9 3.9-3.9s3.9 1.8 3.9 3.9c0 2.1-1.7 3.9-3.9 3.9z"/>
    <circle class="st1" cx="613.4" cy="-1015" r="3.9"/>
    <circle class="st1" cx="613.4" cy="-939.6" r="3.9"/>
    <circle class="st1" cx="613.4" cy="-864.2" r="3.9"/>
    <circle class="st1" cx="613.4" cy="-788.9" r="3.9"/>
    <path class="st1" d="M613.4-709.6c-2.2 0-3.9-1.8-3.9-3.9 0-2.2 1.8-3.9 3.9-3.9s3.9 1.8 3.9 3.9c0 2.2-1.7 3.9-3.9 3.9z"/>
    <circle class="st1" cx="613.4" cy="-638.1" r="3.9"/>
    <circle class="st1" cx="613.4" cy="-562.7" r="3.9"/>
    <circle class="st1" cx="613.4" cy="-487.4" r="3.9"/>
    <circle class="st1" cx="613.4" cy="-412" r="3.9"/>
    <circle class="st1" cx="613.4" cy="-336.6" r="3.9"/>
    <circle class="st1" cx="613.4" cy="-261.2" r="3.9"/>
    <circle class="st1" cx="613.4" cy="-185.9" r="3.9"/>
    <path class="st1" d="M613.4-106.6c-2.2 0-3.9-1.8-3.9-3.9 0-2.2 1.8-3.9 3.9-3.9 2.2 0 3.9 1.8 3.9 3.9 0 2.2-1.7 3.9-3.9 3.9z"/>
    <circle class="st1" cx="613.4" cy="-35.1" r="3.9"/>
    <circle class="st1" cx="545.9" cy="-1467.2" r="3.9"/>
    <circle class="st1" cx="545.9" cy="-1391.9" r="3.9"/>
    <circle class="st1" cx="545.9" cy="-1316.5" r="3.9"/>
    <circle class="st1" cx="545.9" cy="-1241.1" r="3.9"/>
    <circle class="st1" cx="545.9" cy="-1165.7" r="3.9"/>
    <path class="st1" d="M545.9-1086.4c-2.2 0-3.9-1.8-3.9-3.9 0-2.2 1.8-3.9 3.9-3.9 2.2 0 3.9 1.8 3.9 3.9 0 2.1-1.8 3.9-3.9 3.9z"/>
    <circle class="st1" cx="545.9" cy="-1015" r="3.9"/>
    <circle class="st1" cx="545.9" cy="-939.6" r="3.9"/>
    <circle class="st1" cx="545.9" cy="-864.2" r="3.9"/>
    <circle class="st1" cx="545.9" cy="-788.9" r="3.9"/>
    <path class="st1" d="M545.9-709.6c-2.2 0-3.9-1.8-3.9-3.9 0-2.2 1.8-3.9 3.9-3.9 2.2 0 3.9 1.8 3.9 3.9 0 2.2-1.8 3.9-3.9 3.9z"/>
    <circle class="st1" cx="545.9" cy="-638.1" r="3.9"/>
    <circle class="st1" cx="545.9" cy="-562.7" r="3.9"/>
    <circle class="st1" cx="545.9" cy="-487.4" r="3.9"/>
    <circle class="st1" cx="545.9" cy="-412" r="3.9"/>
    <circle class="st1" cx="545.9" cy="-336.6" r="3.9"/>
    <circle class="st1" cx="545.9" cy="-261.2" r="3.9"/>
    <circle class="st1" cx="545.9" cy="-185.9" r="3.9"/>
    <path class="st1" d="M545.9-106.6c-2.2 0-3.9-1.8-3.9-3.9 0-2.2 1.8-3.9 3.9-3.9 2.2 0 3.9 1.8 3.9 3.9 0 2.2-1.8 3.9-3.9 3.9z"/>
    <circle class="st1" cx="545.9" cy="-35.1" r="3.9"/>
    <circle class="st1" cx="478.4" cy="-1467.2" r="3.9"/>
    <circle class="st1" cx="478.4" cy="-1391.9" r="3.9"/>
    <circle class="st1" cx="478.4" cy="-1316.5" r="3.9"/>
    <circle class="st1" cx="478.4" cy="-1241.1" r="3.9"/>
    <circle class="st1" cx="478.4" cy="-1165.7" r="3.9"/>
    <path class="st1" d="M478.4-1086.4c-2.2 0-3.9-1.8-3.9-3.9 0-2.2 1.8-3.9 3.9-3.9s3.9 1.8 3.9 3.9c0 2.1-1.8 3.9-3.9 3.9z"/>
    <circle class="st1" cx="478.4" cy="-1015" r="3.9"/>
    <circle class="st1" cx="478.4" cy="-939.6" r="3.9"/>
    <circle class="st1" cx="478.4" cy="-864.2" r="3.9"/>
    <circle class="st1" cx="478.4" cy="-788.9" r="3.9"/>
    <path class="st1" d="M478.4-709.6c-2.2 0-3.9-1.8-3.9-3.9 0-2.2 1.8-3.9 3.9-3.9s3.9 1.8 3.9 3.9c0 2.2-1.8 3.9-3.9 3.9z"/>
    <circle class="st1" cx="478.4" cy="-638.1" r="3.9"/>
    <circle class="st1" cx="478.4" cy="-562.7" r="3.9"/>
    <circle class="st1" cx="478.4" cy="-487.4" r="3.9"/>
    <circle class="st1" cx="478.4" cy="-412" r="3.9"/>
    <circle class="st1" cx="478.4" cy="-336.6" r="3.9"/>
    <circle class="st1" cx="478.4" cy="-261.2" r="3.9"/>
    <circle class="st1" cx="478.4" cy="-185.9" r="3.9"/>
    <path class="st1" d="M478.4-106.6c-2.2 0-3.9-1.8-3.9-3.9 0-2.2 1.8-3.9 3.9-3.9s3.9 1.8 3.9 3.9c0 2.2-1.8 3.9-3.9 3.9z"/>
    <circle class="st1" cx="478.4" cy="-35.1" r="3.9"/>
    <circle class="st1" cx="410.9" cy="-1467.2" r="3.9"/>
    <circle class="st1" cx="410.9" cy="-1391.9" r="3.9"/>
    <circle class="st1" cx="410.9" cy="-1316.5" r="3.9"/>
    <circle class="st1" cx="410.9" cy="-1241.1" r="3.9"/>
    <circle class="st1" cx="410.9" cy="-1165.7" r="3.9"/>
    <path class="st1" d="M410.9-1086.4c-2.2 0-3.9-1.8-3.9-3.9 0-2.2 1.8-3.9 3.9-3.9s3.9 1.8 3.9 3.9c0 2.1-1.8 3.9-3.9 3.9z"/>
    <circle class="st1" cx="410.9" cy="-1015" r="3.9"/>
    <circle class="st1" cx="410.9" cy="-939.6" r="3.9"/>
    <circle class="st1" cx="410.9" cy="-864.2" r="3.9"/>
    <circle class="st1" cx="410.9" cy="-788.9" r="3.9"/>
    <path class="st1" d="M410.9-709.6c-2.2 0-3.9-1.8-3.9-3.9 0-2.2 1.8-3.9 3.9-3.9 2.2 0 3.9 1.8 3.9 3.9 0 2.2-1.8 3.9-3.9 3.9z"/>
    <circle class="st1" cx="410.9" cy="-638.1" r="3.9"/>
    <circle class="st1" cx="410.9" cy="-562.7" r="3.9"/>
    <circle class="st1" cx="410.9" cy="-487.4" r="3.9"/>
    <circle class="st1" cx="410.9" cy="-412" r="3.9"/>
    <circle class="st1" cx="410.9" cy="-336.6" r="3.9"/>
    <circle class="st1" cx="410.9" cy="-261.2" r="3.9"/>
    <circle class="st1" cx="410.9" cy="-185.9" r="3.9"/>
    <path class="st1" d="M410.9-106.6c-2.2 0-3.9-1.8-3.9-3.9 0-2.2 1.8-3.9 3.9-3.9s3.9 1.8 3.9 3.9c0 2.2-1.8 3.9-3.9 3.9z"/>
    <circle class="st1" cx="410.9" cy="-35.1" r="3.9"/>
    <circle class="st1" cx="343.3" cy="-1467.2" r="3.9"/>
    <circle class="st1" cx="343.3" cy="-1391.9" r="3.9"/>
    <circle class="st1" cx="343.3" cy="-1316.5" r="3.9"/>
    <circle class="st1" cx="343.3" cy="-1241.1" r="3.9"/>
    <circle class="st1" cx="343.3" cy="-1165.7" r="3.9"/>
    <path class="st1" d="M343.3-1086.4c-2.2 0-3.9-1.8-3.9-3.9 0-2.2 1.8-3.9 3.9-3.9s3.9 1.8 3.9 3.9c.1 2.1-1.7 3.9-3.9 3.9z"/>
    <circle class="st1" cx="343.3" cy="-1015" r="3.9"/>
    <circle class="st1" cx="343.3" cy="-939.6" r="3.9"/>
    <circle class="st1" cx="343.3" cy="-864.2" r="3.9"/>
    <circle class="st1" cx="343.3" cy="-788.9" r="3.9"/>
    <path class="st1" d="M343.3-709.6c-2.2 0-3.9-1.8-3.9-3.9 0-2.2 1.8-3.9 3.9-3.9s3.9 1.8 3.9 3.9c.1 2.2-1.7 3.9-3.9 3.9z"/>
    <circle class="st1" cx="343.3" cy="-638.1" r="3.9"/>
    <circle class="st1" cx="343.3" cy="-562.7" r="3.9"/>
    <circle class="st1" cx="343.3" cy="-487.4" r="3.9"/>
    <circle class="st1" cx="343.3" cy="-412" r="3.9"/>
    <circle class="st1" cx="343.3" cy="-336.6" r="3.9"/>
    <circle class="st1" cx="343.3" cy="-261.2" r="3.9"/>
    <circle class="st1" cx="343.3" cy="-185.9" r="3.9"/>
    <path class="st1" d="M343.3-106.6c-2.2 0-3.9-1.8-3.9-3.9 0-2.2 1.8-3.9 3.9-3.9 2.2 0 3.9 1.8 3.9 3.9.1 2.2-1.7 3.9-3.9 3.9z"/>
    <circle class="st1" cx="343.3" cy="-35.1" r="3.9"/>
    <circle class="st1" cx="274" cy="-1467.2" r="3.9"/>
    <circle class="st1" cx="274" cy="-1391.9" r="3.9"/>
    <circle class="st1" cx="274" cy="-1316.5" r="3.9"/>
    <circle class="st1" cx="274" cy="-1241.1" r="3.9"/>
    <circle class="st1" cx="274" cy="-1165.7" r="3.9"/>
    <path class="st1" d="M274-1086.4c-2.2 0-3.9-1.8-3.9-3.9 0-2.2 1.8-3.9 3.9-3.9s3.9 1.8 3.9 3.9c0 2.1-1.8 3.9-3.9 3.9z"/>
    <circle class="st1" cx="274" cy="-1015" r="3.9"/>
    <circle class="st1" cx="274" cy="-939.6" r="3.9"/>
    <circle class="st1" cx="274" cy="-864.2" r="3.9"/>
    <circle class="st1" cx="274" cy="-788.9" r="3.9"/>
    <path class="st1" d="M274-709.6c-2.2 0-3.9-1.8-3.9-3.9 0-2.2 1.8-3.9 3.9-3.9s3.9 1.8 3.9 3.9c0 2.2-1.8 3.9-3.9 3.9z"/>
    <circle class="st1" cx="274" cy="-638.1" r="3.9"/>
    <circle class="st1" cx="274" cy="-562.7" r="3.9"/>
    <circle class="st1" cx="274" cy="-487.4" r="3.9"/>
    <circle class="st1" cx="274" cy="-412" r="3.9"/>
    <circle class="st1" cx="274" cy="-336.6" r="3.9"/>
    <circle class="st1" cx="274" cy="-261.2" r="3.9"/>
    <circle class="st1" cx="274" cy="-185.9" r="3.9"/>
    <path class="st1" d="M274-106.6c-2.2 0-3.9-1.8-3.9-3.9 0-2.2 1.8-3.9 3.9-3.9s3.9 1.8 3.9 3.9c0 2.2-1.8 3.9-3.9 3.9z"/>
    <circle class="st1" cx="274" cy="-35.1" r="3.9"/>
    <circle class="st1" cx="206.5" cy="-1467.2" r="3.9"/>
    <circle class="st1" cx="206.5" cy="-1391.9" r="3.9"/>
    <circle class="st1" cx="206.5" cy="-1316.5" r="3.9"/>
    <circle class="st1" cx="206.5" cy="-1241.1" r="3.9"/>
    <circle class="st1" cx="206.5" cy="-1165.7" r="3.9"/>
    <path class="st1" d="M206.5-1086.4c-2.2 0-3.9-1.8-3.9-3.9 0-2.2 1.8-3.9 3.9-3.9s3.9 1.8 3.9 3.9c0 2.1-1.8 3.9-3.9 3.9z"/>
    <circle class="st1" cx="206.5" cy="-1015" r="3.9"/>
    <circle class="st1" cx="206.5" cy="-939.6" r="3.9"/>
    <circle class="st1" cx="206.5" cy="-864.2" r="3.9"/>
    <circle class="st1" cx="206.5" cy="-788.9" r="3.9"/>
    <path class="st1" d="M206.5-709.6c-2.2 0-3.9-1.8-3.9-3.9 0-2.2 1.8-3.9 3.9-3.9s3.9 1.8 3.9 3.9c0 2.2-1.8 3.9-3.9 3.9z"/>
    <circle class="st1" cx="206.5" cy="-638.1" r="3.9"/>
    <circle class="st1" cx="206.5" cy="-562.7" r="3.9"/>
    <circle class="st1" cx="206.5" cy="-487.4" r="3.9"/>
    <circle class="st1" cx="206.5" cy="-412" r="3.9"/>
    <circle class="st1" cx="206.5" cy="-336.6" r="3.9"/>
    <circle class="st1" cx="206.5" cy="-261.2" r="3.9"/>
    <circle class="st1" cx="206.5" cy="-185.9" r="3.9"/>
    <path class="st1" d="M206.5-106.6c-2.2 0-3.9-1.8-3.9-3.9 0-2.2 1.8-3.9 3.9-3.9 2.2 0 3.9 1.8 3.9 3.9 0 2.2-1.8 3.9-3.9 3.9z"/>
    <circle class="st1" cx="206.5" cy="-35.1" r="3.9"/>
    <circle class="st1" cx="139" cy="-1467.2" r="3.9"/>
    <circle class="st1" cx="139" cy="-1391.9" r="3.9"/>
    <circle class="st1" cx="139" cy="-1316.5" r="3.9"/>
    <circle class="st1" cx="139" cy="-1241.1" r="3.9"/>
    <circle class="st1" cx="139" cy="-1165.7" r="3.9"/>
    <path class="st1" d="M139-1086.4c-2.2 0-3.9-1.8-3.9-3.9 0-2.2 1.8-3.9 3.9-3.9s3.9 1.8 3.9 3.9c0 2.1-1.8 3.9-3.9 3.9z"/>
    <circle class="st1" cx="139" cy="-1015" r="3.9"/>
    <circle class="st1" cx="139" cy="-939.6" r="3.9"/>
    <circle class="st1" cx="139" cy="-864.2" r="3.9"/>
    <circle class="st1" cx="139" cy="-788.9" r="3.9"/>
    <path class="st1" d="M139-709.6c-2.2 0-3.9-1.8-3.9-3.9 0-2.2 1.8-3.9 3.9-3.9s3.9 1.8 3.9 3.9c0 2.2-1.8 3.9-3.9 3.9z"/>
    <circle class="st1" cx="139" cy="-638.1" r="3.9"/>
    <circle class="st1" cx="139" cy="-562.7" r="3.9"/>
    <circle class="st1" cx="139" cy="-487.4" r="3.9"/>
    <circle class="st1" cx="139" cy="-412" r="3.9"/>
    <circle class="st1" cx="139" cy="-336.6" r="3.9"/>
    <circle class="st1" cx="139" cy="-261.2" r="3.9"/>
    <circle class="st1" cx="139" cy="-185.9" r="3.9"/>
    <path class="st1" d="M139-106.6c-2.2 0-3.9-1.8-3.9-3.9 0-2.2 1.8-3.9 3.9-3.9s3.9 1.8 3.9 3.9c0 2.2-1.8 3.9-3.9 3.9z"/>
    <circle class="st1" cx="139" cy="-35.1" r="3.9"/>
    <circle class="st1" cx="71.4" cy="-1467.2" r="3.9"/>
    <circle class="st1" cx="71.4" cy="-1391.9" r="3.9"/>
    <circle class="st1" cx="71.4" cy="-1316.5" r="3.9"/>
    <circle class="st1" cx="71.4" cy="-1241.1" r="3.9"/>
    <circle class="st1" cx="71.4" cy="-1165.7" r="3.9"/>
    <path class="st1" d="M71.4-1086.4c-2.2 0-3.9-1.8-3.9-3.9 0-2.2 1.8-3.9 3.9-3.9s3.9 1.8 3.9 3.9c.1 2.1-1.7 3.9-3.9 3.9z"/>
    <circle class="st1" cx="71.4" cy="-1015" r="3.9"/>
    <circle class="st1" cx="71.4" cy="-939.6" r="3.9"/>
    <circle class="st1" cx="71.4" cy="-864.2" r="3.9"/>
    <circle class="st1" cx="71.4" cy="-788.9" r="3.9"/>
    <path class="st1" d="M71.4-709.6c-2.2 0-3.9-1.8-3.9-3.9 0-2.2 1.8-3.9 3.9-3.9s3.9 1.8 3.9 3.9c.1 2.2-1.7 3.9-3.9 3.9z"/>
    <circle class="st1" cx="71.4" cy="-638.1" r="3.9"/>
    <circle class="st1" cx="71.4" cy="-562.7" r="3.9"/>
    <circle class="st1" cx="71.4" cy="-487.4" r="3.9"/>
    <circle class="st1" cx="71.4" cy="-412" r="3.9"/>
    <circle class="st1" cx="71.4" cy="-336.6" r="3.9"/>
    <circle class="st1" cx="71.4" cy="-261.2" r="3.9"/>
    <circle class="st1" cx="71.4" cy="-185.9" r="3.9"/>
    <path class="st1" d="M71.4-106.6c-2.2 0-3.9-1.8-3.9-3.9 0-2.2 1.8-3.9 3.9-3.9s3.9 1.8 3.9 3.9c.1 2.2-1.7 3.9-3.9 3.9z"/>
    <circle class="st1" cx="71.4" cy="-35.1" r="3.9"/>
    <circle class="st1" cx="3.9" cy="-1467.2" r="3.9"/>
    <circle class="st1" cx="3.9" cy="-1391.9" r="3.9"/>
    <circle class="st1" cx="3.9" cy="-1316.5" r="3.9"/>
    <circle class="st1" cx="3.9" cy="-1241.1" r="3.9"/>
    <circle class="st1" cx="3.9" cy="-1165.7" r="3.9"/>
    <path class="st1" d="M3.9-1086.4c-2.2 0-3.9-1.8-3.9-3.9 0-2.2 1.8-3.9 3.9-3.9 2.2 0 3.9 1.8 3.9 3.9.1 2.1-1.7 3.9-3.9 3.9z"/>
    <circle class="st1" cx="3.9" cy="-1015" r="3.9"/>
    <circle class="st1" cx="3.9" cy="-939.6" r="3.9"/>
    <circle class="st1" cx="3.9" cy="-864.2" r="3.9"/>
    <circle class="st1" cx="3.9" cy="-788.9" r="3.9"/>
    <path class="st1" d="M3.9-709.6c-2.2 0-3.9-1.8-3.9-3.9 0-2.2 1.8-3.9 3.9-3.9 2.2 0 3.9 1.8 3.9 3.9.1 2.2-1.7 3.9-3.9 3.9z"/>
    <circle class="st1" cx="3.9" cy="-638.1" r="3.9"/>
    <circle class="st1" cx="3.9" cy="-562.7" r="3.9"/>
    <circle class="st1" cx="3.9" cy="-487.4" r="3.9"/>
    <circle class="st1" cx="3.9" cy="-412" r="3.9"/>
    <circle class="st1" cx="3.9" cy="-336.6" r="3.9"/>
    <circle class="st1" cx="3.9" cy="-261.2" r="3.9"/>
    <circle class="st1" cx="3.9" cy="-185.9" r="3.9"/>
    <path class="st1" d="M3.9-106.6c-2.2 0-3.9-1.8-3.9-3.9 0-2.2 1.8-3.9 3.9-3.9 2.2 0 3.9 1.8 3.9 3.9.1 2.2-1.7 3.9-3.9 3.9z"/>
    <circle class="st1" cx="3.9" cy="-35.1" r="3.9"/>
  </pattern>
  <pattern id="SVGID_1_" xlink:href="#stippels" patternTransform="translate(-5898.981 -4791.624) scale(.4362)"/>
  <path style="fill:url(#SVGID_1_)" d="M256.5 105.4h476.8v397.9H256.5z"/>
  <circle cx="449.4" cy="411.3" r="121.5" style="fill:none;stroke:#99d1cc;stroke-width:4;stroke-miterlimit:10"/>
  <circle cx="290.1" cy="275.6" r="182.1" style="fill:#ffde42"/>
  <path class="st5" d="m343.4 291.6-3.4-10.4c-5.3-12.7-16.2-19.1-30.3-21.7L290.1 275l-19.6-15.5c-14.1 2.6-25 8.9-30.3 21.7l-3.2 9.9m132.6 13.4c-.8-5-7.9-8.5-15.3-7.5-7.5 1-13 5.7-13 10.5 0 2.2.2 3.4.9 4.8m-131.5-7.8c.9-5.7 7.9-8.5 15.3-7.5 7.5 1 13 5.4 13 10.2 0 2.1 0 2.9-.8 4.7"/>
  <path class="st5" d="M214.9 331.1s-2.1-16.6-4.3-26.5c3.5 12.4 154.9 14.1 158.9 0-1.6 7.2-4.3 26.5-4.3 26.5m-4.3 32.9s-1.7 10.3-3 16.2c-26.7 9.7-103.6 9.9-135.6 0-1.8-8.1-2.9-16-2.9-16"/>
  <path d="M213.6 324s-10.7 2.5-9.6 18.2c1.3 19.6 6.4 22 12 22 9.9-.1 19.5-3.4 18.2-18.4-1.3-13.9-8.5-15.3-13.8-15.1-1.7.1-6.9.4-6.9.4m152.8-7.1s10.7 2.5 9.6 18.2c-1.3 19.6-6.4 22-12 22-9.9-.1-19.5-3.4-18.2-18.4 1.3-13.9 8.5-15.3 13.8-15.1 1.7.1 6.9.4 6.9.4" style="fill:none;stroke:#03173d;stroke-width:4;stroke-miterlimit:10;stroke-linecap:round;stroke-linejoin:round"/>
  <path d="M280.8 179c-11.6 3.7-19.9 14.2-19.9 26.4v7m58.7 0v-7c0-12.3-8.3-22.7-19.9-26.4" style="fill:none;stroke:#03173d;stroke-width:4;stroke-miterlimit:10"/>
  <path style="fill:none;stroke:#03173d;stroke-width:4;stroke-linecap:round;stroke-miterlimit:10" d="M254.9 212.4h70.4"/>
  <path class="st5" d="M319.2 212.4v8.2c0 16.1-13 29.1-29.1 29.1s-29.1-13-29.1-29.1v-8.2"/>
  <path d="M301.9 203.4c-3.4-12.8-2.9-23.5-2.4-28.4h-19c.4 4.2 1.3 14.8-2.3 28.4" style="fill:none;stroke:#03173d;stroke-width:4;stroke-linejoin:round"/>
</svg>