<svg version="1.1" id="Laag_1" xmlns="http://www.w3.org/2000/svg" xmlns:xlink="http://www.w3.org/1999/xlink" x="0" y="0" viewBox="0 0 841.9 595.3" style="enable-background:new 0 0 841.9 595.3" xml:space="preserve">
  <style>
    .st1{fill:#03173d}
  </style>
  <pattern width="1218.9" height="1502.4" patternUnits="userSpaceOnUse" id="stippels" viewBox="3.9 -1502.4 1218.9 1502.4" style="overflow:visible">
    <path style="fill:none" d="M3.9-1502.4h1218.9V0H3.9z"/>
    <circle class="st1" cx="1222.8" cy="-1467.2" r="3.9"/>
    <circle class="st1" cx="1222.8" cy="-1391.9" r="3.9"/>
    <circle class="st1" cx="1222.8" cy="-1316.5" r="3.9"/>
    <circle class="st1" cx="1222.8" cy="-1241.1" r="3.9"/>
    <circle class="st1" cx="1222.8" cy="-1165.7" r="3.9"/>
    <path class="st1" d="M1222.8-1086.4c-2.2 0-3.9-1.8-3.9-3.9 0-2.2 1.8-3.9 3.9-3.9 2.2 0 3.9 1.8 3.9 3.9.1 2.1-1.7 3.9-3.9 3.9z"/>
    <circle class="st1" cx="1222.8" cy="-1015" r="3.9"/>
    <circle class="st1" cx="1222.8" cy="-939.6" r="3.9"/>
    <circle class="st1" cx="1222.8" cy="-864.2" r="3.9"/>
    <circle class="st1" cx="1222.8" cy="-788.9" r="3.9"/>
    <path class="st1" d="M1222.8-709.6c-2.2 0-3.9-1.8-3.9-3.9 0-2.2 1.8-3.9 3.9-3.9 2.2 0 3.9 1.8 3.9 3.9.1 2.2-1.7 3.9-3.9 3.9z"/>
    <circle class="st1" cx="1222.8" cy="-638.1" r="3.9"/>
    <circle class="st1" cx="1222.8" cy="-562.7" r="3.9"/>
    <circle class="st1" cx="1222.8" cy="-487.4" r="3.9"/>
    <circle class="st1" cx="1222.8" cy="-412" r="3.9"/>
    <circle class="st1" cx="1222.8" cy="-336.6" r="3.9"/>
    <circle class="st1" cx="1222.8" cy="-261.2" r="3.9"/>
    <circle class="st1" cx="1222.8" cy="-185.9" r="3.9"/>
    <path class="st1" d="M1222.8-106.6c-2.2 0-3.9-1.8-3.9-3.9 0-2.2 1.8-3.9 3.9-3.9 2.2 0 3.9 1.8 3.9 3.9.1 2.2-1.7 3.9-3.9 3.9z"/>
    <circle class="st1" cx="1222.8" cy="-35.1" r="3.9"/>
    <circle class="st1" cx="1155.3" cy="-1467.2" r="3.9"/>
    <circle class="st1" cx="1155.3" cy="-1391.9" r="3.9"/>
    <circle class="st1" cx="1155.3" cy="-1316.5" r="3.9"/>
    <circle class="st1" cx="1155.3" cy="-1241.1" r="3.9"/>
    <circle class="st1" cx="1155.3" cy="-1165.7" r="3.9"/>
    <path class="st1" d="M1155.3-1086.4c-2.2 0-3.9-1.8-3.9-3.9 0-2.2 1.8-3.9 3.9-3.9 2.2 0 3.9 1.8 3.9 3.9.1 2.1-1.7 3.9-3.9 3.9z"/>
    <circle class="st1" cx="1155.3" cy="-1015" r="3.9"/>
    <circle class="st1" cx="1155.3" cy="-939.6" r="3.9"/>
    <circle class="st1" cx="1155.3" cy="-864.2" r="3.9"/>
    <circle class="st1" cx="1155.3" cy="-788.9" r="3.9"/>
    <path class="st1" d="M1155.3-709.6c-2.2 0-3.9-1.8-3.9-3.9 0-2.2 1.8-3.9 3.9-3.9s3.9 1.8 3.9 3.9c.1 2.2-1.7 3.9-3.9 3.9z"/>
    <circle class="st1" cx="1155.3" cy="-638.1" r="3.9"/>
    <circle class="st1" cx="1155.3" cy="-562.7" r="3.9"/>
    <circle class="st1" cx="1155.3" cy="-487.4" r="3.9"/>
    <circle class="st1" cx="1155.3" cy="-412" r="3.9"/>
    <circle class="st1" cx="1155.3" cy="-336.6" r="3.9"/>
    <circle class="st1" cx="1155.3" cy="-261.2" r="3.9"/>
    <circle class="st1" cx="1155.3" cy="-185.9" r="3.9"/>
    <path class="st1" d="M1155.3-106.6c-2.2 0-3.9-1.8-3.9-3.9 0-2.2 1.8-3.9 3.9-3.9 2.2 0 3.9 1.8 3.9 3.9.1 2.2-1.7 3.9-3.9 3.9z"/>
    <circle class="st1" cx="1155.3" cy="-35.1" r="3.9"/>
    <circle class="st1" cx="1087.8" cy="-1467.2" r="3.9"/>
    <circle class="st1" cx="1087.8" cy="-1391.9" r="3.9"/>
    <circle class="st1" cx="1087.8" cy="-1316.5" r="3.9"/>
    <circle class="st1" cx="1087.8" cy="-1241.1" r="3.9"/>
    <circle class="st1" cx="1087.8" cy="-1165.7" r="3.9"/>
    <path class="st1" d="M1087.8-1086.4c-2.2 0-3.9-1.8-3.9-3.9 0-2.2 1.8-3.9 3.9-3.9 2.2 0 3.9 1.8 3.9 3.9 0 2.1-1.7 3.9-3.9 3.9z"/>
    <circle class="st1" cx="1087.8" cy="-1015" r="3.9"/>
    <circle class="st1" cx="1087.8" cy="-939.6" r="3.9"/>
    <circle class="st1" cx="1087.8" cy="-864.2" r="3.9"/>
    <circle class="st1" cx="1087.8" cy="-788.9" r="3.9"/>
    <path class="st1" d="M1087.8-709.6c-2.2 0-3.9-1.8-3.9-3.9 0-2.2 1.8-3.9 3.9-3.9s3.9 1.8 3.9 3.9c0 2.2-1.7 3.9-3.9 3.9z"/>
    <circle class="st1" cx="1087.8" cy="-638.1" r="3.9"/>
    <circle class="st1" cx="1087.8" cy="-562.7" r="3.9"/>
    <circle class="st1" cx="1087.8" cy="-487.4" r="3.9"/>
    <circle class="st1" cx="1087.8" cy="-412" r="3.9"/>
    <circle class="st1" cx="1087.8" cy="-336.6" r="3.9"/>
    <circle class="st1" cx="1087.8" cy="-261.2" r="3.9"/>
    <circle class="st1" cx="1087.8" cy="-185.9" r="3.9"/>
    <path class="st1" d="M1087.8-106.6c-2.2 0-3.9-1.8-3.9-3.9 0-2.2 1.8-3.9 3.9-3.9 2.2 0 3.9 1.8 3.9 3.9 0 2.2-1.7 3.9-3.9 3.9z"/>
    <circle class="st1" cx="1087.8" cy="-35.1" r="3.9"/>
    <circle class="st1" cx="1020.3" cy="-1467.2" r="3.9"/>
    <circle class="st1" cx="1020.3" cy="-1391.9" r="3.9"/>
    <circle class="st1" cx="1020.3" cy="-1316.5" r="3.9"/>
    <circle class="st1" cx="1020.3" cy="-1241.1" r="3.9"/>
    <circle class="st1" cx="1020.3" cy="-1165.7" r="3.9"/>
    <path class="st1" d="M1020.3-1086.4c-2.2 0-3.9-1.8-3.9-3.9 0-2.2 1.8-3.9 3.9-3.9 2.2 0 3.9 1.8 3.9 3.9 0 2.1-1.7 3.9-3.9 3.9z"/>
    <circle class="st1" cx="1020.3" cy="-1015" r="3.9"/>
    <circle class="st1" cx="1020.3" cy="-939.6" r="3.9"/>
    <circle class="st1" cx="1020.3" cy="-864.2" r="3.9"/>
    <circle class="st1" cx="1020.3" cy="-788.9" r="3.9"/>
    <path class="st1" d="M1020.3-709.6c-2.2 0-3.9-1.8-3.9-3.9 0-2.2 1.8-3.9 3.9-3.9 2.2 0 3.9 1.8 3.9 3.9 0 2.2-1.7 3.9-3.9 3.9z"/>
    <circle class="st1" cx="1020.3" cy="-638.1" r="3.9"/>
    <circle class="st1" cx="1020.3" cy="-562.7" r="3.9"/>
    <circle class="st1" cx="1020.3" cy="-487.4" r="3.9"/>
    <circle class="st1" cx="1020.3" cy="-412" r="3.9"/>
    <circle class="st1" cx="1020.3" cy="-336.6" r="3.9"/>
    <circle class="st1" cx="1020.3" cy="-261.2" r="3.9"/>
    <circle class="st1" cx="1020.3" cy="-185.9" r="3.9"/>
    <path class="st1" d="M1020.3-106.6c-2.2 0-3.9-1.8-3.9-3.9 0-2.2 1.8-3.9 3.9-3.9 2.2 0 3.9 1.8 3.9 3.9 0 2.2-1.7 3.9-3.9 3.9z"/>
    <circle class="st1" cx="1020.3" cy="-35.1" r="3.9"/>
    <circle class="st1" cx="952.8" cy="-1467.2" r="3.9"/>
    <circle class="st1" cx="952.8" cy="-1391.9" r="3.9"/>
    <circle class="st1" cx="952.8" cy="-1316.5" r="3.9"/>
    <circle class="st1" cx="952.8" cy="-1241.1" r="3.9"/>
    <circle class="st1" cx="952.8" cy="-1165.7" r="3.9"/>
    <path class="st1" d="M952.8-1086.4c-2.2 0-3.9-1.8-3.9-3.9 0-2.2 1.8-3.9 3.9-3.9 2.2 0 3.9 1.8 3.9 3.9 0 2.1-1.7 3.9-3.9 3.9z"/>
    <circle class="st1" cx="952.8" cy="-1015" r="3.9"/>
    <circle class="st1" cx="952.8" cy="-939.6" r="3.9"/>
    <circle class="st1" cx="952.8" cy="-864.2" r="3.9"/>
    <circle class="st1" cx="952.8" cy="-788.9" r="3.9"/>
    <path class="st1" d="M952.8-709.6c-2.2 0-3.9-1.8-3.9-3.9 0-2.2 1.8-3.9 3.9-3.9 2.2 0 3.9 1.8 3.9 3.9 0 2.2-1.7 3.9-3.9 3.9z"/>
    <circle class="st1" cx="952.8" cy="-638.1" r="3.9"/>
    <circle class="st1" cx="952.8" cy="-562.7" r="3.9"/>
    <circle class="st1" cx="952.8" cy="-487.4" r="3.9"/>
    <circle class="st1" cx="952.8" cy="-412" r="3.9"/>
    <circle class="st1" cx="952.8" cy="-336.6" r="3.9"/>
    <circle class="st1" cx="952.8" cy="-261.2" r="3.9"/>
    <circle class="st1" cx="952.8" cy="-185.9" r="3.9"/>
    <path class="st1" d="M952.8-106.6c-2.2 0-3.9-1.8-3.9-3.9 0-2.2 1.8-3.9 3.9-3.9 2.2 0 3.9 1.8 3.9 3.9 0 2.2-1.7 3.9-3.9 3.9z"/>
    <circle class="st1" cx="952.8" cy="-35.1" r="3.9"/>
    <circle class="st1" cx="883.4" cy="-1467.2" r="3.9"/>
    <circle class="st1" cx="883.4" cy="-1391.9" r="3.9"/>
    <circle class="st1" cx="883.4" cy="-1316.5" r="3.9"/>
    <circle class="st1" cx="883.4" cy="-1241.1" r="3.9"/>
    <circle class="st1" cx="883.4" cy="-1165.7" r="3.9"/>
    <path class="st1" d="M883.4-1086.4c-2.2 0-3.9-1.8-3.9-3.9 0-2.2 1.8-3.9 3.9-3.9 2.2 0 3.9 1.8 3.9 3.9.1 2.1-1.7 3.9-3.9 3.9z"/>
    <circle class="st1" cx="883.4" cy="-1015" r="3.9"/>
    <circle class="st1" cx="883.4" cy="-939.6" r="3.9"/>
    <circle class="st1" cx="883.4" cy="-864.2" r="3.9"/>
    <circle class="st1" cx="883.4" cy="-788.9" r="3.9"/>
    <path class="st1" d="M883.4-709.6c-2.2 0-3.9-1.8-3.9-3.9 0-2.2 1.8-3.9 3.9-3.9 2.2 0 3.9 1.8 3.9 3.9.1 2.2-1.7 3.9-3.9 3.9z"/>
    <circle class="st1" cx="883.4" cy="-638.1" r="3.9"/>
    <circle class="st1" cx="883.4" cy="-562.7" r="3.9"/>
    <circle class="st1" cx="883.4" cy="-487.4" r="3.9"/>
    <circle class="st1" cx="883.4" cy="-412" r="3.9"/>
    <circle class="st1" cx="883.4" cy="-336.6" r="3.9"/>
    <circle class="st1" cx="883.4" cy="-261.2" r="3.9"/>
    <circle class="st1" cx="883.4" cy="-185.9" r="3.9"/>
    <path class="st1" d="M883.4-106.6c-2.2 0-3.9-1.8-3.9-3.9 0-2.2 1.8-3.9 3.9-3.9 2.2 0 3.9 1.8 3.9 3.9.1 2.2-1.7 3.9-3.9 3.9z"/>
    <circle class="st1" cx="883.4" cy="-35.1" r="3.9"/>
    <circle class="st1" cx="815.9" cy="-1467.2" r="3.9"/>
    <circle class="st1" cx="815.9" cy="-1391.9" r="3.9"/>
    <circle class="st1" cx="815.9" cy="-1316.5" r="3.9"/>
    <circle class="st1" cx="815.9" cy="-1241.1" r="3.9"/>
    <circle class="st1" cx="815.9" cy="-1165.7" r="3.9"/>
    <path class="st1" d="M815.9-1086.4c-2.2 0-3.9-1.8-3.9-3.9 0-2.2 1.8-3.9 3.9-3.9s3.9 1.8 3.9 3.9c0 2.1-1.7 3.9-3.9 3.9z"/>
    <circle class="st1" cx="815.9" cy="-1015" r="3.9"/>
    <circle class="st1" cx="815.9" cy="-939.6" r="3.9"/>
    <circle class="st1" cx="815.9" cy="-864.2" r="3.9"/>
    <circle class="st1" cx="815.9" cy="-788.9" r="3.9"/>
    <path class="st1" d="M815.9-709.6c-2.2 0-3.9-1.8-3.9-3.9 0-2.2 1.8-3.9 3.9-3.9 2.2 0 3.9 1.8 3.9 3.9 0 2.2-1.7 3.9-3.9 3.9z"/>
    <circle class="st1" cx="815.9" cy="-638.1" r="3.9"/>
    <circle class="st1" cx="815.9" cy="-562.7" r="3.9"/>
    <circle class="st1" cx="815.9" cy="-487.4" r="3.9"/>
    <circle class="st1" cx="815.9" cy="-412" r="3.9"/>
    <circle class="st1" cx="815.9" cy="-336.6" r="3.9"/>
    <circle class="st1" cx="815.9" cy="-261.2" r="3.9"/>
    <circle class="st1" cx="815.9" cy="-185.9" r="3.9"/>
    <path class="st1" d="M815.9-106.6c-2.2 0-3.9-1.8-3.9-3.9 0-2.2 1.8-3.9 3.9-3.9 2.2 0 3.9 1.8 3.9 3.9 0 2.2-1.7 3.9-3.9 3.9z"/>
    <circle class="st1" cx="815.9" cy="-35.1" r="3.9"/>
    <circle class="st1" cx="748.4" cy="-1467.2" r="3.9"/>
    <circle class="st1" cx="748.4" cy="-1391.9" r="3.9"/>
    <circle class="st1" cx="748.4" cy="-1316.5" r="3.9"/>
    <circle class="st1" cx="748.4" cy="-1241.1" r="3.9"/>
    <circle class="st1" cx="748.4" cy="-1165.7" r="3.9"/>
    <path class="st1" d="M748.4-1086.4c-2.2 0-3.9-1.8-3.9-3.9 0-2.2 1.8-3.9 3.9-3.9 2.2 0 3.9 1.8 3.9 3.9 0 2.1-1.7 3.9-3.9 3.9z"/>
    <circle class="st1" cx="748.4" cy="-1015" r="3.9"/>
    <circle class="st1" cx="748.4" cy="-939.6" r="3.9"/>
    <circle class="st1" cx="748.4" cy="-864.2" r="3.9"/>
    <circle class="st1" cx="748.4" cy="-788.9" r="3.9"/>
    <path class="st1" d="M748.4-709.6c-2.2 0-3.9-1.8-3.9-3.9 0-2.2 1.8-3.9 3.9-3.9 2.2 0 3.9 1.8 3.9 3.9 0 2.2-1.7 3.9-3.9 3.9z"/>
    <circle class="st1" cx="748.4" cy="-638.1" r="3.9"/>
    <circle class="st1" cx="748.4" cy="-562.7" r="3.9"/>
    <circle class="st1" cx="748.4" cy="-487.4" r="3.9"/>
    <circle class="st1" cx="748.4" cy="-412" r="3.9"/>
    <circle class="st1" cx="748.4" cy="-336.6" r="3.9"/>
    <circle class="st1" cx="748.4" cy="-261.2" r="3.9"/>
    <circle class="st1" cx="748.4" cy="-185.9" r="3.9"/>
    <path class="st1" d="M748.4-106.6c-2.2 0-3.9-1.8-3.9-3.9 0-2.2 1.8-3.9 3.9-3.9 2.2 0 3.9 1.8 3.9 3.9 0 2.2-1.7 3.9-3.9 3.9z"/>
    <circle class="st1" cx="748.4" cy="-35.1" r="3.9"/>
    <circle class="st1" cx="680.9" cy="-1467.2" r="3.9"/>
    <circle class="st1" cx="680.9" cy="-1391.9" r="3.9"/>
    <circle class="st1" cx="680.9" cy="-1316.5" r="3.9"/>
    <circle class="st1" cx="680.9" cy="-1241.1" r="3.9"/>
    <circle class="st1" cx="680.9" cy="-1165.7" r="3.9"/>
    <path class="st1" d="M680.9-1086.4c-2.2 0-3.9-1.8-3.9-3.9 0-2.2 1.8-3.9 3.9-3.9 2.2 0 3.9 1.8 3.9 3.9 0 2.1-1.7 3.9-3.9 3.9z"/>
    <circle class="st1" cx="680.9" cy="-1015" r="3.9"/>
    <circle class="st1" cx="680.9" cy="-939.6" r="3.9"/>
    <circle class="st1" cx="680.9" cy="-864.2" r="3.9"/>
    <circle class="st1" cx="680.9" cy="-788.9" r="3.9"/>
    <path class="st1" d="M680.9-709.6c-2.2 0-3.9-1.8-3.9-3.9 0-2.2 1.8-3.9 3.9-3.9 2.2 0 3.9 1.8 3.9 3.9 0 2.2-1.7 3.9-3.9 3.9z"/>
    <circle class="st1" cx="680.9" cy="-638.1" r="3.9"/>
    <circle class="st1" cx="680.9" cy="-562.7" r="3.9"/>
    <circle class="st1" cx="680.9" cy="-487.4" r="3.9"/>
    <circle class="st1" cx="680.9" cy="-412" r="3.9"/>
    <circle class="st1" cx="680.9" cy="-336.6" r="3.9"/>
    <circle class="st1" cx="680.9" cy="-261.2" r="3.9"/>
    <circle class="st1" cx="680.9" cy="-185.9" r="3.9"/>
    <path class="st1" d="M680.9-106.6c-2.2 0-3.9-1.8-3.9-3.9 0-2.2 1.8-3.9 3.9-3.9 2.2 0 3.9 1.8 3.9 3.9 0 2.2-1.7 3.9-3.9 3.9z"/>
    <circle class="st1" cx="680.9" cy="-35.1" r="3.9"/>
    <circle class="st1" cx="613.4" cy="-1467.2" r="3.9"/>
    <circle class="st1" cx="613.4" cy="-1391.9" r="3.9"/>
    <circle class="st1" cx="613.4" cy="-1316.5" r="3.9"/>
    <circle class="st1" cx="613.4" cy="-1241.1" r="3.9"/>
    <circle class="st1" cx="613.4" cy="-1165.7" r="3.9"/>
    <path class="st1" d="M613.4-1086.4c-2.2 0-3.9-1.8-3.9-3.9 0-2.2 1.8-3.9 3.9-3.9s3.9 1.8 3.9 3.9c0 2.1-1.7 3.9-3.9 3.9z"/>
    <circle class="st1" cx="613.4" cy="-1015" r="3.9"/>
    <circle class="st1" cx="613.4" cy="-939.6" r="3.9"/>
    <circle class="st1" cx="613.4" cy="-864.2" r="3.9"/>
    <circle class="st1" cx="613.4" cy="-788.9" r="3.9"/>
    <path class="st1" d="M613.4-709.6c-2.2 0-3.9-1.8-3.9-3.9 0-2.2 1.8-3.9 3.9-3.9s3.9 1.8 3.9 3.9c0 2.2-1.7 3.9-3.9 3.9z"/>
    <circle class="st1" cx="613.4" cy="-638.1" r="3.9"/>
    <circle class="st1" cx="613.4" cy="-562.7" r="3.9"/>
    <circle class="st1" cx="613.4" cy="-487.4" r="3.9"/>
    <circle class="st1" cx="613.4" cy="-412" r="3.9"/>
    <circle class="st1" cx="613.4" cy="-336.6" r="3.9"/>
    <circle class="st1" cx="613.4" cy="-261.2" r="3.9"/>
    <circle class="st1" cx="613.4" cy="-185.9" r="3.9"/>
    <path class="st1" d="M613.4-106.6c-2.2 0-3.9-1.8-3.9-3.9 0-2.2 1.8-3.9 3.9-3.9 2.2 0 3.9 1.8 3.9 3.9 0 2.2-1.7 3.9-3.9 3.9z"/>
    <circle class="st1" cx="613.4" cy="-35.1" r="3.9"/>
    <circle class="st1" cx="545.9" cy="-1467.2" r="3.9"/>
    <circle class="st1" cx="545.9" cy="-1391.9" r="3.9"/>
    <circle class="st1" cx="545.9" cy="-1316.5" r="3.9"/>
    <circle class="st1" cx="545.9" cy="-1241.1" r="3.9"/>
    <circle class="st1" cx="545.9" cy="-1165.7" r="3.9"/>
    <path class="st1" d="M545.9-1086.4c-2.2 0-3.9-1.8-3.9-3.9 0-2.2 1.8-3.9 3.9-3.9 2.2 0 3.9 1.8 3.9 3.9 0 2.1-1.8 3.9-3.9 3.9z"/>
    <circle class="st1" cx="545.9" cy="-1015" r="3.9"/>
    <circle class="st1" cx="545.9" cy="-939.6" r="3.9"/>
    <circle class="st1" cx="545.9" cy="-864.2" r="3.9"/>
    <circle class="st1" cx="545.9" cy="-788.9" r="3.9"/>
    <path class="st1" d="M545.9-709.6c-2.2 0-3.9-1.8-3.9-3.9 0-2.2 1.8-3.9 3.9-3.9 2.2 0 3.9 1.8 3.9 3.9 0 2.2-1.8 3.9-3.9 3.9z"/>
    <circle class="st1" cx="545.9" cy="-638.1" r="3.9"/>
    <circle class="st1" cx="545.9" cy="-562.7" r="3.9"/>
    <circle class="st1" cx="545.9" cy="-487.4" r="3.9"/>
    <circle class="st1" cx="545.9" cy="-412" r="3.9"/>
    <circle class="st1" cx="545.9" cy="-336.6" r="3.9"/>
    <circle class="st1" cx="545.9" cy="-261.2" r="3.9"/>
    <circle class="st1" cx="545.9" cy="-185.9" r="3.9"/>
    <path class="st1" d="M545.9-106.6c-2.2 0-3.9-1.8-3.9-3.9 0-2.2 1.8-3.9 3.9-3.9 2.2 0 3.9 1.8 3.9 3.9 0 2.2-1.8 3.9-3.9 3.9z"/>
    <circle class="st1" cx="545.9" cy="-35.1" r="3.9"/>
    <circle class="st1" cx="478.4" cy="-1467.2" r="3.9"/>
    <circle class="st1" cx="478.4" cy="-1391.9" r="3.9"/>
    <circle class="st1" cx="478.4" cy="-1316.5" r="3.9"/>
    <circle class="st1" cx="478.4" cy="-1241.1" r="3.9"/>
    <circle class="st1" cx="478.4" cy="-1165.7" r="3.9"/>
    <path class="st1" d="M478.4-1086.4c-2.2 0-3.9-1.8-3.9-3.9 0-2.2 1.8-3.9 3.9-3.9s3.9 1.8 3.9 3.9c0 2.1-1.8 3.9-3.9 3.9z"/>
    <circle class="st1" cx="478.4" cy="-1015" r="3.9"/>
    <circle class="st1" cx="478.4" cy="-939.6" r="3.9"/>
    <circle class="st1" cx="478.4" cy="-864.2" r="3.9"/>
    <circle class="st1" cx="478.4" cy="-788.9" r="3.9"/>
    <path class="st1" d="M478.4-709.6c-2.2 0-3.9-1.8-3.9-3.9 0-2.2 1.8-3.9 3.9-3.9s3.9 1.8 3.9 3.9c0 2.2-1.8 3.9-3.9 3.9z"/>
    <circle class="st1" cx="478.4" cy="-638.1" r="3.9"/>
    <circle class="st1" cx="478.4" cy="-562.7" r="3.9"/>
    <circle class="st1" cx="478.4" cy="-487.4" r="3.9"/>
    <circle class="st1" cx="478.4" cy="-412" r="3.9"/>
    <circle class="st1" cx="478.4" cy="-336.6" r="3.9"/>
    <circle class="st1" cx="478.4" cy="-261.2" r="3.9"/>
    <circle class="st1" cx="478.4" cy="-185.9" r="3.9"/>
    <path class="st1" d="M478.4-106.6c-2.2 0-3.9-1.8-3.9-3.9 0-2.2 1.8-3.9 3.9-3.9s3.9 1.8 3.9 3.9c0 2.2-1.8 3.9-3.9 3.9z"/>
    <circle class="st1" cx="478.4" cy="-35.1" r="3.9"/>
    <circle class="st1" cx="410.9" cy="-1467.2" r="3.9"/>
    <circle class="st1" cx="410.9" cy="-1391.9" r="3.9"/>
    <circle class="st1" cx="410.9" cy="-1316.5" r="3.9"/>
    <circle class="st1" cx="410.9" cy="-1241.1" r="3.9"/>
    <circle class="st1" cx="410.9" cy="-1165.7" r="3.9"/>
    <path class="st1" d="M410.9-1086.4c-2.2 0-3.9-1.8-3.9-3.9 0-2.2 1.8-3.9 3.9-3.9s3.9 1.8 3.9 3.9c0 2.1-1.8 3.9-3.9 3.9z"/>
    <circle class="st1" cx="410.9" cy="-1015" r="3.9"/>
    <circle class="st1" cx="410.9" cy="-939.6" r="3.9"/>
    <circle class="st1" cx="410.9" cy="-864.2" r="3.9"/>
    <circle class="st1" cx="410.9" cy="-788.9" r="3.9"/>
    <path class="st1" d="M410.9-709.6c-2.2 0-3.9-1.8-3.9-3.9 0-2.2 1.8-3.9 3.9-3.9 2.2 0 3.9 1.8 3.9 3.9 0 2.2-1.8 3.9-3.9 3.9z"/>
    <circle class="st1" cx="410.9" cy="-638.1" r="3.9"/>
    <circle class="st1" cx="410.9" cy="-562.7" r="3.9"/>
    <circle class="st1" cx="410.9" cy="-487.4" r="3.9"/>
    <circle class="st1" cx="410.9" cy="-412" r="3.9"/>
    <circle class="st1" cx="410.9" cy="-336.6" r="3.9"/>
    <circle class="st1" cx="410.9" cy="-261.2" r="3.9"/>
    <circle class="st1" cx="410.9" cy="-185.9" r="3.9"/>
    <path class="st1" d="M410.9-106.6c-2.2 0-3.9-1.8-3.9-3.9 0-2.2 1.8-3.9 3.9-3.9s3.9 1.8 3.9 3.9c0 2.2-1.8 3.9-3.9 3.9z"/>
    <circle class="st1" cx="410.9" cy="-35.1" r="3.9"/>
    <circle class="st1" cx="343.3" cy="-1467.2" r="3.9"/>
    <circle class="st1" cx="343.3" cy="-1391.9" r="3.9"/>
    <circle class="st1" cx="343.3" cy="-1316.5" r="3.9"/>
    <circle class="st1" cx="343.3" cy="-1241.1" r="3.9"/>
    <circle class="st1" cx="343.3" cy="-1165.7" r="3.9"/>
    <path class="st1" d="M343.3-1086.4c-2.2 0-3.9-1.8-3.9-3.9 0-2.2 1.8-3.9 3.9-3.9s3.9 1.8 3.9 3.9c.1 2.1-1.7 3.9-3.9 3.9z"/>
    <circle class="st1" cx="343.3" cy="-1015" r="3.9"/>
    <circle class="st1" cx="343.3" cy="-939.6" r="3.9"/>
    <circle class="st1" cx="343.3" cy="-864.2" r="3.9"/>
    <circle class="st1" cx="343.3" cy="-788.9" r="3.9"/>
    <path class="st1" d="M343.3-709.6c-2.2 0-3.9-1.8-3.9-3.9 0-2.2 1.8-3.9 3.9-3.9s3.9 1.8 3.9 3.9c.1 2.2-1.7 3.9-3.9 3.9z"/>
    <circle class="st1" cx="343.3" cy="-638.1" r="3.9"/>
    <circle class="st1" cx="343.3" cy="-562.7" r="3.9"/>
    <circle class="st1" cx="343.3" cy="-487.4" r="3.9"/>
    <circle class="st1" cx="343.3" cy="-412" r="3.9"/>
    <circle class="st1" cx="343.3" cy="-336.6" r="3.9"/>
    <circle class="st1" cx="343.3" cy="-261.2" r="3.9"/>
    <circle class="st1" cx="343.3" cy="-185.9" r="3.9"/>
    <path class="st1" d="M343.3-106.6c-2.2 0-3.9-1.8-3.9-3.9 0-2.2 1.8-3.9 3.9-3.9 2.2 0 3.9 1.8 3.9 3.9.1 2.2-1.7 3.9-3.9 3.9z"/>
    <circle class="st1" cx="343.3" cy="-35.1" r="3.9"/>
    <circle class="st1" cx="274" cy="-1467.2" r="3.9"/>
    <circle class="st1" cx="274" cy="-1391.9" r="3.9"/>
    <circle class="st1" cx="274" cy="-1316.5" r="3.9"/>
    <circle class="st1" cx="274" cy="-1241.1" r="3.9"/>
    <circle class="st1" cx="274" cy="-1165.7" r="3.9"/>
    <path class="st1" d="M274-1086.4c-2.2 0-3.9-1.8-3.9-3.9 0-2.2 1.8-3.9 3.9-3.9s3.9 1.8 3.9 3.9c0 2.1-1.8 3.9-3.9 3.9z"/>
    <circle class="st1" cx="274" cy="-1015" r="3.9"/>
    <circle class="st1" cx="274" cy="-939.6" r="3.9"/>
    <circle class="st1" cx="274" cy="-864.2" r="3.9"/>
    <circle class="st1" cx="274" cy="-788.9" r="3.9"/>
    <path class="st1" d="M274-709.6c-2.2 0-3.9-1.8-3.9-3.9 0-2.2 1.8-3.9 3.9-3.9s3.9 1.8 3.9 3.9c0 2.2-1.8 3.9-3.9 3.9z"/>
    <circle class="st1" cx="274" cy="-638.1" r="3.9"/>
    <circle class="st1" cx="274" cy="-562.7" r="3.9"/>
    <circle class="st1" cx="274" cy="-487.4" r="3.9"/>
    <circle class="st1" cx="274" cy="-412" r="3.9"/>
    <circle class="st1" cx="274" cy="-336.6" r="3.9"/>
    <circle class="st1" cx="274" cy="-261.2" r="3.9"/>
    <circle class="st1" cx="274" cy="-185.9" r="3.9"/>
    <path class="st1" d="M274-106.6c-2.2 0-3.9-1.8-3.9-3.9 0-2.2 1.8-3.9 3.9-3.9s3.9 1.8 3.9 3.9c0 2.2-1.8 3.9-3.9 3.9z"/>
    <circle class="st1" cx="274" cy="-35.1" r="3.9"/>
    <circle class="st1" cx="206.5" cy="-1467.2" r="3.9"/>
    <circle class="st1" cx="206.5" cy="-1391.9" r="3.9"/>
    <circle class="st1" cx="206.5" cy="-1316.5" r="3.9"/>
    <circle class="st1" cx="206.5" cy="-1241.1" r="3.9"/>
    <circle class="st1" cx="206.5" cy="-1165.7" r="3.9"/>
    <path class="st1" d="M206.5-1086.4c-2.2 0-3.9-1.8-3.9-3.9 0-2.2 1.8-3.9 3.9-3.9s3.9 1.8 3.9 3.9c0 2.1-1.8 3.9-3.9 3.9z"/>
    <circle class="st1" cx="206.5" cy="-1015" r="3.9"/>
    <circle class="st1" cx="206.5" cy="-939.6" r="3.9"/>
    <circle class="st1" cx="206.5" cy="-864.2" r="3.9"/>
    <circle class="st1" cx="206.5" cy="-788.9" r="3.9"/>
    <path class="st1" d="M206.5-709.6c-2.2 0-3.9-1.8-3.9-3.9 0-2.2 1.8-3.9 3.9-3.9s3.9 1.8 3.9 3.9c0 2.2-1.8 3.9-3.9 3.9z"/>
    <circle class="st1" cx="206.5" cy="-638.1" r="3.9"/>
    <circle class="st1" cx="206.5" cy="-562.7" r="3.9"/>
    <circle class="st1" cx="206.5" cy="-487.4" r="3.9"/>
    <circle class="st1" cx="206.5" cy="-412" r="3.9"/>
    <circle class="st1" cx="206.5" cy="-336.6" r="3.9"/>
    <circle class="st1" cx="206.5" cy="-261.2" r="3.9"/>
    <circle class="st1" cx="206.5" cy="-185.9" r="3.9"/>
    <path class="st1" d="M206.5-106.6c-2.2 0-3.9-1.8-3.9-3.9 0-2.2 1.8-3.9 3.9-3.9 2.2 0 3.9 1.8 3.9 3.9 0 2.2-1.8 3.9-3.9 3.9z"/>
    <circle class="st1" cx="206.5" cy="-35.1" r="3.9"/>
    <circle class="st1" cx="139" cy="-1467.2" r="3.9"/>
    <circle class="st1" cx="139" cy="-1391.9" r="3.9"/>
    <circle class="st1" cx="139" cy="-1316.5" r="3.9"/>
    <circle class="st1" cx="139" cy="-1241.1" r="3.9"/>
    <circle class="st1" cx="139" cy="-1165.7" r="3.9"/>
    <path class="st1" d="M139-1086.4c-2.2 0-3.9-1.8-3.9-3.9 0-2.2 1.8-3.9 3.9-3.9s3.9 1.8 3.9 3.9c0 2.1-1.8 3.9-3.9 3.9z"/>
    <circle class="st1" cx="139" cy="-1015" r="3.9"/>
    <circle class="st1" cx="139" cy="-939.6" r="3.9"/>
    <circle class="st1" cx="139" cy="-864.2" r="3.9"/>
    <circle class="st1" cx="139" cy="-788.9" r="3.9"/>
    <path class="st1" d="M139-709.6c-2.2 0-3.9-1.8-3.9-3.9 0-2.2 1.8-3.9 3.9-3.9s3.9 1.8 3.9 3.9c0 2.2-1.8 3.9-3.9 3.9z"/>
    <circle class="st1" cx="139" cy="-638.1" r="3.9"/>
    <circle class="st1" cx="139" cy="-562.7" r="3.9"/>
    <circle class="st1" cx="139" cy="-487.4" r="3.9"/>
    <circle class="st1" cx="139" cy="-412" r="3.9"/>
    <circle class="st1" cx="139" cy="-336.6" r="3.9"/>
    <circle class="st1" cx="139" cy="-261.2" r="3.9"/>
    <circle class="st1" cx="139" cy="-185.9" r="3.9"/>
    <path class="st1" d="M139-106.6c-2.2 0-3.9-1.8-3.9-3.9 0-2.2 1.8-3.9 3.9-3.9s3.9 1.8 3.9 3.9c0 2.2-1.8 3.9-3.9 3.9z"/>
    <circle class="st1" cx="139" cy="-35.1" r="3.9"/>
    <circle class="st1" cx="71.4" cy="-1467.2" r="3.9"/>
    <circle class="st1" cx="71.4" cy="-1391.9" r="3.9"/>
    <circle class="st1" cx="71.4" cy="-1316.5" r="3.9"/>
    <circle class="st1" cx="71.4" cy="-1241.1" r="3.9"/>
    <circle class="st1" cx="71.4" cy="-1165.7" r="3.9"/>
    <path class="st1" d="M71.4-1086.4c-2.2 0-3.9-1.8-3.9-3.9 0-2.2 1.8-3.9 3.9-3.9s3.9 1.8 3.9 3.9c.1 2.1-1.7 3.9-3.9 3.9z"/>
    <circle class="st1" cx="71.4" cy="-1015" r="3.9"/>
    <circle class="st1" cx="71.4" cy="-939.6" r="3.9"/>
    <circle class="st1" cx="71.4" cy="-864.2" r="3.9"/>
    <circle class="st1" cx="71.4" cy="-788.9" r="3.9"/>
    <path class="st1" d="M71.4-709.6c-2.2 0-3.9-1.8-3.9-3.9 0-2.2 1.8-3.9 3.9-3.9s3.9 1.8 3.9 3.9c.1 2.2-1.7 3.9-3.9 3.9z"/>
    <circle class="st1" cx="71.4" cy="-638.1" r="3.9"/>
    <circle class="st1" cx="71.4" cy="-562.7" r="3.9"/>
    <circle class="st1" cx="71.4" cy="-487.4" r="3.9"/>
    <circle class="st1" cx="71.4" cy="-412" r="3.9"/>
    <circle class="st1" cx="71.4" cy="-336.6" r="3.9"/>
    <circle class="st1" cx="71.4" cy="-261.2" r="3.9"/>
    <circle class="st1" cx="71.4" cy="-185.9" r="3.9"/>
    <path class="st1" d="M71.4-106.6c-2.2 0-3.9-1.8-3.9-3.9 0-2.2 1.8-3.9 3.9-3.9s3.9 1.8 3.9 3.9c.1 2.2-1.7 3.9-3.9 3.9z"/>
    <circle class="st1" cx="71.4" cy="-35.1" r="3.9"/>
    <circle class="st1" cx="3.9" cy="-1467.2" r="3.9"/>
    <circle class="st1" cx="3.9" cy="-1391.9" r="3.9"/>
    <circle class="st1" cx="3.9" cy="-1316.5" r="3.9"/>
    <circle class="st1" cx="3.9" cy="-1241.1" r="3.9"/>
    <circle class="st1" cx="3.9" cy="-1165.7" r="3.9"/>
    <path class="st1" d="M3.9-1086.4c-2.2 0-3.9-1.8-3.9-3.9 0-2.2 1.8-3.9 3.9-3.9 2.2 0 3.9 1.8 3.9 3.9.1 2.1-1.7 3.9-3.9 3.9z"/>
    <circle class="st1" cx="3.9" cy="-1015" r="3.9"/>
    <circle class="st1" cx="3.9" cy="-939.6" r="3.9"/>
    <circle class="st1" cx="3.9" cy="-864.2" r="3.9"/>
    <circle class="st1" cx="3.9" cy="-788.9" r="3.9"/>
    <path class="st1" d="M3.9-709.6c-2.2 0-3.9-1.8-3.9-3.9 0-2.2 1.8-3.9 3.9-3.9 2.2 0 3.9 1.8 3.9 3.9.1 2.2-1.7 3.9-3.9 3.9z"/>
    <circle class="st1" cx="3.9" cy="-638.1" r="3.9"/>
    <circle class="st1" cx="3.9" cy="-562.7" r="3.9"/>
    <circle class="st1" cx="3.9" cy="-487.4" r="3.9"/>
    <circle class="st1" cx="3.9" cy="-412" r="3.9"/>
    <circle class="st1" cx="3.9" cy="-336.6" r="3.9"/>
    <circle class="st1" cx="3.9" cy="-261.2" r="3.9"/>
    <circle class="st1" cx="3.9" cy="-185.9" r="3.9"/>
    <path class="st1" d="M3.9-106.6c-2.2 0-3.9-1.8-3.9-3.9 0-2.2 1.8-3.9 3.9-3.9 2.2 0 3.9 1.8 3.9 3.9.1 2.2-1.7 3.9-3.9 3.9z"/>
    <circle class="st1" cx="3.9" cy="-35.1" r="3.9"/>
  </pattern>
  <pattern id="SVGID_1_" xlink:href="#stippels" patternTransform="translate(-5898.981 -4791.624) scale(.4362)"/>
  <path style="fill:url(#SVGID_1_)" d="M283.8 159.4h417.8v397.9H283.8z"/>
  <circle cx="464.5" cy="159.4" r="121.5" style="fill:none;stroke:#99d1cc;stroke-width:4;stroke-miterlimit:10"/>
  <circle cx="271.5" cy="289.8" r="182.1" style="fill:#ffde42"/>
  <path d="M178.1 379.9V348c0-24.5 20.7-40 50.8-40.8 31.3-.8 50.3-1.9 93.4-25.9 5.4-3 13.2-.8 16.3 3.5 5.9 7 4.6 16.5-2.3 21.6-16.2 12.2-41.4 25.5-70 34.9v38.5m-37.4-90c16.5 0 29.8-13.4 29.8-29.8 0-16.5-13.4-29.8-29.8-29.8-16.5 0-29.8 13.4-29.8 29.8-.1 16.4 13.3 29.8 29.8 29.8z" style="fill:none;stroke:#011520;stroke-width:4;stroke-linejoin:round;stroke-miterlimit:10"/>
  <path d="M280.2 227.2h89.3m-89.3 29.9H323" style="fill:none;stroke:#011520;stroke-width:4"/>
  <path style="fill:none;stroke:#011520;stroke-width:4;stroke-linecap:round" d="m335.2 280.9 8.1-15.2"/>
</svg>