<svg xmlns="http://www.w3.org/2000/svg" xml:space="preserve" width="1122.52" height="793.701" viewBox="0 0 1122.52 793.701">
  <defs>
    <pattern patternTransform="translate(-5901.2 4875.51) scale(.43623)" patternUnits="userSpaceOnUse" x="0" y="0" width="1218.9" height="1502.36" id="a">
      <path d="M0 0a3.933 3.933 0 1 0 0 7.866A3.933 3.933 0 0 0 0 0" style="fill:#03173d;fill-opacity:1;fill-rule:nonzero;stroke:none" transform="translate(1218.897 1463.316)"/>
      <path d="M0 0a3.933 3.933 0 1 0 0 7.866A3.933 3.933 0 0 0 0 0" style="fill:#03173d;fill-opacity:1;fill-rule:nonzero;stroke:none" transform="translate(1218.897 1387.94)"/>
      <path d="M0 0a3.933 3.933 0 1 0 0 7.866A3.933 3.933 0 0 0 0 0" style="fill:#03173d;fill-opacity:1;fill-rule:nonzero;stroke:none" transform="translate(1218.896 1312.565)"/>
      <path d="M0 0a3.933 3.933 0 1 0 0 7.866A3.933 3.933 0 0 0 0 0" style="fill:#03173d;fill-opacity:1;fill-rule:nonzero;stroke:none" transform="translate(1218.896 1237.19)"/>
      <path d="M0 0a3.933 3.933 0 1 0 0 7.866A3.933 3.933 0 0 0 0 0" style="fill:#03173d;fill-opacity:1;fill-rule:nonzero;stroke:none" transform="translate(1218.896 1161.814)"/>
      <path d="M0 0a3.933 3.933 0 1 0 0 7.866A3.933 3.933 0 0 0 0 0" style="fill:#03173d;fill-opacity:1;fill-rule:nonzero;stroke:none" transform="translate(1218.896 1086.438)"/>
      <path d="M0 0a3.933 3.933 0 1 0 0 7.866A3.933 3.933 0 0 0 0 0" style="fill:#03173d;fill-opacity:1;fill-rule:nonzero;stroke:none" transform="translate(1218.896 1011.063)"/>
      <path d="M0 0a3.933 3.933 0 1 0 0 7.866A3.933 3.933 0 0 0 0 0" style="fill:#03173d;fill-opacity:1;fill-rule:nonzero;stroke:none" transform="translate(1218.896 935.687)"/>
      <path d="M0 0a3.933 3.933 0 1 0 0 7.866A3.933 3.933 0 0 0 0 0" style="fill:#03173d;fill-opacity:1;fill-rule:nonzero;stroke:none" transform="translate(1218.896 860.312)"/>
      <path d="M0 0a3.933 3.933 0 1 0 0 7.866A3.933 3.933 0 0 0 0 0" style="fill:#03173d;fill-opacity:1;fill-rule:nonzero;stroke:none" transform="translate(1218.896 784.936)"/>
      <path d="M0 0a3.933 3.933 0 1 0 0 7.866A3.933 3.933 0 0 0 0 0" style="fill:#03173d;fill-opacity:1;fill-rule:nonzero;stroke:none" transform="translate(1218.896 709.56)"/>
      <path d="M0 0a3.933 3.933 0 1 0 0 7.866A3.933 3.933 0 0 0 0 0" style="fill:#03173d;fill-opacity:1;fill-rule:nonzero;stroke:none" transform="translate(1218.896 634.185)"/>
      <path d="M0 0a3.933 3.933 0 1 0 0 7.866A3.933 3.933 0 0 0 0 0" style="fill:#03173d;fill-opacity:1;fill-rule:nonzero;stroke:none" transform="translate(1218.896 558.81)"/>
      <path d="M0 0a3.933 3.933 0 1 0 0 7.866A3.933 3.933 0 0 0 0 0" style="fill:#03173d;fill-opacity:1;fill-rule:nonzero;stroke:none" transform="translate(1218.896 483.434)"/>
      <path d="M0 0a3.933 3.933 0 1 0 0 7.866A3.933 3.933 0 0 0 0 0" style="fill:#03173d;fill-opacity:1;fill-rule:nonzero;stroke:none" transform="translate(1218.896 408.059)"/>
      <path d="M0 0a3.933 3.933 0 1 0 0 7.866A3.933 3.933 0 0 0 0 0" style="fill:#03173d;fill-opacity:1;fill-rule:nonzero;stroke:none" transform="translate(1218.896 332.683)"/>
      <path d="M0 0a3.933 3.933 0 1 0 0 7.866A3.933 3.933 0 0 0 0 0" style="fill:#03173d;fill-opacity:1;fill-rule:nonzero;stroke:none" transform="translate(1218.896 257.308)"/>
      <path d="M0 0a3.933 3.933 0 1 0 0 7.866A3.933 3.933 0 0 0 0 0" style="fill:#03173d;fill-opacity:1;fill-rule:nonzero;stroke:none" transform="translate(1218.896 181.932)"/>
      <path d="M0 0a3.933 3.933 0 1 0 0 7.866A3.933 3.933 0 0 0 0 0" style="fill:#03173d;fill-opacity:1;fill-rule:nonzero;stroke:none" transform="translate(1218.896 106.557)"/>
      <path d="M0 0a3.933 3.933 0 1 0 0 7.866A3.933 3.933 0 0 0 0 0" style="fill:#03173d;fill-opacity:1;fill-rule:nonzero;stroke:none" transform="translate(1218.896 31.181)"/>
      <path d="M0 0a3.933 3.933 0 1 0 0 7.866A3.933 3.933 0 0 0 0 0" style="fill:#03173d;fill-opacity:1;fill-rule:nonzero;stroke:none" transform="translate(1151.386 1463.316)"/>
      <path d="M0 0a3.933 3.933 0 1 0 0 7.866A3.933 3.933 0 0 0 0 0" style="fill:#03173d;fill-opacity:1;fill-rule:nonzero;stroke:none" transform="translate(1151.386 1387.94)"/>
      <path d="M0 0a3.933 3.933 0 1 0 0 7.866A3.933 3.933 0 0 0 0 0" style="fill:#03173d;fill-opacity:1;fill-rule:nonzero;stroke:none" transform="translate(1151.386 1312.565)"/>
      <path d="M0 0a3.933 3.933 0 1 0 0 7.866A3.933 3.933 0 0 0 0 0" style="fill:#03173d;fill-opacity:1;fill-rule:nonzero;stroke:none" transform="translate(1151.386 1237.19)"/>
      <path d="M0 0a3.933 3.933 0 1 0 0 7.866A3.933 3.933 0 0 0 0 0" style="fill:#03173d;fill-opacity:1;fill-rule:nonzero;stroke:none" transform="translate(1151.386 1161.814)"/>
      <path d="M0 0a3.933 3.933 0 1 0 0 7.866A3.933 3.933 0 0 0 0 0" style="fill:#03173d;fill-opacity:1;fill-rule:nonzero;stroke:none" transform="translate(1151.386 1086.438)"/>
      <path d="M0 0a3.933 3.933 0 1 0 0 7.866A3.933 3.933 0 0 0 0 0" style="fill:#03173d;fill-opacity:1;fill-rule:nonzero;stroke:none" transform="translate(1151.386 1011.063)"/>
      <path d="M0 0a3.933 3.933 0 1 0 0 7.866A3.933 3.933 0 0 0 0 0" style="fill:#03173d;fill-opacity:1;fill-rule:nonzero;stroke:none" transform="translate(1151.386 935.687)"/>
      <path d="M0 0a3.933 3.933 0 1 0 0 7.866A3.933 3.933 0 0 0 0 0" style="fill:#03173d;fill-opacity:1;fill-rule:nonzero;stroke:none" transform="translate(1151.386 860.312)"/>
      <path d="M0 0a3.933 3.933 0 1 0 0 7.866A3.933 3.933 0 0 0 0 0" style="fill:#03173d;fill-opacity:1;fill-rule:nonzero;stroke:none" transform="translate(1151.386 784.936)"/>
      <path d="M0 0a3.933 3.933 0 1 0 0 7.866A3.933 3.933 0 0 0 0 0" style="fill:#03173d;fill-opacity:1;fill-rule:nonzero;stroke:none" transform="translate(1151.386 709.56)"/>
      <path d="M0 0a3.933 3.933 0 1 0 0 7.866A3.933 3.933 0 0 0 0 0" style="fill:#03173d;fill-opacity:1;fill-rule:nonzero;stroke:none" transform="translate(1151.386 634.185)"/>
      <path d="M0 0a3.933 3.933 0 1 0 0 7.866A3.933 3.933 0 0 0 0 0" style="fill:#03173d;fill-opacity:1;fill-rule:nonzero;stroke:none" transform="translate(1151.386 558.81)"/>
      <path d="M0 0a3.933 3.933 0 1 0 0 7.866A3.933 3.933 0 0 0 0 0" style="fill:#03173d;fill-opacity:1;fill-rule:nonzero;stroke:none" transform="translate(1151.386 483.434)"/>
      <path d="M0 0a3.933 3.933 0 1 0 0 7.866A3.933 3.933 0 0 0 0 0" style="fill:#03173d;fill-opacity:1;fill-rule:nonzero;stroke:none" transform="translate(1151.386 408.059)"/>
      <path d="M0 0a3.933 3.933 0 1 0 0 7.866A3.933 3.933 0 0 0 0 0" style="fill:#03173d;fill-opacity:1;fill-rule:nonzero;stroke:none" transform="translate(1151.386 332.683)"/>
      <path d="M0 0a3.933 3.933 0 1 0 0 7.866A3.933 3.933 0 0 0 0 0" style="fill:#03173d;fill-opacity:1;fill-rule:nonzero;stroke:none" transform="translate(1151.386 257.308)"/>
      <path d="M0 0a3.933 3.933 0 1 0 0 7.866A3.933 3.933 0 0 0 0 0" style="fill:#03173d;fill-opacity:1;fill-rule:nonzero;stroke:none" transform="translate(1151.386 181.932)"/>
      <path d="M0 0a3.933 3.933 0 1 0 0 7.866A3.933 3.933 0 0 0 0 0" style="fill:#03173d;fill-opacity:1;fill-rule:nonzero;stroke:none" transform="translate(1151.386 106.557)"/>
      <path d="M0 0a3.933 3.933 0 1 0 0 7.866A3.933 3.933 0 0 0 0 0" style="fill:#03173d;fill-opacity:1;fill-rule:nonzero;stroke:none" transform="translate(1151.386 31.181)"/>
      <path d="M0 0a3.933 3.933 0 1 0 0 7.866A3.933 3.933 0 0 0 0 0" style="fill:#03173d;fill-opacity:1;fill-rule:nonzero;stroke:none" transform="translate(1083.876 1463.316)"/>
      <path d="M0 0a3.933 3.933 0 1 0 0 7.866A3.933 3.933 0 0 0 0 0" style="fill:#03173d;fill-opacity:1;fill-rule:nonzero;stroke:none" transform="translate(1083.876 1387.94)"/>
      <path d="M0 0a3.933 3.933 0 1 0 0 7.866A3.933 3.933 0 0 0 0 0" style="fill:#03173d;fill-opacity:1;fill-rule:nonzero;stroke:none" transform="translate(1083.876 1312.565)"/>
      <path d="M0 0a3.933 3.933 0 1 0 0 7.866A3.933 3.933 0 0 0 0 0" style="fill:#03173d;fill-opacity:1;fill-rule:nonzero;stroke:none" transform="translate(1083.876 1237.19)"/>
      <path d="M0 0a3.933 3.933 0 1 0 0 7.866A3.933 3.933 0 0 0 0 0" style="fill:#03173d;fill-opacity:1;fill-rule:nonzero;stroke:none" transform="translate(1083.876 1161.814)"/>
      <path d="M0 0a3.933 3.933 0 1 0 0 7.866A3.933 3.933 0 0 0 0 0" style="fill:#03173d;fill-opacity:1;fill-rule:nonzero;stroke:none" transform="translate(1083.876 1086.438)"/>
      <path d="M0 0a3.933 3.933 0 1 0 0 7.866A3.933 3.933 0 0 0 0 0" style="fill:#03173d;fill-opacity:1;fill-rule:nonzero;stroke:none" transform="translate(1083.876 1011.063)"/>
      <path d="M0 0a3.933 3.933 0 1 0 0 7.866A3.933 3.933 0 0 0 0 0" style="fill:#03173d;fill-opacity:1;fill-rule:nonzero;stroke:none" transform="translate(1083.876 935.687)"/>
      <path d="M0 0a3.933 3.933 0 1 0 0 7.866A3.933 3.933 0 0 0 0 0" style="fill:#03173d;fill-opacity:1;fill-rule:nonzero;stroke:none" transform="translate(1083.876 860.312)"/>
      <path d="M0 0a3.933 3.933 0 1 0 0 7.866A3.933 3.933 0 0 0 0 0" style="fill:#03173d;fill-opacity:1;fill-rule:nonzero;stroke:none" transform="translate(1083.876 784.936)"/>
      <path d="M0 0a3.933 3.933 0 1 0 0 7.866A3.933 3.933 0 0 0 0 0" style="fill:#03173d;fill-opacity:1;fill-rule:nonzero;stroke:none" transform="translate(1083.876 709.56)"/>
      <path d="M0 0a3.933 3.933 0 1 0 0 7.866A3.933 3.933 0 0 0 0 0" style="fill:#03173d;fill-opacity:1;fill-rule:nonzero;stroke:none" transform="translate(1083.876 634.185)"/>
      <path d="M0 0a3.933 3.933 0 1 0 0 7.866A3.933 3.933 0 0 0 0 0" style="fill:#03173d;fill-opacity:1;fill-rule:nonzero;stroke:none" transform="translate(1083.876 558.81)"/>
      <path d="M0 0a3.933 3.933 0 1 0 0 7.866A3.933 3.933 0 0 0 0 0" style="fill:#03173d;fill-opacity:1;fill-rule:nonzero;stroke:none" transform="translate(1083.876 483.434)"/>
      <path d="M0 0a3.933 3.933 0 1 0 0 7.866A3.933 3.933 0 0 0 0 0" style="fill:#03173d;fill-opacity:1;fill-rule:nonzero;stroke:none" transform="translate(1083.876 408.059)"/>
      <path d="M0 0a3.933 3.933 0 1 0 0 7.866A3.933 3.933 0 0 0 0 0" style="fill:#03173d;fill-opacity:1;fill-rule:nonzero;stroke:none" transform="translate(1083.876 332.683)"/>
      <path d="M0 0a3.933 3.933 0 1 0 0 7.866A3.933 3.933 0 0 0 0 0" style="fill:#03173d;fill-opacity:1;fill-rule:nonzero;stroke:none" transform="translate(1083.876 257.308)"/>
      <path d="M0 0a3.933 3.933 0 1 0 0 7.866A3.933 3.933 0 0 0 0 0" style="fill:#03173d;fill-opacity:1;fill-rule:nonzero;stroke:none" transform="translate(1083.876 181.932)"/>
      <path d="M0 0a3.933 3.933 0 1 0 0 7.866A3.933 3.933 0 0 0 0 0" style="fill:#03173d;fill-opacity:1;fill-rule:nonzero;stroke:none" transform="translate(1083.876 106.557)"/>
      <path d="M0 0a3.933 3.933 0 1 0 0 7.866A3.933 3.933 0 0 0 0 0" style="fill:#03173d;fill-opacity:1;fill-rule:nonzero;stroke:none" transform="translate(1083.876 31.181)"/>
      <path d="M0 0a3.933 3.933 0 1 0 0 7.866A3.933 3.933 0 0 0 0 0" style="fill:#03173d;fill-opacity:1;fill-rule:nonzero;stroke:none" transform="translate(1016.366 1463.316)"/>
      <path d="M0 0a3.933 3.933 0 1 0 0 7.866A3.933 3.933 0 0 0 0 0" style="fill:#03173d;fill-opacity:1;fill-rule:nonzero;stroke:none" transform="translate(1016.366 1387.94)"/>
      <path d="M0 0a3.933 3.933 0 1 0 0 7.866A3.933 3.933 0 0 0 0 0" style="fill:#03173d;fill-opacity:1;fill-rule:nonzero;stroke:none" transform="translate(1016.366 1312.565)"/>
      <path d="M0 0a3.933 3.933 0 1 0 0 7.866A3.933 3.933 0 0 0 0 0" style="fill:#03173d;fill-opacity:1;fill-rule:nonzero;stroke:none" transform="translate(1016.366 1237.19)"/>
      <path d="M0 0a3.933 3.933 0 1 0 0 7.866A3.933 3.933 0 0 0 0 0" style="fill:#03173d;fill-opacity:1;fill-rule:nonzero;stroke:none" transform="translate(1016.366 1161.814)"/>
      <path d="M0 0a3.933 3.933 0 1 0 0 7.866A3.933 3.933 0 0 0 0 0" style="fill:#03173d;fill-opacity:1;fill-rule:nonzero;stroke:none" transform="translate(1016.366 1086.438)"/>
      <path d="M0 0a3.933 3.933 0 1 0 0 7.866A3.933 3.933 0 0 0 0 0" style="fill:#03173d;fill-opacity:1;fill-rule:nonzero;stroke:none" transform="translate(1016.366 1011.063)"/>
      <path d="M0 0a3.933 3.933 0 1 0 0 7.866A3.933 3.933 0 0 0 0 0" style="fill:#03173d;fill-opacity:1;fill-rule:nonzero;stroke:none" transform="translate(1016.366 935.687)"/>
      <path d="M0 0a3.933 3.933 0 1 0 0 7.866A3.933 3.933 0 0 0 0 0" style="fill:#03173d;fill-opacity:1;fill-rule:nonzero;stroke:none" transform="translate(1016.366 860.312)"/>
      <path d="M0 0a3.933 3.933 0 1 0 0 7.866A3.933 3.933 0 0 0 0 0" style="fill:#03173d;fill-opacity:1;fill-rule:nonzero;stroke:none" transform="translate(1016.366 784.936)"/>
      <path d="M0 0a3.933 3.933 0 1 0 0 7.866A3.933 3.933 0 0 0 0 0" style="fill:#03173d;fill-opacity:1;fill-rule:nonzero;stroke:none" transform="translate(1016.366 709.56)"/>
      <path d="M0 0a3.933 3.933 0 1 0 0 7.866A3.933 3.933 0 0 0 0 0" style="fill:#03173d;fill-opacity:1;fill-rule:nonzero;stroke:none" transform="translate(1016.366 634.185)"/>
      <path d="M0 0a3.933 3.933 0 1 0 0 7.866A3.933 3.933 0 0 0 0 0" style="fill:#03173d;fill-opacity:1;fill-rule:nonzero;stroke:none" transform="translate(1016.366 558.81)"/>
      <path d="M0 0a3.933 3.933 0 1 0 0 7.866A3.933 3.933 0 0 0 0 0" style="fill:#03173d;fill-opacity:1;fill-rule:nonzero;stroke:none" transform="translate(1016.365 483.434)"/>
      <path d="M0 0a3.933 3.933 0 1 0 0 7.866A3.933 3.933 0 0 0 0 0" style="fill:#03173d;fill-opacity:1;fill-rule:nonzero;stroke:none" transform="translate(1016.365 408.059)"/>
      <path d="M0 0a3.933 3.933 0 1 0 0 7.866A3.933 3.933 0 0 0 0 0" style="fill:#03173d;fill-opacity:1;fill-rule:nonzero;stroke:none" transform="translate(1016.365 332.683)"/>
      <path d="M0 0a3.933 3.933 0 1 0 0 7.866A3.933 3.933 0 0 0 0 0" style="fill:#03173d;fill-opacity:1;fill-rule:nonzero;stroke:none" transform="translate(1016.365 257.308)"/>
      <path d="M0 0a3.933 3.933 0 1 0 0 7.866A3.933 3.933 0 0 0 0 0" style="fill:#03173d;fill-opacity:1;fill-rule:nonzero;stroke:none" transform="translate(1016.365 181.932)"/>
      <path d="M0 0a3.933 3.933 0 1 0 0 7.866A3.933 3.933 0 0 0 0 0" style="fill:#03173d;fill-opacity:1;fill-rule:nonzero;stroke:none" transform="translate(1016.365 106.557)"/>
      <path d="M0 0a3.933 3.933 0 1 0 0 7.866A3.933 3.933 0 0 0 0 0" style="fill:#03173d;fill-opacity:1;fill-rule:nonzero;stroke:none" transform="translate(1016.365 31.181)"/>
      <path d="M0 0a3.933 3.933 0 1 0 0 7.866A3.933 3.933 0 0 0 0 0" style="fill:#03173d;fill-opacity:1;fill-rule:nonzero;stroke:none" transform="translate(948.856 1463.316)"/>
      <path d="M0 0a3.933 3.933 0 1 0 0 7.866A3.933 3.933 0 0 0 0 0" style="fill:#03173d;fill-opacity:1;fill-rule:nonzero;stroke:none" transform="translate(948.856 1387.94)"/>
      <path d="M0 0a3.933 3.933 0 1 0 0 7.866A3.933 3.933 0 0 0 0 0" style="fill:#03173d;fill-opacity:1;fill-rule:nonzero;stroke:none" transform="translate(948.856 1312.565)"/>
      <path d="M0 0a3.933 3.933 0 1 0 0 7.866A3.933 3.933 0 0 0 0 0" style="fill:#03173d;fill-opacity:1;fill-rule:nonzero;stroke:none" transform="translate(948.856 1237.19)"/>
      <path d="M0 0a3.933 3.933 0 1 0 0 7.866A3.933 3.933 0 0 0 0 0" style="fill:#03173d;fill-opacity:1;fill-rule:nonzero;stroke:none" transform="translate(948.856 1161.814)"/>
      <path d="M0 0a3.933 3.933 0 1 0 0 7.866A3.933 3.933 0 0 0 0 0" style="fill:#03173d;fill-opacity:1;fill-rule:nonzero;stroke:none" transform="translate(948.856 1086.438)"/>
      <path d="M0 0a3.933 3.933 0 1 0 0 7.866A3.933 3.933 0 0 0 0 0" style="fill:#03173d;fill-opacity:1;fill-rule:nonzero;stroke:none" transform="translate(948.856 1011.063)"/>
      <path d="M0 0a3.933 3.933 0 1 0 0 7.866A3.933 3.933 0 0 0 0 0" style="fill:#03173d;fill-opacity:1;fill-rule:nonzero;stroke:none" transform="translate(948.856 935.687)"/>
      <path d="M0 0a3.933 3.933 0 1 0 0 7.866A3.933 3.933 0 0 0 0 0" style="fill:#03173d;fill-opacity:1;fill-rule:nonzero;stroke:none" transform="translate(948.856 860.312)"/>
      <path d="M0 0a3.933 3.933 0 1 0 0 7.866A3.933 3.933 0 0 0 0 0" style="fill:#03173d;fill-opacity:1;fill-rule:nonzero;stroke:none" transform="translate(948.856 784.936)"/>
      <path d="M0 0a3.933 3.933 0 1 0 0 7.866A3.933 3.933 0 0 0 0 0" style="fill:#03173d;fill-opacity:1;fill-rule:nonzero;stroke:none" transform="translate(948.856 709.561)"/>
      <path d="M0 0a3.933 3.933 0 1 0 0 7.866A3.933 3.933 0 0 0 0 0" style="fill:#03173d;fill-opacity:1;fill-rule:nonzero;stroke:none" transform="translate(948.856 634.185)"/>
      <path d="M0 0a3.933 3.933 0 1 0 0 7.866A3.933 3.933 0 0 0 0 0" style="fill:#03173d;fill-opacity:1;fill-rule:nonzero;stroke:none" transform="translate(948.856 558.81)"/>
      <path d="M0 0a3.933 3.933 0 1 0 0 7.866A3.933 3.933 0 0 0 0 0" style="fill:#03173d;fill-opacity:1;fill-rule:nonzero;stroke:none" transform="translate(948.856 483.434)"/>
      <path d="M0 0a3.933 3.933 0 1 0 0 7.866A3.933 3.933 0 0 0 0 0" style="fill:#03173d;fill-opacity:1;fill-rule:nonzero;stroke:none" transform="translate(948.856 408.059)"/>
      <path d="M0 0a3.933 3.933 0 1 0 0 7.866A3.933 3.933 0 0 0 0 0" style="fill:#03173d;fill-opacity:1;fill-rule:nonzero;stroke:none" transform="translate(948.856 332.683)"/>
      <path d="M0 0a3.933 3.933 0 1 0 0 7.866A3.933 3.933 0 0 0 0 0" style="fill:#03173d;fill-opacity:1;fill-rule:nonzero;stroke:none" transform="translate(948.856 257.308)"/>
      <path d="M0 0a3.933 3.933 0 1 0 0 7.866A3.933 3.933 0 0 0 0 0" style="fill:#03173d;fill-opacity:1;fill-rule:nonzero;stroke:none" transform="translate(948.856 181.932)"/>
      <path d="M0 0a3.933 3.933 0 1 0 0 7.866A3.933 3.933 0 0 0 0 0" style="fill:#03173d;fill-opacity:1;fill-rule:nonzero;stroke:none" transform="translate(948.855 106.557)"/>
      <path d="M0 0a3.933 3.933 0 1 0 0 7.866A3.933 3.933 0 0 0 0 0" style="fill:#03173d;fill-opacity:1;fill-rule:nonzero;stroke:none" transform="translate(948.855 31.181)"/>
      <path d="M0 0a3.933 3.933 0 1 0 0 7.866A3.933 3.933 0 0 0 0 0" style="fill:#03173d;fill-opacity:1;fill-rule:nonzero;stroke:none" transform="translate(879.488 1463.315)"/>
      <path d="M0 0a3.933 3.933 0 1 0 0 7.866A3.933 3.933 0 0 0 0 0" style="fill:#03173d;fill-opacity:1;fill-rule:nonzero;stroke:none" transform="translate(879.488 1387.94)"/>
      <path d="M0 0a3.933 3.933 0 1 0 0 7.866A3.933 3.933 0 0 0 0 0" style="fill:#03173d;fill-opacity:1;fill-rule:nonzero;stroke:none" transform="translate(879.488 1312.565)"/>
      <path d="M0 0a3.933 3.933 0 1 0 0 7.866A3.933 3.933 0 0 0 0 0" style="fill:#03173d;fill-opacity:1;fill-rule:nonzero;stroke:none" transform="translate(879.488 1237.189)"/>
      <path d="M0 0a3.933 3.933 0 1 0 0 7.866A3.933 3.933 0 0 0 0 0" style="fill:#03173d;fill-opacity:1;fill-rule:nonzero;stroke:none" transform="translate(879.488 1161.814)"/>
      <path d="M0 0a3.933 3.933 0 1 0 0 7.866A3.933 3.933 0 0 0 0 0" style="fill:#03173d;fill-opacity:1;fill-rule:nonzero;stroke:none" transform="translate(879.488 1086.438)"/>
      <path d="M0 0a3.933 3.933 0 1 0 0 7.866A3.933 3.933 0 0 0 0 0" style="fill:#03173d;fill-opacity:1;fill-rule:nonzero;stroke:none" transform="translate(879.488 1011.063)"/>
      <path d="M0 0a3.933 3.933 0 1 0 0 7.866A3.933 3.933 0 0 0 0 0" style="fill:#03173d;fill-opacity:1;fill-rule:nonzero;stroke:none" transform="translate(879.488 935.687)"/>
      <path d="M0 0a3.933 3.933 0 1 0 0 7.866A3.933 3.933 0 0 0 0 0" style="fill:#03173d;fill-opacity:1;fill-rule:nonzero;stroke:none" transform="translate(879.488 860.311)"/>
      <path d="M0 0a3.933 3.933 0 1 0 0 7.866A3.933 3.933 0 0 0 0 0" style="fill:#03173d;fill-opacity:1;fill-rule:nonzero;stroke:none" transform="translate(879.488 784.936)"/>
      <path d="M0 0a3.933 3.933 0 1 0 0 7.866A3.933 3.933 0 0 0 0 0" style="fill:#03173d;fill-opacity:1;fill-rule:nonzero;stroke:none" transform="translate(879.488 709.56)"/>
      <path d="M0 0a3.933 3.933 0 1 0 0 7.866A3.933 3.933 0 0 0 0 0" style="fill:#03173d;fill-opacity:1;fill-rule:nonzero;stroke:none" transform="translate(879.488 634.185)"/>
      <path d="M0 0a3.933 3.933 0 1 0 0 7.866A3.933 3.933 0 0 0 0 0" style="fill:#03173d;fill-opacity:1;fill-rule:nonzero;stroke:none" transform="translate(879.488 558.81)"/>
      <path d="M0 0a3.933 3.933 0 1 0 0 7.866A3.933 3.933 0 0 0 0 0" style="fill:#03173d;fill-opacity:1;fill-rule:nonzero;stroke:none" transform="translate(879.488 483.434)"/>
      <path d="M0 0a3.933 3.933 0 1 0 0 7.866A3.933 3.933 0 0 0 0 0" style="fill:#03173d;fill-opacity:1;fill-rule:nonzero;stroke:none" transform="translate(879.488 408.059)"/>
      <path d="M0 0a3.933 3.933 0 1 0 0 7.866A3.933 3.933 0 0 0 0 0" style="fill:#03173d;fill-opacity:1;fill-rule:nonzero;stroke:none" transform="translate(879.488 332.683)"/>
      <path d="M0 0a3.933 3.933 0 1 0 0 7.866A3.933 3.933 0 0 0 0 0" style="fill:#03173d;fill-opacity:1;fill-rule:nonzero;stroke:none" transform="translate(879.488 257.308)"/>
      <path d="M0 0a3.933 3.933 0 1 0 0 7.866A3.933 3.933 0 0 0 0 0" style="fill:#03173d;fill-opacity:1;fill-rule:nonzero;stroke:none" transform="translate(879.488 181.932)"/>
      <path d="M0 0a3.933 3.933 0 1 0 0 7.866A3.933 3.933 0 0 0 0 0" style="fill:#03173d;fill-opacity:1;fill-rule:nonzero;stroke:none" transform="translate(879.487 106.557)"/>
      <path d="M0 0a3.933 3.933 0 1 0 0 7.866A3.933 3.933 0 0 0 0 0" style="fill:#03173d;fill-opacity:1;fill-rule:nonzero;stroke:none" transform="translate(879.487 31.181)"/>
      <path d="M0 0a3.933 3.933 0 1 0 0 7.866A3.933 3.933 0 0 0 0 0" style="fill:#03173d;fill-opacity:1;fill-rule:nonzero;stroke:none" transform="translate(811.978 1463.315)"/>
      <path d="M0 0a3.933 3.933 0 1 0 0 7.866A3.933 3.933 0 0 0 0 0" style="fill:#03173d;fill-opacity:1;fill-rule:nonzero;stroke:none" transform="translate(811.978 1387.94)"/>
      <path d="M0 0a3.933 3.933 0 1 0 0 7.866A3.933 3.933 0 0 0 0 0" style="fill:#03173d;fill-opacity:1;fill-rule:nonzero;stroke:none" transform="translate(811.978 1312.565)"/>
      <path d="M0 0a3.933 3.933 0 1 0 0 7.866A3.933 3.933 0 0 0 0 0" style="fill:#03173d;fill-opacity:1;fill-rule:nonzero;stroke:none" transform="translate(811.978 1237.189)"/>
      <path d="M0 0a3.933 3.933 0 1 0 0 7.866A3.933 3.933 0 0 0 0 0" style="fill:#03173d;fill-opacity:1;fill-rule:nonzero;stroke:none" transform="translate(811.978 1161.814)"/>
      <path d="M0 0a3.933 3.933 0 1 0 0 7.866A3.933 3.933 0 0 0 0 0" style="fill:#03173d;fill-opacity:1;fill-rule:nonzero;stroke:none" transform="translate(811.978 1086.438)"/>
      <path d="M0 0a3.933 3.933 0 1 0 0 7.866A3.933 3.933 0 0 0 0 0" style="fill:#03173d;fill-opacity:1;fill-rule:nonzero;stroke:none" transform="translate(811.978 1011.063)"/>
      <path d="M0 0a3.933 3.933 0 1 0 0 7.866A3.933 3.933 0 0 0 0 0" style="fill:#03173d;fill-opacity:1;fill-rule:nonzero;stroke:none" transform="translate(811.978 935.687)"/>
      <path d="M0 0a3.933 3.933 0 1 0 0 7.866A3.933 3.933 0 0 0 0 0" style="fill:#03173d;fill-opacity:1;fill-rule:nonzero;stroke:none" transform="translate(811.978 860.312)"/>
      <path d="M0 0a3.933 3.933 0 1 0 0 7.866A3.933 3.933 0 0 0 0 0" style="fill:#03173d;fill-opacity:1;fill-rule:nonzero;stroke:none" transform="translate(811.978 784.936)"/>
      <path d="M0 0a3.933 3.933 0 1 0 0 7.866A3.933 3.933 0 0 0 0 0" style="fill:#03173d;fill-opacity:1;fill-rule:nonzero;stroke:none" transform="translate(811.977 709.56)"/>
      <path d="M0 0a3.933 3.933 0 1 0 0 7.866A3.933 3.933 0 0 0 0 0" style="fill:#03173d;fill-opacity:1;fill-rule:nonzero;stroke:none" transform="translate(811.977 634.185)"/>
      <path d="M0 0a3.933 3.933 0 1 0 0 7.866A3.933 3.933 0 0 0 0 0" style="fill:#03173d;fill-opacity:1;fill-rule:nonzero;stroke:none" transform="translate(811.977 558.81)"/>
      <path d="M0 0a3.933 3.933 0 1 0 0 7.866A3.933 3.933 0 0 0 0 0" style="fill:#03173d;fill-opacity:1;fill-rule:nonzero;stroke:none" transform="translate(811.977 483.434)"/>
      <path d="M0 0a3.933 3.933 0 1 0 0 7.866A3.933 3.933 0 0 0 0 0" style="fill:#03173d;fill-opacity:1;fill-rule:nonzero;stroke:none" transform="translate(811.977 408.059)"/>
      <path d="M0 0a3.933 3.933 0 1 0 0 7.866A3.933 3.933 0 0 0 0 0" style="fill:#03173d;fill-opacity:1;fill-rule:nonzero;stroke:none" transform="translate(811.977 332.683)"/>
      <path d="M0 0a3.933 3.933 0 1 0 0 7.866A3.933 3.933 0 0 0 0 0" style="fill:#03173d;fill-opacity:1;fill-rule:nonzero;stroke:none" transform="translate(811.977 257.308)"/>
      <path d="M0 0a3.933 3.933 0 1 0 0 7.866A3.933 3.933 0 0 0 0 0" style="fill:#03173d;fill-opacity:1;fill-rule:nonzero;stroke:none" transform="translate(811.977 181.932)"/>
      <path d="M0 0a3.933 3.933 0 1 0 0 7.866A3.933 3.933 0 0 0 0 0" style="fill:#03173d;fill-opacity:1;fill-rule:nonzero;stroke:none" transform="translate(811.977 106.557)"/>
      <path d="M0 0a3.933 3.933 0 1 0 0 7.866A3.933 3.933 0 0 0 0 0" style="fill:#03173d;fill-opacity:1;fill-rule:nonzero;stroke:none" transform="translate(811.977 31.181)"/>
      <path d="M0 0a3.933 3.933 0 1 0 0 7.866A3.933 3.933 0 0 0 0 0" style="fill:#03173d;fill-opacity:1;fill-rule:nonzero;stroke:none" transform="translate(744.468 1463.315)"/>
      <path d="M0 0a3.933 3.933 0 1 0 0 7.866A3.933 3.933 0 0 0 0 0" style="fill:#03173d;fill-opacity:1;fill-rule:nonzero;stroke:none" transform="translate(744.468 1387.94)"/>
      <path d="M0 0a3.933 3.933 0 1 0 0 7.866A3.933 3.933 0 0 0 0 0" style="fill:#03173d;fill-opacity:1;fill-rule:nonzero;stroke:none" transform="translate(744.468 1312.565)"/>
      <path d="M0 0a3.933 3.933 0 1 0 0 7.866A3.933 3.933 0 0 0 0 0" style="fill:#03173d;fill-opacity:1;fill-rule:nonzero;stroke:none" transform="translate(744.468 1237.189)"/>
      <path d="M0 0a3.933 3.933 0 1 0 0 7.866A3.933 3.933 0 0 0 0 0" style="fill:#03173d;fill-opacity:1;fill-rule:nonzero;stroke:none" transform="translate(744.468 1161.814)"/>
      <path d="M0 0a3.933 3.933 0 1 0 0 7.866A3.933 3.933 0 0 0 0 0" style="fill:#03173d;fill-opacity:1;fill-rule:nonzero;stroke:none" transform="translate(744.468 1086.438)"/>
      <path d="M0 0a3.933 3.933 0 1 0 0 7.866A3.933 3.933 0 0 0 0 0" style="fill:#03173d;fill-opacity:1;fill-rule:nonzero;stroke:none" transform="translate(744.468 1011.063)"/>
      <path d="M0 0a3.933 3.933 0 1 0 0 7.866A3.933 3.933 0 0 0 0 0" style="fill:#03173d;fill-opacity:1;fill-rule:nonzero;stroke:none" transform="translate(744.468 935.687)"/>
      <path d="M0 0a3.933 3.933 0 1 0 0 7.866A3.933 3.933 0 0 0 0 0" style="fill:#03173d;fill-opacity:1;fill-rule:nonzero;stroke:none" transform="translate(744.468 860.312)"/>
      <path d="M0 0a3.933 3.933 0 1 0 0 7.866A3.933 3.933 0 0 0 0 0" style="fill:#03173d;fill-opacity:1;fill-rule:nonzero;stroke:none" transform="translate(744.468 784.936)"/>
      <path d="M0 0a3.933 3.933 0 1 0 0 7.866A3.933 3.933 0 0 0 0 0" style="fill:#03173d;fill-opacity:1;fill-rule:nonzero;stroke:none" transform="translate(744.468 709.56)"/>
      <path d="M0 0a3.933 3.933 0 1 0 0 7.866A3.933 3.933 0 0 0 0 0" style="fill:#03173d;fill-opacity:1;fill-rule:nonzero;stroke:none" transform="translate(744.468 634.185)"/>
      <path d="M0 0a3.933 3.933 0 1 0 0 7.866A3.933 3.933 0 0 0 0 0" style="fill:#03173d;fill-opacity:1;fill-rule:nonzero;stroke:none" transform="translate(744.467 558.81)"/>
      <path d="M0 0a3.933 3.933 0 1 0 0 7.866A3.933 3.933 0 0 0 0 0" style="fill:#03173d;fill-opacity:1;fill-rule:nonzero;stroke:none" transform="translate(744.467 483.434)"/>
      <path d="M0 0a3.933 3.933 0 1 0 0 7.866A3.933 3.933 0 0 0 0 0" style="fill:#03173d;fill-opacity:1;fill-rule:nonzero;stroke:none" transform="translate(744.467 408.059)"/>
      <path d="M0 0a3.933 3.933 0 1 0 0 7.866A3.933 3.933 0 0 0 0 0" style="fill:#03173d;fill-opacity:1;fill-rule:nonzero;stroke:none" transform="translate(744.467 332.683)"/>
      <path d="M0 0a3.933 3.933 0 1 0 0 7.866A3.933 3.933 0 0 0 0 0" style="fill:#03173d;fill-opacity:1;fill-rule:nonzero;stroke:none" transform="translate(744.467 257.308)"/>
      <path d="M0 0a3.933 3.933 0 1 0 0 7.866A3.933 3.933 0 0 0 0 0" style="fill:#03173d;fill-opacity:1;fill-rule:nonzero;stroke:none" transform="translate(744.467 181.932)"/>
      <path d="M0 0a3.933 3.933 0 1 0 0 7.866A3.933 3.933 0 0 0 0 0" style="fill:#03173d;fill-opacity:1;fill-rule:nonzero;stroke:none" transform="translate(744.467 106.557)"/>
      <path d="M0 0a3.933 3.933 0 1 0 0 7.866A3.933 3.933 0 0 0 0 0" style="fill:#03173d;fill-opacity:1;fill-rule:nonzero;stroke:none" transform="translate(744.467 31.181)"/>
      <path d="M0 0a3.933 3.933 0 1 0 0 7.866A3.933 3.933 0 0 0 0 0" style="fill:#03173d;fill-opacity:1;fill-rule:nonzero;stroke:none" transform="translate(676.958 1463.315)"/>
      <path d="M0 0a3.933 3.933 0 1 0 0 7.866A3.933 3.933 0 0 0 0 0" style="fill:#03173d;fill-opacity:1;fill-rule:nonzero;stroke:none" transform="translate(676.958 1387.94)"/>
      <path d="M0 0a3.933 3.933 0 1 0 0 7.866A3.933 3.933 0 0 0 0 0" style="fill:#03173d;fill-opacity:1;fill-rule:nonzero;stroke:none" transform="translate(676.958 1312.565)"/>
      <path d="M0 0a3.933 3.933 0 1 0 0 7.866A3.933 3.933 0 0 0 0 0" style="fill:#03173d;fill-opacity:1;fill-rule:nonzero;stroke:none" transform="translate(676.958 1237.19)"/>
      <path d="M0 0a3.933 3.933 0 1 0 0 7.866A3.933 3.933 0 0 0 0 0" style="fill:#03173d;fill-opacity:1;fill-rule:nonzero;stroke:none" transform="translate(676.957 1161.814)"/>
      <path d="M0 0a3.933 3.933 0 1 0 0 7.866A3.933 3.933 0 0 0 0 0" style="fill:#03173d;fill-opacity:1;fill-rule:nonzero;stroke:none" transform="translate(676.957 1086.438)"/>
      <path d="M0 0a3.933 3.933 0 1 0 0 7.866A3.933 3.933 0 0 0 0 0" style="fill:#03173d;fill-opacity:1;fill-rule:nonzero;stroke:none" transform="translate(676.957 1011.063)"/>
      <path d="M0 0a3.933 3.933 0 1 0 0 7.866A3.933 3.933 0 0 0 0 0" style="fill:#03173d;fill-opacity:1;fill-rule:nonzero;stroke:none" transform="translate(676.957 935.687)"/>
      <path d="M0 0a3.933 3.933 0 1 0 0 7.866A3.933 3.933 0 0 0 0 0" style="fill:#03173d;fill-opacity:1;fill-rule:nonzero;stroke:none" transform="translate(676.957 860.312)"/>
      <path d="M0 0a3.933 3.933 0 1 0 0 7.866A3.933 3.933 0 0 0 0 0" style="fill:#03173d;fill-opacity:1;fill-rule:nonzero;stroke:none" transform="translate(676.957 784.936)"/>
      <path d="M0 0a3.933 3.933 0 1 0 0 7.866A3.933 3.933 0 0 0 0 0" style="fill:#03173d;fill-opacity:1;fill-rule:nonzero;stroke:none" transform="translate(676.957 709.56)"/>
      <path d="M0 0a3.933 3.933 0 1 0 0 7.866A3.933 3.933 0 0 0 0 0" style="fill:#03173d;fill-opacity:1;fill-rule:nonzero;stroke:none" transform="translate(676.957 634.185)"/>
      <path d="M0 0a3.933 3.933 0 1 0 0 7.866A3.933 3.933 0 0 0 0 0" style="fill:#03173d;fill-opacity:1;fill-rule:nonzero;stroke:none" transform="translate(676.957 558.81)"/>
      <path d="M0 0a3.933 3.933 0 1 0 0 7.866A3.933 3.933 0 0 0 0 0" style="fill:#03173d;fill-opacity:1;fill-rule:nonzero;stroke:none" transform="translate(676.957 483.434)"/>
      <path d="M0 0a3.933 3.933 0 1 0 0 7.866A3.933 3.933 0 0 0 0 0" style="fill:#03173d;fill-opacity:1;fill-rule:nonzero;stroke:none" transform="translate(676.957 408.059)"/>
      <path d="M0 0a3.933 3.933 0 1 0 0 7.866A3.933 3.933 0 0 0 0 0" style="fill:#03173d;fill-opacity:1;fill-rule:nonzero;stroke:none" transform="translate(676.957 332.683)"/>
      <path d="M0 0a3.933 3.933 0 1 0 0 7.866A3.933 3.933 0 0 0 0 0" style="fill:#03173d;fill-opacity:1;fill-rule:nonzero;stroke:none" transform="translate(676.957 257.308)"/>
      <path d="M0 0a3.933 3.933 0 1 0 0 7.866A3.933 3.933 0 0 0 0 0" style="fill:#03173d;fill-opacity:1;fill-rule:nonzero;stroke:none" transform="translate(676.957 181.932)"/>
      <path d="M0 0a3.933 3.933 0 1 0 0 7.866A3.933 3.933 0 0 0 0 0" style="fill:#03173d;fill-opacity:1;fill-rule:nonzero;stroke:none" transform="translate(676.957 106.557)"/>
      <path d="M0 0a3.933 3.933 0 1 0 0 7.866A3.933 3.933 0 0 0 0 0" style="fill:#03173d;fill-opacity:1;fill-rule:nonzero;stroke:none" transform="translate(676.957 31.181)"/>
      <path d="M0 0a3.933 3.933 0 1 0 0 7.866A3.933 3.933 0 0 0 0 0" style="fill:#03173d;fill-opacity:1;fill-rule:nonzero;stroke:none" transform="translate(609.448 1463.316)"/>
      <path d="M0 0a3.933 3.933 0 1 0 0 7.866A3.933 3.933 0 0 0 0 0" style="fill:#03173d;fill-opacity:1;fill-rule:nonzero;stroke:none" transform="translate(609.448 1387.94)"/>
      <path d="M0 0a3.933 3.933 0 1 0 0 7.866A3.933 3.933 0 0 0 0 0" style="fill:#03173d;fill-opacity:1;fill-rule:nonzero;stroke:none" transform="translate(609.448 1312.565)"/>
      <path d="M0 0a3.933 3.933 0 1 0 0 7.866A3.933 3.933 0 0 0 0 0" style="fill:#03173d;fill-opacity:1;fill-rule:nonzero;stroke:none" transform="translate(609.447 1237.19)"/>
      <path d="M0 0a3.933 3.933 0 1 0 0 7.866A3.933 3.933 0 0 0 0 0" style="fill:#03173d;fill-opacity:1;fill-rule:nonzero;stroke:none" transform="translate(609.447 1161.814)"/>
      <path d="M0 0a3.933 3.933 0 1 0 0 7.866A3.933 3.933 0 0 0 0 0" style="fill:#03173d;fill-opacity:1;fill-rule:nonzero;stroke:none" transform="translate(609.447 1086.438)"/>
      <path d="M0 0a3.933 3.933 0 1 0 0 7.866A3.933 3.933 0 0 0 0 0" style="fill:#03173d;fill-opacity:1;fill-rule:nonzero;stroke:none" transform="translate(609.447 1011.063)"/>
      <path d="M0 0a3.933 3.933 0 1 0 0 7.866A3.933 3.933 0 0 0 0 0" style="fill:#03173d;fill-opacity:1;fill-rule:nonzero;stroke:none" transform="translate(609.447 935.687)"/>
      <path d="M0 0a3.933 3.933 0 1 0 0 7.866A3.933 3.933 0 0 0 0 0" style="fill:#03173d;fill-opacity:1;fill-rule:nonzero;stroke:none" transform="translate(609.447 860.312)"/>
      <path d="M0 0a3.933 3.933 0 1 0 0 7.866A3.933 3.933 0 0 0 0 0" style="fill:#03173d;fill-opacity:1;fill-rule:nonzero;stroke:none" transform="translate(609.447 784.936)"/>
      <path d="M0 0a3.933 3.933 0 1 0 0 7.866A3.933 3.933 0 0 0 0 0" style="fill:#03173d;fill-opacity:1;fill-rule:nonzero;stroke:none" transform="translate(609.447 709.56)"/>
      <path d="M0 0a3.933 3.933 0 1 0 0 7.866A3.933 3.933 0 0 0 0 0" style="fill:#03173d;fill-opacity:1;fill-rule:nonzero;stroke:none" transform="translate(609.447 634.185)"/>
      <path d="M0 0a3.933 3.933 0 1 0 0 7.866A3.933 3.933 0 0 0 0 0" style="fill:#03173d;fill-opacity:1;fill-rule:nonzero;stroke:none" transform="translate(609.447 558.81)"/>
      <path d="M0 0a3.933 3.933 0 1 0 0 7.866A3.933 3.933 0 0 0 0 0" style="fill:#03173d;fill-opacity:1;fill-rule:nonzero;stroke:none" transform="translate(609.447 483.434)"/>
      <path d="M0 0a3.933 3.933 0 1 0 0 7.866A3.933 3.933 0 0 0 0 0" style="fill:#03173d;fill-opacity:1;fill-rule:nonzero;stroke:none" transform="translate(609.447 408.059)"/>
      <path d="M0 0a3.933 3.933 0 1 0 0 7.866A3.933 3.933 0 0 0 0 0" style="fill:#03173d;fill-opacity:1;fill-rule:nonzero;stroke:none" transform="translate(609.447 332.683)"/>
      <path d="M0 0a3.933 3.933 0 1 0 0 7.866A3.933 3.933 0 0 0 0 0" style="fill:#03173d;fill-opacity:1;fill-rule:nonzero;stroke:none" transform="translate(609.447 257.308)"/>
      <path d="M0 0a3.933 3.933 0 1 0 0 7.866A3.933 3.933 0 0 0 0 0" style="fill:#03173d;fill-opacity:1;fill-rule:nonzero;stroke:none" transform="translate(609.447 181.932)"/>
      <path d="M0 0a3.933 3.933 0 1 0 0 7.866A3.933 3.933 0 0 0 0 0" style="fill:#03173d;fill-opacity:1;fill-rule:nonzero;stroke:none" transform="translate(609.447 106.557)"/>
      <path d="M0 0a3.933 3.933 0 1 0 0 7.866A3.933 3.933 0 0 0 0 0" style="fill:#03173d;fill-opacity:1;fill-rule:nonzero;stroke:none" transform="translate(609.447 31.181)"/>
      <path d="M0 0a3.933 3.933 0 1 0 0 7.866A3.933 3.933 0 0 0 0 0" style="fill:#03173d;fill-opacity:1;fill-rule:nonzero;stroke:none" transform="translate(541.937 1463.316)"/>
      <path d="M0 0a3.933 3.933 0 1 0 0 7.866A3.933 3.933 0 0 0 0 0" style="fill:#03173d;fill-opacity:1;fill-rule:nonzero;stroke:none" transform="translate(541.937 1387.94)"/>
      <path d="M0 0a3.933 3.933 0 1 0 0 7.866A3.933 3.933 0 0 0 0 0" style="fill:#03173d;fill-opacity:1;fill-rule:nonzero;stroke:none" transform="translate(541.937 1312.565)"/>
      <path d="M0 0a3.933 3.933 0 1 0 0 7.866A3.933 3.933 0 0 0 0 0" style="fill:#03173d;fill-opacity:1;fill-rule:nonzero;stroke:none" transform="translate(541.937 1237.19)"/>
      <path d="M0 0a3.933 3.933 0 1 0 0 7.866A3.933 3.933 0 0 0 0 0" style="fill:#03173d;fill-opacity:1;fill-rule:nonzero;stroke:none" transform="translate(541.937 1161.814)"/>
      <path d="M0 0a3.933 3.933 0 1 0 0 7.866A3.933 3.933 0 0 0 0 0" style="fill:#03173d;fill-opacity:1;fill-rule:nonzero;stroke:none" transform="translate(541.937 1086.438)"/>
      <path d="M0 0a3.933 3.933 0 1 0 0 7.866A3.933 3.933 0 0 0 0 0" style="fill:#03173d;fill-opacity:1;fill-rule:nonzero;stroke:none" transform="translate(541.937 1011.063)"/>
      <path d="M0 0a3.933 3.933 0 1 0 0 7.866A3.933 3.933 0 0 0 0 0" style="fill:#03173d;fill-opacity:1;fill-rule:nonzero;stroke:none" transform="translate(541.937 935.687)"/>
      <path d="M0 0a3.933 3.933 0 1 0 0 7.866A3.933 3.933 0 0 0 0 0" style="fill:#03173d;fill-opacity:1;fill-rule:nonzero;stroke:none" transform="translate(541.937 860.312)"/>
      <path d="M0 0a3.933 3.933 0 1 0 0 7.866A3.933 3.933 0 0 0 0 0" style="fill:#03173d;fill-opacity:1;fill-rule:nonzero;stroke:none" transform="translate(541.937 784.936)"/>
      <path d="M0 0a3.933 3.933 0 1 0 0 7.866A3.933 3.933 0 0 0 0 0" style="fill:#03173d;fill-opacity:1;fill-rule:nonzero;stroke:none" transform="translate(541.937 709.56)"/>
      <path d="M0 0a3.933 3.933 0 1 0 0 7.866A3.933 3.933 0 0 0 0 0" style="fill:#03173d;fill-opacity:1;fill-rule:nonzero;stroke:none" transform="translate(541.937 634.185)"/>
      <path d="M0 0a3.933 3.933 0 1 0 0 7.866A3.933 3.933 0 0 0 0 0" style="fill:#03173d;fill-opacity:1;fill-rule:nonzero;stroke:none" transform="translate(541.937 558.81)"/>
      <path d="M0 0a3.933 3.933 0 1 0 0 7.866A3.933 3.933 0 0 0 0 0" style="fill:#03173d;fill-opacity:1;fill-rule:nonzero;stroke:none" transform="translate(541.937 483.434)"/>
      <path d="M0 0a3.933 3.933 0 1 0 0 7.866A3.933 3.933 0 0 0 0 0" style="fill:#03173d;fill-opacity:1;fill-rule:nonzero;stroke:none" transform="translate(541.937 408.059)"/>
      <path d="M0 0a3.933 3.933 0 1 0 0 7.866A3.933 3.933 0 0 0 0 0" style="fill:#03173d;fill-opacity:1;fill-rule:nonzero;stroke:none" transform="translate(541.937 332.683)"/>
      <path d="M0 0a3.933 3.933 0 1 0 0 7.866A3.933 3.933 0 0 0 0 0" style="fill:#03173d;fill-opacity:1;fill-rule:nonzero;stroke:none" transform="translate(541.937 257.308)"/>
      <path d="M0 0a3.933 3.933 0 1 0 0 7.866A3.933 3.933 0 0 0 0 0" style="fill:#03173d;fill-opacity:1;fill-rule:nonzero;stroke:none" transform="translate(541.937 181.932)"/>
      <path d="M0 0a3.933 3.933 0 1 0 0 7.866A3.933 3.933 0 0 0 0 0" style="fill:#03173d;fill-opacity:1;fill-rule:nonzero;stroke:none" transform="translate(541.937 106.557)"/>
      <path d="M0 0a3.933 3.933 0 1 0 0 7.866A3.933 3.933 0 0 0 0 0" style="fill:#03173d;fill-opacity:1;fill-rule:nonzero;stroke:none" transform="translate(541.937 31.181)"/>
      <path d="M0 0a3.933 3.933 0 1 0 0 7.866A3.933 3.933 0 0 0 0 0" style="fill:#03173d;fill-opacity:1;fill-rule:nonzero;stroke:none" transform="translate(474.428 1463.316)"/>
      <path d="M0 0a3.933 3.933 0 1 0 0 7.866A3.933 3.933 0 0 0 0 0" style="fill:#03173d;fill-opacity:1;fill-rule:nonzero;stroke:none" transform="translate(474.428 1387.94)"/>
      <path d="M0 0a3.933 3.933 0 1 0 0 7.866A3.933 3.933 0 0 0 0 0" style="fill:#03173d;fill-opacity:1;fill-rule:nonzero;stroke:none" transform="translate(474.427 1312.565)"/>
      <path d="M0 0a3.933 3.933 0 1 0 0 7.866A3.933 3.933 0 0 0 0 0" style="fill:#03173d;fill-opacity:1;fill-rule:nonzero;stroke:none" transform="translate(474.427 1237.19)"/>
      <path d="M0 0a3.933 3.933 0 1 0 0 7.866A3.933 3.933 0 0 0 0 0" style="fill:#03173d;fill-opacity:1;fill-rule:nonzero;stroke:none" transform="translate(474.427 1161.814)"/>
      <path d="M0 0a3.933 3.933 0 1 0 0 7.866A3.933 3.933 0 0 0 0 0" style="fill:#03173d;fill-opacity:1;fill-rule:nonzero;stroke:none" transform="translate(474.427 1086.438)"/>
      <path d="M0 0a3.933 3.933 0 1 0 0 7.866A3.933 3.933 0 0 0 0 0" style="fill:#03173d;fill-opacity:1;fill-rule:nonzero;stroke:none" transform="translate(474.427 1011.063)"/>
      <path d="M0 0a3.933 3.933 0 1 0 0 7.866A3.933 3.933 0 0 0 0 0" style="fill:#03173d;fill-opacity:1;fill-rule:nonzero;stroke:none" transform="translate(474.427 935.687)"/>
      <path d="M0 0a3.933 3.933 0 1 0 0 7.866A3.933 3.933 0 0 0 0 0" style="fill:#03173d;fill-opacity:1;fill-rule:nonzero;stroke:none" transform="translate(474.427 860.312)"/>
      <path d="M0 0a3.933 3.933 0 1 0 0 7.866A3.933 3.933 0 0 0 0 0" style="fill:#03173d;fill-opacity:1;fill-rule:nonzero;stroke:none" transform="translate(474.427 784.936)"/>
      <path d="M0 0a3.933 3.933 0 1 0 0 7.866A3.933 3.933 0 0 0 0 0" style="fill:#03173d;fill-opacity:1;fill-rule:nonzero;stroke:none" transform="translate(474.427 709.56)"/>
      <path d="M0 0a3.933 3.933 0 1 0 0 7.866A3.933 3.933 0 0 0 0 0" style="fill:#03173d;fill-opacity:1;fill-rule:nonzero;stroke:none" transform="translate(474.427 634.185)"/>
      <path d="M0 0a3.933 3.933 0 1 0 0 7.866A3.933 3.933 0 0 0 0 0" style="fill:#03173d;fill-opacity:1;fill-rule:nonzero;stroke:none" transform="translate(474.427 558.81)"/>
      <path d="M0 0a3.933 3.933 0 1 0 0 7.866A3.933 3.933 0 0 0 0 0" style="fill:#03173d;fill-opacity:1;fill-rule:nonzero;stroke:none" transform="translate(474.427 483.434)"/>
      <path d="M0 0a3.933 3.933 0 1 0 0 7.866A3.933 3.933 0 0 0 0 0" style="fill:#03173d;fill-opacity:1;fill-rule:nonzero;stroke:none" transform="translate(474.427 408.059)"/>
      <path d="M0 0a3.933 3.933 0 1 0 0 7.866A3.933 3.933 0 0 0 0 0" style="fill:#03173d;fill-opacity:1;fill-rule:nonzero;stroke:none" transform="translate(474.427 332.683)"/>
      <path d="M0 0a3.933 3.933 0 1 0 0 7.866A3.933 3.933 0 0 0 0 0" style="fill:#03173d;fill-opacity:1;fill-rule:nonzero;stroke:none" transform="translate(474.427 257.308)"/>
      <path d="M0 0a3.933 3.933 0 1 0 0 7.866A3.933 3.933 0 0 0 0 0" style="fill:#03173d;fill-opacity:1;fill-rule:nonzero;stroke:none" transform="translate(474.427 181.932)"/>
      <path d="M0 0a3.933 3.933 0 1 0 0 7.866A3.933 3.933 0 0 0 0 0" style="fill:#03173d;fill-opacity:1;fill-rule:nonzero;stroke:none" transform="translate(474.427 106.557)"/>
      <path d="M0 0a3.933 3.933 0 1 0 0 7.866A3.933 3.933 0 0 0 0 0" style="fill:#03173d;fill-opacity:1;fill-rule:nonzero;stroke:none" transform="translate(474.427 31.181)"/>
      <path d="M0 0a3.933 3.933 0 1 0 0 7.866A3.933 3.933 0 0 0 0 0" style="fill:#03173d;fill-opacity:1;fill-rule:nonzero;stroke:none" transform="translate(406.917 1463.316)"/>
      <path d="M0 0a3.933 3.933 0 1 0 0 7.866A3.933 3.933 0 0 0 0 0" style="fill:#03173d;fill-opacity:1;fill-rule:nonzero;stroke:none" transform="translate(406.917 1387.94)"/>
      <path d="M0 0a3.933 3.933 0 1 0 0 7.866A3.933 3.933 0 0 0 0 0" style="fill:#03173d;fill-opacity:1;fill-rule:nonzero;stroke:none" transform="translate(406.917 1312.565)"/>
      <path d="M0 0a3.933 3.933 0 1 0 0 7.866A3.933 3.933 0 0 0 0 0" style="fill:#03173d;fill-opacity:1;fill-rule:nonzero;stroke:none" transform="translate(406.917 1237.19)"/>
      <path d="M0 0a3.933 3.933 0 1 0 0 7.866A3.933 3.933 0 0 0 0 0" style="fill:#03173d;fill-opacity:1;fill-rule:nonzero;stroke:none" transform="translate(406.917 1161.814)"/>
      <path d="M0 0a3.933 3.933 0 1 0 0 7.866A3.933 3.933 0 0 0 0 0" style="fill:#03173d;fill-opacity:1;fill-rule:nonzero;stroke:none" transform="translate(406.917 1086.438)"/>
      <path d="M0 0a3.933 3.933 0 1 0 0 7.866A3.933 3.933 0 0 0 0 0" style="fill:#03173d;fill-opacity:1;fill-rule:nonzero;stroke:none" transform="translate(406.917 1011.063)"/>
      <path d="M0 0a3.933 3.933 0 1 0 0 7.866A3.933 3.933 0 0 0 0 0" style="fill:#03173d;fill-opacity:1;fill-rule:nonzero;stroke:none" transform="translate(406.917 935.687)"/>
      <path d="M0 0a3.933 3.933 0 1 0 0 7.866A3.933 3.933 0 0 0 0 0" style="fill:#03173d;fill-opacity:1;fill-rule:nonzero;stroke:none" transform="translate(406.917 860.312)"/>
      <path d="M0 0a3.933 3.933 0 1 0 0 7.866A3.933 3.933 0 0 0 0 0" style="fill:#03173d;fill-opacity:1;fill-rule:nonzero;stroke:none" transform="translate(406.917 784.936)"/>
      <path d="M0 0a3.933 3.933 0 1 0 0 7.866A3.933 3.933 0 0 0 0 0" style="fill:#03173d;fill-opacity:1;fill-rule:nonzero;stroke:none" transform="translate(406.917 709.56)"/>
      <path d="M0 0a3.933 3.933 0 1 0 0 7.866A3.933 3.933 0 0 0 0 0" style="fill:#03173d;fill-opacity:1;fill-rule:nonzero;stroke:none" transform="translate(406.917 634.185)"/>
      <path d="M0 0a3.933 3.933 0 1 0 0 7.866A3.933 3.933 0 0 0 0 0" style="fill:#03173d;fill-opacity:1;fill-rule:nonzero;stroke:none" transform="translate(406.917 558.81)"/>
      <path d="M0 0a3.933 3.933 0 1 0 0 7.866A3.933 3.933 0 0 0 0 0" style="fill:#03173d;fill-opacity:1;fill-rule:nonzero;stroke:none" transform="translate(406.917 483.434)"/>
      <path d="M0 0a3.933 3.933 0 1 0 0 7.866A3.933 3.933 0 0 0 0 0" style="fill:#03173d;fill-opacity:1;fill-rule:nonzero;stroke:none" transform="translate(406.917 408.059)"/>
      <path d="M0 0a3.933 3.933 0 1 0 0 7.866A3.933 3.933 0 0 0 0 0" style="fill:#03173d;fill-opacity:1;fill-rule:nonzero;stroke:none" transform="translate(406.917 332.683)"/>
      <path d="M0 0a3.933 3.933 0 1 0 0 7.866A3.933 3.933 0 0 0 0 0" style="fill:#03173d;fill-opacity:1;fill-rule:nonzero;stroke:none" transform="translate(406.917 257.308)"/>
      <path d="M0 0a3.933 3.933 0 1 0 0 7.866A3.933 3.933 0 0 0 0 0" style="fill:#03173d;fill-opacity:1;fill-rule:nonzero;stroke:none" transform="translate(406.917 181.932)"/>
      <path d="M0 0a3.933 3.933 0 1 0 0 7.866A3.933 3.933 0 0 0 0 0" style="fill:#03173d;fill-opacity:1;fill-rule:nonzero;stroke:none" transform="translate(406.916 106.557)"/>
      <path d="M0 0a3.933 3.933 0 1 0 0 7.866A3.933 3.933 0 0 0 0 0" style="fill:#03173d;fill-opacity:1;fill-rule:nonzero;stroke:none" transform="translate(406.916 31.181)"/>
      <path d="M0 0a3.933 3.933 0 1 0 0 7.866A3.933 3.933 0 0 0 0 0" style="fill:#03173d;fill-opacity:1;fill-rule:nonzero;stroke:none" transform="translate(339.407 1463.316)"/>
      <path d="M0 0a3.933 3.933 0 1 0 0 7.866A3.933 3.933 0 0 0 0 0" style="fill:#03173d;fill-opacity:1;fill-rule:nonzero;stroke:none" transform="translate(339.407 1387.94)"/>
      <path d="M0 0a3.933 3.933 0 1 0 0 7.866A3.933 3.933 0 0 0 0 0" style="fill:#03173d;fill-opacity:1;fill-rule:nonzero;stroke:none" transform="translate(339.407 1312.565)"/>
      <path d="M0 0a3.933 3.933 0 1 0 0 7.866A3.933 3.933 0 0 0 0 0" style="fill:#03173d;fill-opacity:1;fill-rule:nonzero;stroke:none" transform="translate(339.407 1237.19)"/>
      <path d="M0 0a3.933 3.933 0 1 0 0 7.866A3.933 3.933 0 0 0 0 0" style="fill:#03173d;fill-opacity:1;fill-rule:nonzero;stroke:none" transform="translate(339.407 1161.814)"/>
      <path d="M0 0a3.933 3.933 0 1 0 0 7.866A3.933 3.933 0 0 0 0 0" style="fill:#03173d;fill-opacity:1;fill-rule:nonzero;stroke:none" transform="translate(339.407 1086.438)"/>
      <path d="M0 0a3.933 3.933 0 1 0 0 7.866A3.933 3.933 0 0 0 0 0" style="fill:#03173d;fill-opacity:1;fill-rule:nonzero;stroke:none" transform="translate(339.407 1011.063)"/>
      <path d="M0 0a3.933 3.933 0 1 0 0 7.866A3.933 3.933 0 0 0 0 0" style="fill:#03173d;fill-opacity:1;fill-rule:nonzero;stroke:none" transform="translate(339.407 935.687)"/>
      <path d="M0 0a3.933 3.933 0 1 0 0 7.866A3.933 3.933 0 0 0 0 0" style="fill:#03173d;fill-opacity:1;fill-rule:nonzero;stroke:none" transform="translate(339.407 860.312)"/>
      <path d="M0 0a3.933 3.933 0 1 0 0 7.866A3.933 3.933 0 0 0 0 0" style="fill:#03173d;fill-opacity:1;fill-rule:nonzero;stroke:none" transform="translate(339.407 784.936)"/>
      <path d="M0 0a3.933 3.933 0 1 0 0 7.866A3.933 3.933 0 0 0 0 0" style="fill:#03173d;fill-opacity:1;fill-rule:nonzero;stroke:none" transform="translate(339.407 709.561)"/>
      <path d="M0 0a3.933 3.933 0 1 0 0 7.866A3.933 3.933 0 0 0 0 0" style="fill:#03173d;fill-opacity:1;fill-rule:nonzero;stroke:none" transform="translate(339.407 634.185)"/>
      <path d="M0 0a3.933 3.933 0 1 0 0 7.866A3.933 3.933 0 0 0 0 0" style="fill:#03173d;fill-opacity:1;fill-rule:nonzero;stroke:none" transform="translate(339.407 558.81)"/>
      <path d="M0 0a3.933 3.933 0 1 0 0 7.866A3.933 3.933 0 0 0 0 0" style="fill:#03173d;fill-opacity:1;fill-rule:nonzero;stroke:none" transform="translate(339.407 483.434)"/>
      <path d="M0 0a3.933 3.933 0 1 0 0 7.866A3.933 3.933 0 0 0 0 0" style="fill:#03173d;fill-opacity:1;fill-rule:nonzero;stroke:none" transform="translate(339.407 408.059)"/>
      <path d="M0 0a3.933 3.933 0 1 0 0 7.866A3.933 3.933 0 0 0 0 0" style="fill:#03173d;fill-opacity:1;fill-rule:nonzero;stroke:none" transform="translate(339.407 332.683)"/>
      <path d="M0 0a3.933 3.933 0 1 0 0 7.866A3.933 3.933 0 0 0 0 0" style="fill:#03173d;fill-opacity:1;fill-rule:nonzero;stroke:none" transform="translate(339.407 257.308)"/>
      <path d="M0 0a3.933 3.933 0 1 0 0 7.866A3.933 3.933 0 0 0 0 0" style="fill:#03173d;fill-opacity:1;fill-rule:nonzero;stroke:none" transform="translate(339.407 181.932)"/>
      <path d="M0 0a3.933 3.933 0 1 0 0 7.866A3.933 3.933 0 0 0 0 0" style="fill:#03173d;fill-opacity:1;fill-rule:nonzero;stroke:none" transform="translate(339.407 106.557)"/>
      <path d="M0 0a3.933 3.933 0 1 0 0 7.866A3.933 3.933 0 0 0 0 0" style="fill:#03173d;fill-opacity:1;fill-rule:nonzero;stroke:none" transform="translate(339.407 31.181)"/>
      <path d="M0 0a3.933 3.933 0 1 0 0 7.866A3.933 3.933 0 0 0 0 0" style="fill:#03173d;fill-opacity:1;fill-rule:nonzero;stroke:none" transform="translate(270.04 1463.315)"/>
      <path d="M0 0a3.933 3.933 0 1 0 0 7.866A3.933 3.933 0 0 0 0 0" style="fill:#03173d;fill-opacity:1;fill-rule:nonzero;stroke:none" transform="translate(270.04 1387.94)"/>
      <path d="M0 0a3.933 3.933 0 1 0 0 7.866A3.933 3.933 0 0 0 0 0" style="fill:#03173d;fill-opacity:1;fill-rule:nonzero;stroke:none" transform="translate(270.04 1312.565)"/>
      <path d="M0 0a3.933 3.933 0 1 0 0 7.866A3.933 3.933 0 0 0 0 0" style="fill:#03173d;fill-opacity:1;fill-rule:nonzero;stroke:none" transform="translate(270.04 1237.189)"/>
      <path d="M0 0a3.933 3.933 0 1 0 0 7.866A3.933 3.933 0 0 0 0 0" style="fill:#03173d;fill-opacity:1;fill-rule:nonzero;stroke:none" transform="translate(270.04 1161.814)"/>
      <path d="M0 0a3.933 3.933 0 1 0 0 7.866A3.933 3.933 0 0 0 0 0" style="fill:#03173d;fill-opacity:1;fill-rule:nonzero;stroke:none" transform="translate(270.04 1086.438)"/>
      <path d="M0 0a3.933 3.933 0 1 0 0 7.866A3.933 3.933 0 0 0 0 0" style="fill:#03173d;fill-opacity:1;fill-rule:nonzero;stroke:none" transform="translate(270.04 1011.063)"/>
      <path d="M0 0a3.933 3.933 0 1 0 0 7.866A3.933 3.933 0 0 0 0 0" style="fill:#03173d;fill-opacity:1;fill-rule:nonzero;stroke:none" transform="translate(270.04 935.687)"/>
      <path d="M0 0a3.933 3.933 0 1 0 0 7.866A3.933 3.933 0 0 0 0 0" style="fill:#03173d;fill-opacity:1;fill-rule:nonzero;stroke:none" transform="translate(270.04 860.311)"/>
      <path d="M0 0a3.933 3.933 0 1 0 0 7.866A3.933 3.933 0 0 0 0 0" style="fill:#03173d;fill-opacity:1;fill-rule:nonzero;stroke:none" transform="translate(270.04 784.936)"/>
      <path d="M0 0a3.933 3.933 0 1 0 0 7.866A3.933 3.933 0 0 0 0 0" style="fill:#03173d;fill-opacity:1;fill-rule:nonzero;stroke:none" transform="translate(270.039 709.56)"/>
      <path d="M0 0a3.933 3.933 0 1 0 0 7.866A3.933 3.933 0 0 0 0 0" style="fill:#03173d;fill-opacity:1;fill-rule:nonzero;stroke:none" transform="translate(270.039 634.185)"/>
      <path d="M0 0a3.933 3.933 0 1 0 0 7.866A3.933 3.933 0 0 0 0 0" style="fill:#03173d;fill-opacity:1;fill-rule:nonzero;stroke:none" transform="translate(270.039 558.81)"/>
      <path d="M0 0a3.933 3.933 0 1 0 0 7.866A3.933 3.933 0 0 0 0 0" style="fill:#03173d;fill-opacity:1;fill-rule:nonzero;stroke:none" transform="translate(270.039 483.434)"/>
      <path d="M0 0a3.933 3.933 0 1 0 0 7.866A3.933 3.933 0 0 0 0 0" style="fill:#03173d;fill-opacity:1;fill-rule:nonzero;stroke:none" transform="translate(270.039 408.059)"/>
      <path d="M0 0a3.933 3.933 0 1 0 0 7.866A3.933 3.933 0 0 0 0 0" style="fill:#03173d;fill-opacity:1;fill-rule:nonzero;stroke:none" transform="translate(270.039 332.683)"/>
      <path d="M0 0a3.933 3.933 0 1 0 0 7.866A3.933 3.933 0 0 0 0 0" style="fill:#03173d;fill-opacity:1;fill-rule:nonzero;stroke:none" transform="translate(270.039 257.308)"/>
      <path d="M0 0a3.933 3.933 0 1 0 0 7.866A3.933 3.933 0 0 0 0 0" style="fill:#03173d;fill-opacity:1;fill-rule:nonzero;stroke:none" transform="translate(270.039 181.932)"/>
      <path d="M0 0a3.933 3.933 0 1 0 0 7.866A3.933 3.933 0 0 0 0 0" style="fill:#03173d;fill-opacity:1;fill-rule:nonzero;stroke:none" transform="translate(270.039 106.557)"/>
      <path d="M0 0a3.933 3.933 0 1 0 0 7.866A3.933 3.933 0 0 0 0 0" style="fill:#03173d;fill-opacity:1;fill-rule:nonzero;stroke:none" transform="translate(270.039 31.181)"/>
      <path d="M0 0a3.933 3.933 0 1 0 0 7.866A3.933 3.933 0 0 0 0 0" style="fill:#03173d;fill-opacity:1;fill-rule:nonzero;stroke:none" transform="translate(202.53 1463.315)"/>
      <path d="M0 0a3.933 3.933 0 1 0 0 7.866A3.933 3.933 0 0 0 0 0" style="fill:#03173d;fill-opacity:1;fill-rule:nonzero;stroke:none" transform="translate(202.53 1387.94)"/>
      <path d="M0 0a3.933 3.933 0 1 0 0 7.866A3.933 3.933 0 0 0 0 0" style="fill:#03173d;fill-opacity:1;fill-rule:nonzero;stroke:none" transform="translate(202.529 1312.565)"/>
      <path d="M0 0a3.933 3.933 0 1 0 0 7.866A3.933 3.933 0 0 0 0 0" style="fill:#03173d;fill-opacity:1;fill-rule:nonzero;stroke:none" transform="translate(202.529 1237.189)"/>
      <path d="M0 0a3.933 3.933 0 1 0 0 7.866A3.933 3.933 0 0 0 0 0" style="fill:#03173d;fill-opacity:1;fill-rule:nonzero;stroke:none" transform="translate(202.529 1161.814)"/>
      <path d="M0 0a3.933 3.933 0 1 0 0 7.866A3.933 3.933 0 0 0 0 0" style="fill:#03173d;fill-opacity:1;fill-rule:nonzero;stroke:none" transform="translate(202.529 1086.438)"/>
      <path d="M0 0a3.933 3.933 0 1 0 0 7.866A3.933 3.933 0 0 0 0 0" style="fill:#03173d;fill-opacity:1;fill-rule:nonzero;stroke:none" transform="translate(202.529 1011.063)"/>
      <path d="M0 0a3.933 3.933 0 1 0 0 7.866A3.933 3.933 0 0 0 0 0" style="fill:#03173d;fill-opacity:1;fill-rule:nonzero;stroke:none" transform="translate(202.529 935.687)"/>
      <path d="M0 0a3.933 3.933 0 1 0 0 7.866A3.933 3.933 0 0 0 0 0" style="fill:#03173d;fill-opacity:1;fill-rule:nonzero;stroke:none" transform="translate(202.529 860.312)"/>
      <path d="M0 0a3.933 3.933 0 1 0 0 7.866A3.933 3.933 0 0 0 0 0" style="fill:#03173d;fill-opacity:1;fill-rule:nonzero;stroke:none" transform="translate(202.529 784.936)"/>
      <path d="M0 0a3.933 3.933 0 1 0 0 7.866A3.933 3.933 0 0 0 0 0" style="fill:#03173d;fill-opacity:1;fill-rule:nonzero;stroke:none" transform="translate(202.529 709.56)"/>
      <path d="M0 0a3.933 3.933 0 1 0 0 7.866A3.933 3.933 0 0 0 0 0" style="fill:#03173d;fill-opacity:1;fill-rule:nonzero;stroke:none" transform="translate(202.529 634.185)"/>
      <path d="M0 0a3.933 3.933 0 1 0 0 7.866A3.933 3.933 0 0 0 0 0" style="fill:#03173d;fill-opacity:1;fill-rule:nonzero;stroke:none" transform="translate(202.529 558.81)"/>
      <path d="M0 0a3.933 3.933 0 1 0 0 7.866A3.933 3.933 0 0 0 0 0" style="fill:#03173d;fill-opacity:1;fill-rule:nonzero;stroke:none" transform="translate(202.529 483.434)"/>
      <path d="M0 0a3.933 3.933 0 1 0 0 7.866A3.933 3.933 0 0 0 0 0" style="fill:#03173d;fill-opacity:1;fill-rule:nonzero;stroke:none" transform="translate(202.529 408.059)"/>
      <path d="M0 0a3.933 3.933 0 1 0 0 7.866A3.933 3.933 0 0 0 0 0" style="fill:#03173d;fill-opacity:1;fill-rule:nonzero;stroke:none" transform="translate(202.529 332.683)"/>
      <path d="M0 0a3.933 3.933 0 1 0 0 7.866A3.933 3.933 0 0 0 0 0" style="fill:#03173d;fill-opacity:1;fill-rule:nonzero;stroke:none" transform="translate(202.529 257.308)"/>
      <path d="M0 0a3.933 3.933 0 1 0 0 7.866A3.933 3.933 0 0 0 0 0" style="fill:#03173d;fill-opacity:1;fill-rule:nonzero;stroke:none" transform="translate(202.529 181.932)"/>
      <path d="M0 0a3.933 3.933 0 1 0 0 7.866A3.933 3.933 0 0 0 0 0" style="fill:#03173d;fill-opacity:1;fill-rule:nonzero;stroke:none" transform="translate(202.528 106.557)"/>
      <path d="M0 0a3.933 3.933 0 1 0 0 7.866A3.933 3.933 0 0 0 0 0" style="fill:#03173d;fill-opacity:1;fill-rule:nonzero;stroke:none" transform="translate(202.528 31.181)"/>
      <path d="M0 0a3.933 3.933 0 1 0 0 7.866A3.933 3.933 0 0 0 0 0" style="fill:#03173d;fill-opacity:1;fill-rule:nonzero;stroke:none" transform="translate(135.02 1463.315)"/>
      <path d="M0 0a3.933 3.933 0 1 0 0 7.866A3.933 3.933 0 0 0 0 0" style="fill:#03173d;fill-opacity:1;fill-rule:nonzero;stroke:none" transform="translate(135.02 1387.94)"/>
      <path d="M0 0a3.933 3.933 0 1 0 0 7.866A3.933 3.933 0 0 0 0 0" style="fill:#03173d;fill-opacity:1;fill-rule:nonzero;stroke:none" transform="translate(135.02 1312.565)"/>
      <path d="M0 0a3.933 3.933 0 1 0 0 7.866A3.933 3.933 0 0 0 0 0" style="fill:#03173d;fill-opacity:1;fill-rule:nonzero;stroke:none" transform="translate(135.02 1237.189)"/>
      <path d="M0 0a3.933 3.933 0 1 0 0 7.866A3.933 3.933 0 0 0 0 0" style="fill:#03173d;fill-opacity:1;fill-rule:nonzero;stroke:none" transform="translate(135.019 1161.814)"/>
      <path d="M0 0a3.933 3.933 0 1 0 0 7.866A3.933 3.933 0 0 0 0 0" style="fill:#03173d;fill-opacity:1;fill-rule:nonzero;stroke:none" transform="translate(135.019 1086.438)"/>
      <path d="M0 0a3.933 3.933 0 1 0 0 7.866A3.933 3.933 0 0 0 0 0" style="fill:#03173d;fill-opacity:1;fill-rule:nonzero;stroke:none" transform="translate(135.019 1011.063)"/>
      <path d="M0 0a3.933 3.933 0 1 0 0 7.866A3.933 3.933 0 0 0 0 0" style="fill:#03173d;fill-opacity:1;fill-rule:nonzero;stroke:none" transform="translate(135.019 935.687)"/>
      <path d="M0 0a3.933 3.933 0 1 0 0 7.866A3.933 3.933 0 0 0 0 0" style="fill:#03173d;fill-opacity:1;fill-rule:nonzero;stroke:none" transform="translate(135.019 860.312)"/>
      <path d="M0 0a3.933 3.933 0 1 0 0 7.866A3.933 3.933 0 0 0 0 0" style="fill:#03173d;fill-opacity:1;fill-rule:nonzero;stroke:none" transform="translate(135.019 784.936)"/>
      <path d="M0 0a3.933 3.933 0 1 0 0 7.866A3.933 3.933 0 0 0 0 0" style="fill:#03173d;fill-opacity:1;fill-rule:nonzero;stroke:none" transform="translate(135.019 709.56)"/>
      <path d="M0 0a3.933 3.933 0 1 0 0 7.866A3.933 3.933 0 0 0 0 0" style="fill:#03173d;fill-opacity:1;fill-rule:nonzero;stroke:none" transform="translate(135.019 634.185)"/>
      <path d="M0 0a3.933 3.933 0 1 0 0 7.866A3.933 3.933 0 0 0 0 0" style="fill:#03173d;fill-opacity:1;fill-rule:nonzero;stroke:none" transform="translate(135.019 558.81)"/>
      <path d="M0 0a3.933 3.933 0 1 0 0 7.866A3.933 3.933 0 0 0 0 0" style="fill:#03173d;fill-opacity:1;fill-rule:nonzero;stroke:none" transform="translate(135.019 483.434)"/>
      <path d="M0 0a3.933 3.933 0 1 0 0 7.866A3.933 3.933 0 0 0 0 0" style="fill:#03173d;fill-opacity:1;fill-rule:nonzero;stroke:none" transform="translate(135.019 408.059)"/>
      <path d="M0 0a3.933 3.933 0 1 0 0 7.866A3.933 3.933 0 0 0 0 0" style="fill:#03173d;fill-opacity:1;fill-rule:nonzero;stroke:none" transform="translate(135.019 332.683)"/>
      <path d="M0 0a3.933 3.933 0 1 0 0 7.866A3.933 3.933 0 0 0 0 0" style="fill:#03173d;fill-opacity:1;fill-rule:nonzero;stroke:none" transform="translate(135.019 257.308)"/>
      <path d="M0 0a3.933 3.933 0 1 0 0 7.866A3.933 3.933 0 0 0 0 0" style="fill:#03173d;fill-opacity:1;fill-rule:nonzero;stroke:none" transform="translate(135.018 181.932)"/>
      <path d="M0 0a3.933 3.933 0 1 0 0 7.866A3.933 3.933 0 0 0 0 0" style="fill:#03173d;fill-opacity:1;fill-rule:nonzero;stroke:none" transform="translate(135.018 106.557)"/>
      <path d="M0 0a3.933 3.933 0 1 0 0 7.866A3.933 3.933 0 0 0 0 0" style="fill:#03173d;fill-opacity:1;fill-rule:nonzero;stroke:none" transform="translate(135.018 31.181)"/>
      <path d="M0 0a3.933 3.933 0 1 0 0 7.866A3.933 3.933 0 0 0 0 0" style="fill:#03173d;fill-opacity:1;fill-rule:nonzero;stroke:none" transform="translate(67.509 1463.315)"/>
      <path d="M0 0a3.933 3.933 0 1 0 0 7.866A3.933 3.933 0 0 0 0 0" style="fill:#03173d;fill-opacity:1;fill-rule:nonzero;stroke:none" transform="translate(67.509 1387.94)"/>
      <path d="M0 0a3.933 3.933 0 1 0 0 7.866A3.933 3.933 0 0 0 0 0" style="fill:#03173d;fill-opacity:1;fill-rule:nonzero;stroke:none" transform="translate(67.509 1312.565)"/>
      <path d="M0 0a3.933 3.933 0 1 0 0 7.866A3.933 3.933 0 0 0 0 0" style="fill:#03173d;fill-opacity:1;fill-rule:nonzero;stroke:none" transform="translate(67.509 1237.19)"/>
      <path d="M0 0a3.933 3.933 0 1 0 0 7.866A3.933 3.933 0 0 0 0 0" style="fill:#03173d;fill-opacity:1;fill-rule:nonzero;stroke:none" transform="translate(67.509 1161.814)"/>
      <path d="M0 0a3.933 3.933 0 1 0 0 7.866A3.933 3.933 0 0 0 0 0" style="fill:#03173d;fill-opacity:1;fill-rule:nonzero;stroke:none" transform="translate(67.509 1086.438)"/>
      <path d="M0 0a3.933 3.933 0 1 0 0 7.866A3.933 3.933 0 0 0 0 0" style="fill:#03173d;fill-opacity:1;fill-rule:nonzero;stroke:none" transform="translate(67.509 1011.063)"/>
      <path d="M0 0a3.933 3.933 0 1 0 0 7.866A3.933 3.933 0 0 0 0 0" style="fill:#03173d;fill-opacity:1;fill-rule:nonzero;stroke:none" transform="translate(67.509 935.687)"/>
      <path d="M0 0a3.933 3.933 0 1 0 0 7.866A3.933 3.933 0 0 0 0 0" style="fill:#03173d;fill-opacity:1;fill-rule:nonzero;stroke:none" transform="translate(67.509 860.312)"/>
      <path d="M0 0a3.933 3.933 0 1 0 0 7.866A3.933 3.933 0 0 0 0 0" style="fill:#03173d;fill-opacity:1;fill-rule:nonzero;stroke:none" transform="translate(67.508 784.936)"/>
      <path d="M0 0a3.933 3.933 0 1 0 0 7.866A3.933 3.933 0 0 0 0 0" style="fill:#03173d;fill-opacity:1;fill-rule:nonzero;stroke:none" transform="translate(67.508 709.56)"/>
      <path d="M0 0a3.933 3.933 0 1 0 0 7.866A3.933 3.933 0 0 0 0 0" style="fill:#03173d;fill-opacity:1;fill-rule:nonzero;stroke:none" transform="translate(67.508 634.185)"/>
      <path d="M0 0a3.933 3.933 0 1 0 0 7.866A3.933 3.933 0 0 0 0 0" style="fill:#03173d;fill-opacity:1;fill-rule:nonzero;stroke:none" transform="translate(67.508 558.81)"/>
      <path d="M0 0a3.933 3.933 0 1 0 0 7.866A3.933 3.933 0 0 0 0 0" style="fill:#03173d;fill-opacity:1;fill-rule:nonzero;stroke:none" transform="translate(67.508 483.434)"/>
      <path d="M0 0a3.933 3.933 0 1 0 0 7.866A3.933 3.933 0 0 0 0 0" style="fill:#03173d;fill-opacity:1;fill-rule:nonzero;stroke:none" transform="translate(67.508 408.059)"/>
      <path d="M0 0a3.933 3.933 0 1 0 0 7.866A3.933 3.933 0 0 0 0 0" style="fill:#03173d;fill-opacity:1;fill-rule:nonzero;stroke:none" transform="translate(67.508 332.683)"/>
      <path d="M0 0a3.933 3.933 0 1 0 0 7.866A3.933 3.933 0 0 0 0 0" style="fill:#03173d;fill-opacity:1;fill-rule:nonzero;stroke:none" transform="translate(67.508 257.308)"/>
      <path d="M0 0a3.933 3.933 0 1 0 0 7.866A3.933 3.933 0 0 0 0 0" style="fill:#03173d;fill-opacity:1;fill-rule:nonzero;stroke:none" transform="translate(67.508 181.932)"/>
      <path d="M0 0a3.933 3.933 0 1 0 0 7.866A3.933 3.933 0 0 0 0 0" style="fill:#03173d;fill-opacity:1;fill-rule:nonzero;stroke:none" transform="translate(67.508 106.557)"/>
      <path d="M0 0a3.933 3.933 0 1 0 0 7.866A3.933 3.933 0 0 0 0 0" style="fill:#03173d;fill-opacity:1;fill-rule:nonzero;stroke:none" transform="translate(67.508 31.181)"/>
      <path d="M0 0a3.933 3.933 0 1 0 0 7.866A3.933 3.933 0 0 0 0 0" style="fill:#03173d;fill-opacity:1;fill-rule:nonzero;stroke:none" transform="translate(-.001 1463.316)"/>
      <path d="M0 0a3.933 3.933 0 1 0 0 7.866A3.933 3.933 0 0 0 0 0" style="fill:#03173d;fill-opacity:1;fill-rule:nonzero;stroke:none" transform="translate(-.001 1387.94)"/>
      <path d="M0 0a3.933 3.933 0 1 0 0 7.866A3.933 3.933 0 0 0 0 0" style="fill:#03173d;fill-opacity:1;fill-rule:nonzero;stroke:none" transform="translate(-.001 1312.565)"/>
      <path d="M0 0a3.933 3.933 0 1 0 0 7.866A3.933 3.933 0 0 0 0 0" style="fill:#03173d;fill-opacity:1;fill-rule:nonzero;stroke:none" transform="translate(-.001 1237.19)"/>
      <path d="M0 0a3.933 3.933 0 1 0 0 7.866A3.933 3.933 0 0 0 0 0" style="fill:#03173d;fill-opacity:1;fill-rule:nonzero;stroke:none" transform="translate(-.001 1161.814)"/>
      <path d="M0 0a3.933 3.933 0 1 0 0 7.866A3.933 3.933 0 0 0 0 0" style="fill:#03173d;fill-opacity:1;fill-rule:nonzero;stroke:none" transform="translate(-.001 1086.438)"/>
      <path d="M0 0a3.933 3.933 0 1 0 0 7.866A3.933 3.933 0 0 0 0 0" style="fill:#03173d;fill-opacity:1;fill-rule:nonzero;stroke:none" transform="translate(-.001 1011.063)"/>
      <path d="M0 0a3.933 3.933 0 1 0 0 7.866A3.933 3.933 0 0 0 0 0" style="fill:#03173d;fill-opacity:1;fill-rule:nonzero;stroke:none" transform="translate(-.001 935.687)"/>
      <path d="M0 0a3.933 3.933 0 1 0 0 7.866A3.933 3.933 0 0 0 0 0" style="fill:#03173d;fill-opacity:1;fill-rule:nonzero;stroke:none" transform="translate(-.002 860.312)"/>
      <path d="M0 0a3.933 3.933 0 1 0 0 7.866A3.933 3.933 0 0 0 0 0" style="fill:#03173d;fill-opacity:1;fill-rule:nonzero;stroke:none" transform="translate(-.002 784.936)"/>
      <path d="M0 0a3.933 3.933 0 1 0 0 7.866A3.933 3.933 0 0 0 0 0" style="fill:#03173d;fill-opacity:1;fill-rule:nonzero;stroke:none" transform="translate(-.002 709.56)"/>
      <path d="M0 0a3.933 3.933 0 1 0 0 7.866A3.933 3.933 0 0 0 0 0" style="fill:#03173d;fill-opacity:1;fill-rule:nonzero;stroke:none" transform="translate(-.002 634.185)"/>
      <path d="M0 0a3.933 3.933 0 1 0 0 7.866A3.933 3.933 0 0 0 0 0" style="fill:#03173d;fill-opacity:1;fill-rule:nonzero;stroke:none" transform="translate(-.002 558.81)"/>
      <path d="M0 0a3.933 3.933 0 1 0 0 7.866A3.933 3.933 0 0 0 0 0" style="fill:#03173d;fill-opacity:1;fill-rule:nonzero;stroke:none" transform="translate(-.002 483.434)"/>
      <path d="M0 0a3.933 3.933 0 1 0 0 7.866A3.933 3.933 0 0 0 0 0" style="fill:#03173d;fill-opacity:1;fill-rule:nonzero;stroke:none" transform="translate(-.002 408.059)"/>
      <path d="M0 0a3.933 3.933 0 1 0 0 7.866A3.933 3.933 0 0 0 0 0" style="fill:#03173d;fill-opacity:1;fill-rule:nonzero;stroke:none" transform="translate(-.002 332.683)"/>
      <path d="M0 0a3.933 3.933 0 1 0 0 7.866A3.933 3.933 0 0 0 0 0" style="fill:#03173d;fill-opacity:1;fill-rule:nonzero;stroke:none" transform="translate(-.002 257.308)"/>
      <path d="M0 0a3.933 3.933 0 1 0 0 7.866A3.933 3.933 0 0 0 0 0" style="fill:#03173d;fill-opacity:1;fill-rule:nonzero;stroke:none" transform="translate(-.002 181.932)"/>
      <path d="M0 0a3.933 3.933 0 1 0 0 7.866A3.933 3.933 0 0 0 0 0" style="fill:#03173d;fill-opacity:1;fill-rule:nonzero;stroke:none" transform="translate(-.002 106.557)"/>
      <path d="M0 0a3.933 3.933 0 1 0 0 7.866A3.933 3.933 0 0 0 0 0" style="fill:#03173d;fill-opacity:1;fill-rule:nonzero;stroke:none" transform="translate(-.002 31.181)"/>
    </pattern>
  </defs>
  <path d="M698.455 52.316H142.733v490.711h555.722z" style="fill:url(#a);fill-opacity:1;fill-rule:nonzero;stroke:none" transform="matrix(1.33333 0 0 -1.33333 0 793.701)"/>
</svg>
