<svg version="1.1" id="Laag_1" xmlns="http://www.w3.org/2000/svg" xmlns:xlink="http://www.w3.org/1999/xlink" x="0" y="0" viewBox="0 0 841.9 595.3" style="enable-background:new 0 0 841.9 595.3" xml:space="preserve">
  <style>
    .st0{clip-path:url(#SVGID_00000027598081089015542430000012182894564031377851_);fill:none;stroke:#03173d;stroke-miterlimit:10}
  </style>
  <defs>
    <path id="SVGID_1_" d="M-380.3-81.3h1440v757.7h-1440z"/>
  </defs>
  <clipPath id="SVGID_00000083790309120924074460000007601536385259549623_">
    <use xlink:href="#SVGID_1_" style="overflow:visible"/>
  </clipPath>
  <path style="clip-path:url(#SVGID_00000083790309120924074460000007601536385259549623_);fill:none;stroke:#03173d;stroke-miterlimit:10" d="M-493.4 242.9c-21.4-51.1-.1-110.9 32.8-155.5C-423 36.6-370.1-2.7-310.7-24.2c46-16.6 97.5-22.4 143.6-6.4s85.4 56.7 90.5 105.3c6.4 60.5-37.4 113.5-77.9 158.9s-83.2 100-74 160.1c9.3 60.5 67.9 100.4 124.6 123.6 129.8 53.2 278.6 58.4 411.8 14.3 120.2-39.6 224-116.2 335.6-175.7s242.1-102.6 363.7-67.9c93.5 26.7 168.3 95.4 239.2 161.9 49.6 46.5 102.4 99.2 109 166.9"/>
</svg>
