<svg data-name="Laag 1" xmlns="http://www.w3.org/2000/svg" viewBox="0 0 756.31 174.12">
  <path d="M59.76 43.12a32.65 32.65 0 0 0-11.13-7.35 37.13 37.13 0 0 0-14.18-2.65 30.51 30.51 0 0 0-14.71 3.64 31.68 31.68 0 0 0-11 9.61V3.7a10.67 10.67 0 0 0-1.66-.6 8.18 8.18 0 0 0-2.32-.33A4.65 4.65 0 0 0 1.13 4 4.68 4.68 0 0 0 0 7.27v57.25c0 2.12.07 4 .2 5.63s.29 3.07.46 4.31a37.57 37.57 0 0 0 4.11 11.66 30.43 30.43 0 0 0 7.29 8.74 31.58 31.58 0 0 0 10.07 5.5 38.33 38.33 0 0 0 12.32 1.92 36.59 36.59 0 0 0 14.18-2.71A33.31 33.31 0 0 0 67 81.15a36.56 36.56 0 0 0 0-27 33.74 33.74 0 0 0-7.24-11.03Zm-1.39 35.11a25 25 0 0 1-5.17 8.62 24.72 24.72 0 0 1-8.08 5.76 25.76 25.76 0 0 1-10.67 2.12 26 26 0 0 1-10.53-2A24.3 24.3 0 0 1 15.84 87a24.93 24.93 0 0 1-5.24-8.5 30.58 30.58 0 0 1-1.85-10.8A30.18 30.18 0 0 1 10.6 57a26.55 26.55 0 0 1 5.24-8.68 23.5 23.5 0 0 1 8.08-5.76 26 26 0 0 1 10.53-2.06 26.41 26.41 0 0 1 10.67 2.06 23.6 23.6 0 0 1 8.08 5.76A25.72 25.72 0 0 1 58.37 57a31.32 31.32 0 0 1 1.79 10.7 30.89 30.89 0 0 1-1.79 10.53ZM141 35a4.17 4.17 0 0 0-4.76 4.51v32.03q0 11-5.5 17.09t-16.64 6.1q-11.11 0-16.56-6.1t-5.45-17.09V35.9a10.29 10.29 0 0 0-1.66-.6 8.18 8.18 0 0 0-2.32-.3 4.17 4.17 0 0 0-4.76 4.51v34.68a29.67 29.67 0 0 0 2.12 11.4 24.85 24.85 0 0 0 6.09 8.87 27.67 27.67 0 0 0 9.67 5.77 37.74 37.74 0 0 0 12.85 2 38.34 38.34 0 0 0 12.93-2 27.72 27.72 0 0 0 9.74-5.77 24.85 24.85 0 0 0 6.09-8.87 29.86 29.86 0 0 0 2.16-11.4V35.9a10.29 10.29 0 0 0-1.66-.6A8.18 8.18 0 0 0 141 35Zm78 0a4.18 4.18 0 0 0-4.77 4.51v32.03q0 11-5.5 17.09t-16.63 6.1q-11.13 0-16.56-6.1t-5.44-17.09V35.9a10.1 10.1 0 0 0-1.65-.6 8.23 8.23 0 0 0-2.32-.33 4.18 4.18 0 0 0-4.77 4.51v34.71a29.86 29.86 0 0 0 2.12 11.4 24.85 24.85 0 0 0 6.09 8.87 27.72 27.72 0 0 0 9.68 5.77 37.66 37.66 0 0 0 12.85 2 38.28 38.28 0 0 0 12.92-2 27.63 27.63 0 0 0 9.74-5.77 24.85 24.85 0 0 0 6.09-8.87 29.67 29.67 0 0 0 2.15-11.4V35.9a10.1 10.1 0 0 0-1.65-.6A8.23 8.23 0 0 0 219 35Zm59.39-.3a38.23 38.23 0 0 0-11.92-1.58q-13.26 0-20.15 6.29t-6.89 17.82v43.2h8.75V61.34a37.4 37.4 0 0 1 .93-8.75 14.71 14.71 0 0 1 3.18-6.42 13.84 13.84 0 0 1 5.89-3.91 26.66 26.66 0 0 1 9.08-1.33 31.17 31.17 0 0 1 8.08.93 34.63 34.63 0 0 1 5.7 2 12.27 12.27 0 0 0 1.39-1.72 4.11 4.11 0 0 0 .73-2.39c0-2.31-1.59-3.98-4.77-5.05ZM328.61 91a30.43 30.43 0 0 1-5.31 2.52 20.48 20.48 0 0 1-7.41 1.32q-6.24 0-10.07-3T302 81.35V42.92h27.4a16.36 16.36 0 0 0 .53-1.59 7.09 7.09 0 0 0 .26-2 4.7 4.7 0 0 0-1.05-3.11c-.71-.84-2-1.26-3.85-1.26H302V18.14a11.37 11.37 0 0 0-1.65-.59 8.24 8.24 0 0 0-2.32-.34 4.68 4.68 0 0 0-3.65 1.26 4.69 4.69 0 0 0-1.12 3.25v61.09a23.35 23.35 0 0 0 1.26 7.81 16.38 16.38 0 0 0 3.77 6.16 17.31 17.31 0 0 0 6.36 4 25.81 25.81 0 0 0 9.14 1.46 36.17 36.17 0 0 0 6.83-.6 29.05 29.05 0 0 0 5.43-1.52 32.89 32.89 0 0 0 4-1.85 17.49 17.49 0 0 0 2.45-1.59Z" style="fill:#fff"/>
  <path d="M412.33 41.17a35.76 35.76 0 0 0-12.05-8 40 40 0 0 0-15.23-2.86 33.34 33.34 0 0 0-16 4 36 36 0 0 0-6.91 4.82V2l-1.54-.77a14.57 14.57 0 0 0-2.11-.77 11.16 11.16 0 0 0-3.1-.44 7.3 7.3 0 0 0-5.71 2.18 7.4 7.4 0 0 0-1.83 5.09v57.23c0 2.2.07 4.17.2 5.85s.3 3.19.51 4.58A39.88 39.88 0 0 0 353 87.48a33.34 33.34 0 0 0 7.9 9.52 34.73 34.73 0 0 0 10.94 6 41.41 41.41 0 0 0 13.21 2.06 39.28 39.28 0 0 0 15.25-2.93 36 36 0 0 0 19.85-19.93 39.41 39.41 0 0 0 0-29.13 36.68 36.68 0 0 0-7.82-11.9Zm-6 36.12a22.31 22.31 0 0 1-4.56 7.71 22 22 0 0 1-7.19 5.12 23 23 0 0 1-9.53 1.88 23.35 23.35 0 0 1-9.42-1.83 21.78 21.78 0 0 1-7.18-5 22.21 22.21 0 0 1-4.65-7.62 29.19 29.19 0 0 1 0-19.52 23.84 23.84 0 0 1 4.68-7.78 21 21 0 0 1 7.15-5.09 23.41 23.41 0 0 1 9.42-1.82 23.8 23.8 0 0 1 9.56 1.82 20.9 20.9 0 0 1 7.14 5.09 22.87 22.87 0 0 1 4.61 7.75 28.67 28.67 0 0 1 1.64 9.7 28.24 28.24 0 0 1-1.64 9.59Zm99.6-36.13a36.45 36.45 0 0 0-12.1-8 42 42 0 0 0-30.46 0 36.5 36.5 0 0 0-12.11 8A37 37 0 0 0 443.32 53a38.52 38.52 0 0 0 0 29.18 36.91 36.91 0 0 0 7.94 11.88 37.35 37.35 0 0 0 12.09 8 41.15 41.15 0 0 0 30.5 0 37.48 37.48 0 0 0 12.08-61Zm-5.81 36.1a22.49 22.49 0 0 1-4.72 7.68 22.82 22.82 0 0 1-7.33 5.14 24.82 24.82 0 0 1-18.95 0 22.1 22.1 0 0 1-7.24-5.08 23.9 23.9 0 0 1-4.74-7.73 26.3 26.3 0 0 1-1.74-9.53 27.69 27.69 0 0 1 1.68-9.7 23.32 23.32 0 0 1 4.74-7.76 21.5 21.5 0 0 1 7.27-5.11 25.73 25.73 0 0 1 19 0 21.37 21.37 0 0 1 7.28 5.11 23.38 23.38 0 0 1 4.75 7.72 27.77 27.77 0 0 1 1.68 9.7 27.31 27.31 0 0 1-1.68 9.56Zm99.62-36.1a36.45 36.45 0 0 0-12.1-8 42 42 0 0 0-30.46 0 36.5 36.5 0 0 0-12.11 8A37.13 37.13 0 0 0 537.13 53a38.52 38.52 0 0 0 0 29.18 36.81 36.81 0 0 0 7.94 11.88 37.35 37.35 0 0 0 12.09 8 41.15 41.15 0 0 0 30.5 0 37.48 37.48 0 0 0 12.08-61Zm-5.81 36.1a22.16 22.16 0 0 1-12 12.82 24.79 24.79 0 0 1-18.94 0 22.15 22.15 0 0 1-7.3-5.08 23.9 23.9 0 0 1-4.69-7.77 26.3 26.3 0 0 1-1.74-9.53 27.69 27.69 0 0 1 1.68-9.7 23.22 23.22 0 0 1 4.74-7.76 21.54 21.54 0 0 1 7.28-5.11 25.7 25.7 0 0 1 19 0 21.37 21.37 0 0 1 7.28 5.11 23.22 23.22 0 0 1 4.69 7.76 27.77 27.77 0 0 1 1.68 9.7 27.31 27.31 0 0 1-1.68 9.56Zm92.74-9a25.78 25.78 0 0 0-8-4.55 51.68 51.68 0 0 0-11.59-2.61L652 59.38c-3.94-.47-7-1.43-9-2.84a5.57 5.57 0 0 1-2.45-5 6.06 6.06 0 0 1 3.85-6c3.24-1.54 7.78-2.32 13.52-2.32a46.89 46.89 0 0 1 9.5.87 43.3 43.3 0 0 1 7 2 25.93 25.93 0 0 1 4.41 2.2 16.9 16.9 0 0 1 1.9 1.37l1.56 1.56 1.83-1.22a11.47 11.47 0 0 0 2.72-2.43 7.28 7.28 0 0 0 1.64-4.82c0-2-.89-4.9-5.11-7.31a44.07 44.07 0 0 0-9.76-3.44A63.43 63.43 0 0 0 658 30.34 53.57 53.57 0 0 0 643.47 32a28.64 28.64 0 0 0-9.89 4.72 18.31 18.31 0 0 0-5.68 7.11 20.43 20.43 0 0 0-1.68 8.06 18 18 0 0 0 6.64 14.6C637 70 643 72.12 650.67 73l13.92 1.59c7 .8 9.88 2.21 11.09 3.25a6.94 6.94 0 0 1 2.32 5.62 5.9 5.9 0 0 1-1 3.65 9.45 9.45 0 0 1-3.39 2.69 19.73 19.73 0 0 1-5.69 1.73 48.16 48.16 0 0 1-7.51.56 52.36 52.36 0 0 1-9.94-.88 64 64 0 0 1-8-2 48.47 48.47 0 0 1-5.58-2.21c-1.53-.74-2.56-1.25-3.08-1.51l-2.39-1.19-6.15 11.2 1.92 1.5a24.94 24.94 0 0 0 3.47 1.91 45.23 45.23 0 0 0 7.14 2.7 99.12 99.12 0 0 0 10 2.38 68.12 68.12 0 0 0 12.71 1.11 51.21 51.21 0 0 0 13.53-1.62 32.24 32.24 0 0 0 10.08-4.59 20.57 20.57 0 0 0 7.19-24.15 17 17 0 0 0-4.64-6.48Zm62.89 18.96-2.28 1.47a28.69 28.69 0 0 1-4.8 2.26 17.76 17.76 0 0 1-6.42 1.14c-3.5 0-6.31-.82-8.35-2.45-1.86-1.46-2.8-4.26-2.8-8.29V45.69h26.55l.69-1.75c.2-.52.41-1.13.61-1.84a10 10 0 0 0 .38-2.76 7.4 7.4 0 0 0-1.72-4.9c-1.25-1.49-3.26-2.24-6-2.24h-20.51V16.41l-1.55-.76a14.24 14.24 0 0 0-2.1-.77 11.2 11.2 0 0 0-3.09-.44 7.3 7.3 0 0 0-5.71 2.18 7.37 7.37 0 0 0-1.83 5.1v61.09a26.16 26.16 0 0 0 1.37 8.73 19.48 19.48 0 0 0 4.4 7.18 20.38 20.38 0 0 0 7.37 4.7 28.83 28.83 0 0 0 10.12 1.63 39.22 39.22 0 0 0 7.35-.64 33.61 33.61 0 0 0 5.94-1.67 38.13 38.13 0 0 0 4.3-2 19.14 19.14 0 0 0 2.88-1.89l1.91-1.6ZM178.47 166l-7.6-17.88h2.32l6.85 16.6h-.78l6.92-16.6h2.18L180.69 166Zm27.63-2.2a8 8 0 0 1-3 1.8 10.89 10.89 0 0 1-3.75.66 9.37 9.37 0 0 1-4.68-1.11 7.48 7.48 0 0 1-3-3.17 12 12 0 0 1 0-9.86 7.84 7.84 0 0 1 3-3.26 8.18 8.18 0 0 1 4.33-1.16 7.55 7.55 0 0 1 4 1 6.5 6.5 0 0 1 2.57 2.94 11 11 0 0 1 .89 4.68v.46h-13.92v-1.64h12.74l-.82 1.39a8 8 0 0 0-1.3-5.25 5 5 0 0 0-4.16-1.82 5.43 5.43 0 0 0-4.44 2 8.37 8.37 0 0 0-1.63 5.45 8.17 8.17 0 0 0 1.66 5.53 6.06 6.06 0 0 0 4.81 1.89 8.94 8.94 0 0 0 3.08-.53 10 10 0 0 0 2.84-1.68Zm5 2.2v-15.39a24.8 24.8 0 0 0-.24-2.48h2.07l.36 4.28-.36-.07a5.63 5.63 0 0 1 2.2-3.46 6.27 6.27 0 0 1 3.73-1.18h.84c.25 0 .49.06.73.11l-.07 2a6.64 6.64 0 0 0-1.68-.18 4.8 4.8 0 0 0-4.84 3.12 7.68 7.68 0 0 0-.51 2.74V166Zm18.1.26a9.64 9.64 0 0 1-6.89-2.39l.82-1.68a10 10 0 0 0 2.86 1.66 9.56 9.56 0 0 0 3.32.52 6.16 6.16 0 0 0 3.39-.77 2.51 2.51 0 0 0 1.14-2.23 2.45 2.45 0 0 0-.77-1.89 5.59 5.59 0 0 0-2.52-1.14l-3-.72a6.37 6.37 0 0 1-3.37-1.75 4.18 4.18 0 0 1-1.23-3 4.61 4.61 0 0 1 .82-2.73 5.31 5.31 0 0 1 2.3-1.8 8.68 8.68 0 0 1 3.48-.64 10.13 10.13 0 0 1 3.5.6 7 7 0 0 1 2.71 1.75l-.82 1.68a9.31 9.31 0 0 0-2.55-1.6 7.37 7.37 0 0 0-2.84-.54 5.4 5.4 0 0 0-3.21.82 2.62 2.62 0 0 0-1.15 2.25 2.71 2.71 0 0 0 .72 2 4.81 4.81 0 0 0 2.28 1.13l3 .75a7.09 7.09 0 0 1 3.64 1.73 4.12 4.12 0 0 1 1.18 3 4.34 4.34 0 0 1-1.84 3.63 8.2 8.2 0 0 1-4.97 1.36ZM241 166v-15.39a24.82 24.82 0 0 0-.23-2.48h2.07l.32 3.74-.36.36a5.86 5.86 0 0 1 2.47-3.39 7.44 7.44 0 0 1 4.1-1.14q6.46 0 6.46 6.92V166h-2.18v-11.23a5.92 5.92 0 0 0-1.07-3.93 4.27 4.27 0 0 0-3.42-1.25 5.82 5.82 0 0 0-4.31 1.64 6 6 0 0 0-1.62 4.43V166Zm35-2.2a8 8 0 0 1-3 1.8 11 11 0 0 1-3.75.66 9.37 9.37 0 0 1-4.68-1.11 7.43 7.43 0 0 1-3-3.17 10.63 10.63 0 0 1-1.07-5 10.86 10.86 0 0 1 1-4.89 7.78 7.78 0 0 1 3-3.26 8.18 8.18 0 0 1 4.35-1.16 7.55 7.55 0 0 1 4 1 6.56 6.56 0 0 1 2.57 2.94 11.16 11.16 0 0 1 .89 4.68v.46H262.4v-1.64h12.7l-.82 1.39a8 8 0 0 0-1.3-5.25 5 5 0 0 0-4.16-1.82 5.43 5.43 0 0 0-4.44 2 8.32 8.32 0 0 0-1.63 5.45 8.17 8.17 0 0 0 1.66 5.53 6.06 6.06 0 0 0 4.8 1.89 9 9 0 0 0 3.09-.53 10 10 0 0 0 2.84-1.68Zm5 2.2v-26.26h2.18V166Zm5.42-16.12v-1.75h11v1.75ZM297.31 164v2a8.06 8.06 0 0 1-1.09.21 9.28 9.28 0 0 1-1.23.07 5.12 5.12 0 0 1-3.64-1.28 5.2 5.2 0 0 1-1.4-4v-17.62l2.18-.82v17.95a5.33 5.33 0 0 0 .41 2.32 2.36 2.36 0 0 0 1.14 1.15 4.16 4.16 0 0 0 1.66.32 7.12 7.12 0 0 0 1-.07 6.63 6.63 0 0 0 .97-.23Zm17.63 2-6.43-17.88h2.32l5.72 16.63h-.93l6-16.63h2.18l5.85 16.63h-.93l5.89-16.63h2.22L330.36 166h-2.25L322 149.09h1.32l-6.1 16.91Zm25.77-25.26h2.89v2.78h-2.89ZM341 166v-17.87h2.18V166Zm3.32 5.57c.36.09.68.17.95.21a4.43 4.43 0 0 0 .8.08 4 4 0 0 0 1.56-.31 2.24 2.24 0 0 0 1.1-1.11 5.28 5.28 0 0 0 .41-2.33v-20h2.18v20.38a5.35 5.35 0 0 1-1.34 4.05 4.91 4.91 0 0 1-3.51 1.27 9.92 9.92 0 0 1-1.06-.07 8.09 8.09 0 0 1-1.09-.22Zm4.47-30.84h2.89v2.78h-2.89Zm8.49 25.27v-26.26h2.17V166Zm12 0L359 156.87l9.39-8.74h2.89L361 157.55l.07-1.61L372.23 166Zm12.48.26a8 8 0 0 1-4.3-1.14 7.79 7.79 0 0 1-2.87-3.23 11 11 0 0 1-1-4.95 10.85 10.85 0 0 1 1-4.87 7.79 7.79 0 0 1 2.87-3.23 8.76 8.76 0 0 1 8.64 0 7.63 7.63 0 0 1 2.86 3.23 11 11 0 0 1 1 4.87 11.16 11.16 0 0 1-1 4.95 7.63 7.63 0 0 1-2.86 3.23 8 8 0 0 1-4.34 1.14Zm0-1.93a5.37 5.37 0 0 0 4.41-1.89 10.28 10.28 0 0 0 0-10.89 5.29 5.29 0 0 0-4.35-1.92 5.41 5.41 0 0 0-4.41 1.92 10.2 10.2 0 0 0 0 10.89 5.36 5.36 0 0 0 4.35 1.89Zm13 1.67v-12.91c0-.81 0-1.64-.06-2.48a22.18 22.18 0 0 0-.23-2.48h2.07l.32 3.74-.35.36a5.85 5.85 0 0 1 2.46-3.39 7.46 7.46 0 0 1 4.1-1.14q6.46 0 6.47 6.92V166h-2.18v-11.23a6 6 0 0 0-1.07-3.93 4.31 4.31 0 0 0-3.43-1.25 5.8 5.8 0 0 0-4.3 1.64 6 6 0 0 0-1.63 4.43V166Zm17.92-16.12v-1.75h11v1.75ZM423.57 164v2a8.06 8.06 0 0 1-1.09.21 9.33 9.33 0 0 1-1.24.07 5.15 5.15 0 0 1-3.64-1.28 5.23 5.23 0 0 1-1.39-4v-17.62l2.18-.82v17.95a5.33 5.33 0 0 0 .41 2.32 2.32 2.32 0 0 0 1.14 1.15 4.16 4.16 0 0 0 1.66.32 7.12 7.12 0 0 0 1-.07 6.63 6.63 0 0 0 .97-.23Zm8.71 2-6.43-17.88h2.32l5.71 16.63H433l6-16.63h2.17l5.83 16.64h-.93l5.93-16.63h2.21L447.7 166h-2.25l-6.11-16.92h1.32l-6.1 16.92Zm25.77-25.26h2.89v2.78h-2.89Zm.32 25.27v-17.88h2.18V166Zm8.14-.01v-26.26h2.18V166Zm12 0-10.28-9.14 9.39-8.74h2.89l-10.32 9.42.08-1.61L481.46 166Zm5.77 0v-26.26h2.18V166Zm12 0L486 156.87l9.39-8.74h2.89L488 157.55l.07-1.61L499.24 166Zm19.77-2.2a7.88 7.88 0 0 1-3 1.8 10.89 10.89 0 0 1-3.75.66 9.33 9.33 0 0 1-4.67-1.11 7.51 7.51 0 0 1-3-3.17 11.94 11.94 0 0 1 0-9.86 7.82 7.82 0 0 1 2.94-3.26 8.18 8.18 0 0 1 4.35-1.16 7.55 7.55 0 0 1 4 1 6.5 6.5 0 0 1 2.57 2.94 11 11 0 0 1 .9 4.68v.46h-13.9v-1.64h12.71l-.82 1.39a8 8 0 0 0-1.31-5.25 4.94 4.94 0 0 0-4.16-1.82 5.44 5.44 0 0 0-4.44 2 8.37 8.37 0 0 0-1.62 5.45 8.12 8.12 0 0 0 1.66 5.53 6 6 0 0 0 4.8 1.89 9 9 0 0 0 3.09-.53 10 10 0 0 0 2.83-1.68Zm5 2.2v-26.26h2.18V166Zm7.82-25.26h2.89v2.78h-2.89Zm.32 25.27v-17.88h2.18V166Zm8.14-.01v-12.91c0-.81 0-1.64-.05-2.48a24.8 24.8 0 0 0-.24-2.48h2.07l.32 3.74-.35.36a5.85 5.85 0 0 1 2.46-3.39 7.47 7.47 0 0 1 4.11-1.14q6.45 0 6.46 6.92V166h-2.18v-11.23a6 6 0 0 0-1.07-3.93 4.31 4.31 0 0 0-3.43-1.25 5.8 5.8 0 0 0-4.3 1.64 6 6 0 0 0-1.62 4.43V166Zm28.31 8a12.41 12.41 0 0 1-7-1.93l.42-1.89a14.44 14.44 0 0 0 3.15 1.45 12 12 0 0 0 3.42.44 5.26 5.26 0 0 0 4.05-1.46 6 6 0 0 0 1.38-4.28v-5.07l.39-.68a6.82 6.82 0 0 1-1.34 2.66 6.11 6.11 0 0 1-2.25 1.68 7.62 7.62 0 0 1-3.08.58 7.54 7.54 0 0 1-7-4.24 11.15 11.15 0 0 1 0-9.32 7.66 7.66 0 0 1 2.82-3.11 7.92 7.92 0 0 1 4.2-1.1 7.16 7.16 0 0 1 4.33 1.26 6.23 6.23 0 0 1 2.34 3.59l-.43-.57v-3.85h2.18v18q0 3.93-1.93 5.91a7.55 7.55 0 0 1-5.65 1.93Zm-.54-10.46a5.45 5.45 0 0 0 4.37-1.85 8.94 8.94 0 0 0 0-10.18 5.41 5.41 0 0 0-4.37-1.85 5.63 5.63 0 0 0-4.44 1.83 7.47 7.47 0 0 0-1.63 5.13 7.35 7.35 0 0 0 1.63 5.1 5.65 5.65 0 0 0 4.44 1.79Z" style="fill:#03163d"/>
</svg>
