<svg version="1.1" id="Laag_1" xmlns="http://www.w3.org/2000/svg" xmlns:xlink="http://www.w3.org/1999/xlink" x="0" y="0" viewBox="0 0 841.9 595.3" style="enable-background:new 0 0 841.9 595.3" xml:space="preserve">
  <style>
    .st1{fill:#03173d}.st5,.st6{fill:none;stroke:#011520;stroke-width:4;stroke-linejoin:round;stroke-miterlimit:10}.st6{stroke-linecap:round}
  </style>
  <pattern width="1218.9" height="1502.4" patternUnits="userSpaceOnUse" id="stippels" viewBox="3.9 -1502.4 1218.9 1502.4" style="overflow:visible">
    <path style="fill:none" d="M3.9-1502.4h1218.9V0H3.9z"/>
    <circle class="st1" cx="1222.8" cy="-1467.2" r="3.9"/>
    <circle class="st1" cx="1222.8" cy="-1391.9" r="3.9"/>
    <circle class="st1" cx="1222.8" cy="-1316.5" r="3.9"/>
    <circle class="st1" cx="1222.8" cy="-1241.1" r="3.9"/>
    <circle class="st1" cx="1222.8" cy="-1165.7" r="3.9"/>
    <path class="st1" d="M1222.8-1086.4c-2.2 0-3.9-1.8-3.9-3.9 0-2.2 1.8-3.9 3.9-3.9 2.2 0 3.9 1.8 3.9 3.9.1 2.1-1.7 3.9-3.9 3.9z"/>
    <circle class="st1" cx="1222.8" cy="-1015" r="3.9"/>
    <circle class="st1" cx="1222.8" cy="-939.6" r="3.9"/>
    <circle class="st1" cx="1222.8" cy="-864.2" r="3.9"/>
    <circle class="st1" cx="1222.8" cy="-788.9" r="3.9"/>
    <path class="st1" d="M1222.8-709.6c-2.2 0-3.9-1.8-3.9-3.9 0-2.2 1.8-3.9 3.9-3.9 2.2 0 3.9 1.8 3.9 3.9.1 2.2-1.7 3.9-3.9 3.9z"/>
    <circle class="st1" cx="1222.8" cy="-638.1" r="3.9"/>
    <circle class="st1" cx="1222.8" cy="-562.7" r="3.9"/>
    <circle class="st1" cx="1222.8" cy="-487.4" r="3.9"/>
    <circle class="st1" cx="1222.8" cy="-412" r="3.9"/>
    <circle class="st1" cx="1222.8" cy="-336.6" r="3.9"/>
    <circle class="st1" cx="1222.8" cy="-261.2" r="3.9"/>
    <circle class="st1" cx="1222.8" cy="-185.9" r="3.9"/>
    <path class="st1" d="M1222.8-106.6c-2.2 0-3.9-1.8-3.9-3.9 0-2.2 1.8-3.9 3.9-3.9 2.2 0 3.9 1.8 3.9 3.9.1 2.2-1.7 3.9-3.9 3.9z"/>
    <circle class="st1" cx="1222.8" cy="-35.1" r="3.9"/>
    <circle class="st1" cx="1155.3" cy="-1467.2" r="3.9"/>
    <circle class="st1" cx="1155.3" cy="-1391.9" r="3.9"/>
    <circle class="st1" cx="1155.3" cy="-1316.5" r="3.9"/>
    <circle class="st1" cx="1155.3" cy="-1241.1" r="3.9"/>
    <circle class="st1" cx="1155.3" cy="-1165.7" r="3.9"/>
    <path class="st1" d="M1155.3-1086.4c-2.2 0-3.9-1.8-3.9-3.9 0-2.2 1.8-3.9 3.9-3.9 2.2 0 3.9 1.8 3.9 3.9.1 2.1-1.7 3.9-3.9 3.9z"/>
    <circle class="st1" cx="1155.3" cy="-1015" r="3.9"/>
    <circle class="st1" cx="1155.3" cy="-939.6" r="3.9"/>
    <circle class="st1" cx="1155.3" cy="-864.2" r="3.9"/>
    <circle class="st1" cx="1155.3" cy="-788.9" r="3.9"/>
    <path class="st1" d="M1155.3-709.6c-2.2 0-3.9-1.8-3.9-3.9 0-2.2 1.8-3.9 3.9-3.9s3.9 1.8 3.9 3.9c.1 2.2-1.7 3.9-3.9 3.9z"/>
    <circle class="st1" cx="1155.3" cy="-638.1" r="3.9"/>
    <circle class="st1" cx="1155.3" cy="-562.7" r="3.9"/>
    <circle class="st1" cx="1155.3" cy="-487.4" r="3.9"/>
    <circle class="st1" cx="1155.3" cy="-412" r="3.9"/>
    <circle class="st1" cx="1155.3" cy="-336.6" r="3.9"/>
    <circle class="st1" cx="1155.3" cy="-261.2" r="3.9"/>
    <circle class="st1" cx="1155.3" cy="-185.9" r="3.9"/>
    <path class="st1" d="M1155.3-106.6c-2.2 0-3.9-1.8-3.9-3.9 0-2.2 1.8-3.9 3.9-3.9 2.2 0 3.9 1.8 3.9 3.9.1 2.2-1.7 3.9-3.9 3.9z"/>
    <circle class="st1" cx="1155.3" cy="-35.1" r="3.9"/>
    <circle class="st1" cx="1087.8" cy="-1467.2" r="3.9"/>
    <circle class="st1" cx="1087.8" cy="-1391.9" r="3.9"/>
    <circle class="st1" cx="1087.8" cy="-1316.5" r="3.9"/>
    <circle class="st1" cx="1087.8" cy="-1241.1" r="3.9"/>
    <circle class="st1" cx="1087.8" cy="-1165.7" r="3.9"/>
    <path class="st1" d="M1087.8-1086.4c-2.2 0-3.9-1.8-3.9-3.9 0-2.2 1.8-3.9 3.9-3.9 2.2 0 3.9 1.8 3.9 3.9 0 2.1-1.7 3.9-3.9 3.9z"/>
    <circle class="st1" cx="1087.8" cy="-1015" r="3.9"/>
    <circle class="st1" cx="1087.8" cy="-939.6" r="3.9"/>
    <circle class="st1" cx="1087.8" cy="-864.2" r="3.9"/>
    <circle class="st1" cx="1087.8" cy="-788.9" r="3.9"/>
    <path class="st1" d="M1087.8-709.6c-2.2 0-3.9-1.8-3.9-3.9 0-2.2 1.8-3.9 3.9-3.9s3.9 1.8 3.9 3.9c0 2.2-1.7 3.9-3.9 3.9z"/>
    <circle class="st1" cx="1087.8" cy="-638.1" r="3.9"/>
    <circle class="st1" cx="1087.8" cy="-562.7" r="3.9"/>
    <circle class="st1" cx="1087.8" cy="-487.4" r="3.9"/>
    <circle class="st1" cx="1087.8" cy="-412" r="3.9"/>
    <circle class="st1" cx="1087.8" cy="-336.6" r="3.9"/>
    <circle class="st1" cx="1087.8" cy="-261.2" r="3.9"/>
    <circle class="st1" cx="1087.8" cy="-185.9" r="3.9"/>
    <path class="st1" d="M1087.8-106.6c-2.2 0-3.9-1.8-3.9-3.9 0-2.2 1.8-3.9 3.9-3.9 2.2 0 3.9 1.8 3.9 3.9 0 2.2-1.7 3.9-3.9 3.9z"/>
    <circle class="st1" cx="1087.8" cy="-35.1" r="3.9"/>
    <circle class="st1" cx="1020.3" cy="-1467.2" r="3.9"/>
    <circle class="st1" cx="1020.3" cy="-1391.9" r="3.9"/>
    <circle class="st1" cx="1020.3" cy="-1316.5" r="3.9"/>
    <circle class="st1" cx="1020.3" cy="-1241.1" r="3.9"/>
    <circle class="st1" cx="1020.3" cy="-1165.7" r="3.9"/>
    <path class="st1" d="M1020.3-1086.4c-2.2 0-3.9-1.8-3.9-3.9 0-2.2 1.8-3.9 3.9-3.9 2.2 0 3.9 1.8 3.9 3.9 0 2.1-1.7 3.9-3.9 3.9z"/>
    <circle class="st1" cx="1020.3" cy="-1015" r="3.9"/>
    <circle class="st1" cx="1020.3" cy="-939.6" r="3.9"/>
    <circle class="st1" cx="1020.3" cy="-864.2" r="3.9"/>
    <circle class="st1" cx="1020.3" cy="-788.9" r="3.9"/>
    <path class="st1" d="M1020.3-709.6c-2.2 0-3.9-1.8-3.9-3.9 0-2.2 1.8-3.9 3.9-3.9 2.2 0 3.9 1.8 3.9 3.9 0 2.2-1.7 3.9-3.9 3.9z"/>
    <circle class="st1" cx="1020.3" cy="-638.1" r="3.9"/>
    <circle class="st1" cx="1020.3" cy="-562.7" r="3.9"/>
    <circle class="st1" cx="1020.3" cy="-487.4" r="3.9"/>
    <circle class="st1" cx="1020.3" cy="-412" r="3.9"/>
    <circle class="st1" cx="1020.3" cy="-336.6" r="3.9"/>
    <circle class="st1" cx="1020.3" cy="-261.2" r="3.9"/>
    <circle class="st1" cx="1020.3" cy="-185.9" r="3.9"/>
    <path class="st1" d="M1020.3-106.6c-2.2 0-3.9-1.8-3.9-3.9 0-2.2 1.8-3.9 3.9-3.9 2.2 0 3.9 1.8 3.9 3.9 0 2.2-1.7 3.9-3.9 3.9z"/>
    <circle class="st1" cx="1020.3" cy="-35.1" r="3.9"/>
    <circle class="st1" cx="952.8" cy="-1467.2" r="3.9"/>
    <circle class="st1" cx="952.8" cy="-1391.9" r="3.9"/>
    <circle class="st1" cx="952.8" cy="-1316.5" r="3.9"/>
    <circle class="st1" cx="952.8" cy="-1241.1" r="3.9"/>
    <circle class="st1" cx="952.8" cy="-1165.7" r="3.9"/>
    <path class="st1" d="M952.8-1086.4c-2.2 0-3.9-1.8-3.9-3.9 0-2.2 1.8-3.9 3.9-3.9 2.2 0 3.9 1.8 3.9 3.9 0 2.1-1.7 3.9-3.9 3.9z"/>
    <circle class="st1" cx="952.8" cy="-1015" r="3.9"/>
    <circle class="st1" cx="952.8" cy="-939.6" r="3.9"/>
    <circle class="st1" cx="952.8" cy="-864.2" r="3.9"/>
    <circle class="st1" cx="952.8" cy="-788.9" r="3.9"/>
    <path class="st1" d="M952.8-709.6c-2.2 0-3.9-1.8-3.9-3.9 0-2.2 1.8-3.9 3.9-3.9 2.2 0 3.9 1.8 3.9 3.9 0 2.2-1.7 3.9-3.9 3.9z"/>
    <circle class="st1" cx="952.8" cy="-638.1" r="3.9"/>
    <circle class="st1" cx="952.8" cy="-562.7" r="3.9"/>
    <circle class="st1" cx="952.8" cy="-487.4" r="3.9"/>
    <circle class="st1" cx="952.8" cy="-412" r="3.9"/>
    <circle class="st1" cx="952.8" cy="-336.6" r="3.9"/>
    <circle class="st1" cx="952.8" cy="-261.2" r="3.9"/>
    <circle class="st1" cx="952.8" cy="-185.9" r="3.9"/>
    <path class="st1" d="M952.8-106.6c-2.2 0-3.9-1.8-3.9-3.9 0-2.2 1.8-3.9 3.9-3.9 2.2 0 3.9 1.8 3.9 3.9 0 2.2-1.7 3.9-3.9 3.9z"/>
    <circle class="st1" cx="952.8" cy="-35.1" r="3.9"/>
    <circle class="st1" cx="883.4" cy="-1467.2" r="3.9"/>
    <circle class="st1" cx="883.4" cy="-1391.9" r="3.9"/>
    <circle class="st1" cx="883.4" cy="-1316.5" r="3.9"/>
    <circle class="st1" cx="883.4" cy="-1241.1" r="3.9"/>
    <circle class="st1" cx="883.4" cy="-1165.7" r="3.9"/>
    <path class="st1" d="M883.4-1086.4c-2.2 0-3.9-1.8-3.9-3.9 0-2.2 1.8-3.9 3.9-3.9 2.2 0 3.9 1.8 3.9 3.9.1 2.1-1.7 3.9-3.9 3.9z"/>
    <circle class="st1" cx="883.4" cy="-1015" r="3.9"/>
    <circle class="st1" cx="883.4" cy="-939.6" r="3.9"/>
    <circle class="st1" cx="883.4" cy="-864.2" r="3.9"/>
    <circle class="st1" cx="883.4" cy="-788.9" r="3.9"/>
    <path class="st1" d="M883.4-709.6c-2.2 0-3.9-1.8-3.9-3.9 0-2.2 1.8-3.9 3.9-3.9 2.2 0 3.9 1.8 3.9 3.9.1 2.2-1.7 3.9-3.9 3.9z"/>
    <circle class="st1" cx="883.4" cy="-638.1" r="3.9"/>
    <circle class="st1" cx="883.4" cy="-562.7" r="3.9"/>
    <circle class="st1" cx="883.4" cy="-487.4" r="3.9"/>
    <circle class="st1" cx="883.4" cy="-412" r="3.9"/>
    <circle class="st1" cx="883.4" cy="-336.6" r="3.9"/>
    <circle class="st1" cx="883.4" cy="-261.2" r="3.9"/>
    <circle class="st1" cx="883.4" cy="-185.9" r="3.9"/>
    <path class="st1" d="M883.4-106.6c-2.2 0-3.9-1.8-3.9-3.9 0-2.2 1.8-3.9 3.9-3.9 2.2 0 3.9 1.8 3.9 3.9.1 2.2-1.7 3.9-3.9 3.9z"/>
    <circle class="st1" cx="883.4" cy="-35.1" r="3.9"/>
    <circle class="st1" cx="815.9" cy="-1467.2" r="3.9"/>
    <circle class="st1" cx="815.9" cy="-1391.9" r="3.9"/>
    <circle class="st1" cx="815.9" cy="-1316.5" r="3.9"/>
    <circle class="st1" cx="815.9" cy="-1241.1" r="3.9"/>
    <circle class="st1" cx="815.9" cy="-1165.7" r="3.9"/>
    <path class="st1" d="M815.9-1086.4c-2.2 0-3.9-1.8-3.9-3.9 0-2.2 1.8-3.9 3.9-3.9s3.9 1.8 3.9 3.9c0 2.1-1.7 3.9-3.9 3.9z"/>
    <circle class="st1" cx="815.9" cy="-1015" r="3.9"/>
    <circle class="st1" cx="815.9" cy="-939.6" r="3.9"/>
    <circle class="st1" cx="815.9" cy="-864.2" r="3.9"/>
    <circle class="st1" cx="815.9" cy="-788.9" r="3.9"/>
    <path class="st1" d="M815.9-709.6c-2.2 0-3.9-1.8-3.9-3.9 0-2.2 1.8-3.9 3.9-3.9 2.2 0 3.9 1.8 3.9 3.9 0 2.2-1.7 3.9-3.9 3.9z"/>
    <circle class="st1" cx="815.9" cy="-638.1" r="3.9"/>
    <circle class="st1" cx="815.9" cy="-562.7" r="3.9"/>
    <circle class="st1" cx="815.9" cy="-487.4" r="3.9"/>
    <circle class="st1" cx="815.9" cy="-412" r="3.9"/>
    <circle class="st1" cx="815.9" cy="-336.6" r="3.9"/>
    <circle class="st1" cx="815.9" cy="-261.2" r="3.9"/>
    <circle class="st1" cx="815.9" cy="-185.9" r="3.9"/>
    <path class="st1" d="M815.9-106.6c-2.2 0-3.9-1.8-3.9-3.9 0-2.2 1.8-3.9 3.9-3.9 2.2 0 3.9 1.8 3.9 3.9 0 2.2-1.7 3.9-3.9 3.9z"/>
    <circle class="st1" cx="815.9" cy="-35.1" r="3.9"/>
    <circle class="st1" cx="748.4" cy="-1467.2" r="3.9"/>
    <circle class="st1" cx="748.4" cy="-1391.9" r="3.9"/>
    <circle class="st1" cx="748.4" cy="-1316.5" r="3.9"/>
    <circle class="st1" cx="748.4" cy="-1241.1" r="3.9"/>
    <circle class="st1" cx="748.4" cy="-1165.7" r="3.9"/>
    <path class="st1" d="M748.4-1086.4c-2.2 0-3.9-1.8-3.9-3.9 0-2.2 1.8-3.9 3.9-3.9 2.2 0 3.9 1.8 3.9 3.9 0 2.1-1.7 3.9-3.9 3.9z"/>
    <circle class="st1" cx="748.4" cy="-1015" r="3.9"/>
    <circle class="st1" cx="748.4" cy="-939.6" r="3.9"/>
    <circle class="st1" cx="748.4" cy="-864.2" r="3.9"/>
    <circle class="st1" cx="748.4" cy="-788.9" r="3.9"/>
    <path class="st1" d="M748.4-709.6c-2.2 0-3.9-1.8-3.9-3.9 0-2.2 1.8-3.9 3.9-3.9 2.2 0 3.9 1.8 3.9 3.9 0 2.2-1.7 3.9-3.9 3.9z"/>
    <circle class="st1" cx="748.4" cy="-638.1" r="3.9"/>
    <circle class="st1" cx="748.4" cy="-562.7" r="3.9"/>
    <circle class="st1" cx="748.4" cy="-487.4" r="3.9"/>
    <circle class="st1" cx="748.4" cy="-412" r="3.9"/>
    <circle class="st1" cx="748.4" cy="-336.6" r="3.9"/>
    <circle class="st1" cx="748.4" cy="-261.2" r="3.9"/>
    <circle class="st1" cx="748.4" cy="-185.9" r="3.9"/>
    <path class="st1" d="M748.4-106.6c-2.2 0-3.9-1.8-3.9-3.9 0-2.2 1.8-3.9 3.9-3.9 2.2 0 3.9 1.8 3.9 3.9 0 2.2-1.7 3.9-3.9 3.9z"/>
    <circle class="st1" cx="748.4" cy="-35.1" r="3.9"/>
    <circle class="st1" cx="680.9" cy="-1467.2" r="3.9"/>
    <circle class="st1" cx="680.9" cy="-1391.9" r="3.9"/>
    <circle class="st1" cx="680.9" cy="-1316.5" r="3.9"/>
    <circle class="st1" cx="680.9" cy="-1241.1" r="3.9"/>
    <circle class="st1" cx="680.9" cy="-1165.7" r="3.9"/>
    <path class="st1" d="M680.9-1086.4c-2.2 0-3.9-1.8-3.9-3.9 0-2.2 1.8-3.9 3.9-3.9 2.2 0 3.9 1.8 3.9 3.9 0 2.1-1.7 3.9-3.9 3.9z"/>
    <circle class="st1" cx="680.9" cy="-1015" r="3.9"/>
    <circle class="st1" cx="680.9" cy="-939.6" r="3.9"/>
    <circle class="st1" cx="680.9" cy="-864.2" r="3.9"/>
    <circle class="st1" cx="680.9" cy="-788.9" r="3.9"/>
    <path class="st1" d="M680.9-709.6c-2.2 0-3.9-1.8-3.9-3.9 0-2.2 1.8-3.9 3.9-3.9 2.2 0 3.9 1.8 3.9 3.9 0 2.2-1.7 3.9-3.9 3.9z"/>
    <circle class="st1" cx="680.9" cy="-638.1" r="3.9"/>
    <circle class="st1" cx="680.9" cy="-562.7" r="3.9"/>
    <circle class="st1" cx="680.9" cy="-487.4" r="3.9"/>
    <circle class="st1" cx="680.9" cy="-412" r="3.9"/>
    <circle class="st1" cx="680.9" cy="-336.6" r="3.9"/>
    <circle class="st1" cx="680.9" cy="-261.2" r="3.9"/>
    <circle class="st1" cx="680.9" cy="-185.9" r="3.9"/>
    <path class="st1" d="M680.9-106.6c-2.2 0-3.9-1.8-3.9-3.9 0-2.2 1.8-3.9 3.9-3.9 2.2 0 3.9 1.8 3.9 3.9 0 2.2-1.7 3.9-3.9 3.9z"/>
    <circle class="st1" cx="680.9" cy="-35.1" r="3.9"/>
    <circle class="st1" cx="613.4" cy="-1467.2" r="3.9"/>
    <circle class="st1" cx="613.4" cy="-1391.9" r="3.9"/>
    <circle class="st1" cx="613.4" cy="-1316.5" r="3.9"/>
    <circle class="st1" cx="613.4" cy="-1241.1" r="3.9"/>
    <circle class="st1" cx="613.4" cy="-1165.7" r="3.9"/>
    <path class="st1" d="M613.4-1086.4c-2.2 0-3.9-1.8-3.9-3.9 0-2.2 1.8-3.9 3.9-3.9s3.9 1.8 3.9 3.9c0 2.1-1.7 3.9-3.9 3.9z"/>
    <circle class="st1" cx="613.4" cy="-1015" r="3.9"/>
    <circle class="st1" cx="613.4" cy="-939.6" r="3.9"/>
    <circle class="st1" cx="613.4" cy="-864.2" r="3.9"/>
    <circle class="st1" cx="613.4" cy="-788.9" r="3.9"/>
    <path class="st1" d="M613.4-709.6c-2.2 0-3.9-1.8-3.9-3.9 0-2.2 1.8-3.9 3.9-3.9s3.9 1.8 3.9 3.9c0 2.2-1.7 3.9-3.9 3.9z"/>
    <circle class="st1" cx="613.4" cy="-638.1" r="3.9"/>
    <circle class="st1" cx="613.4" cy="-562.7" r="3.9"/>
    <circle class="st1" cx="613.4" cy="-487.4" r="3.9"/>
    <circle class="st1" cx="613.4" cy="-412" r="3.9"/>
    <circle class="st1" cx="613.4" cy="-336.6" r="3.9"/>
    <circle class="st1" cx="613.4" cy="-261.2" r="3.9"/>
    <circle class="st1" cx="613.4" cy="-185.9" r="3.9"/>
    <path class="st1" d="M613.4-106.6c-2.2 0-3.9-1.8-3.9-3.9 0-2.2 1.8-3.9 3.9-3.9 2.2 0 3.9 1.8 3.9 3.9 0 2.2-1.7 3.9-3.9 3.9z"/>
    <circle class="st1" cx="613.4" cy="-35.1" r="3.9"/>
    <circle class="st1" cx="545.9" cy="-1467.2" r="3.9"/>
    <circle class="st1" cx="545.9" cy="-1391.9" r="3.9"/>
    <circle class="st1" cx="545.9" cy="-1316.5" r="3.9"/>
    <circle class="st1" cx="545.9" cy="-1241.1" r="3.9"/>
    <circle class="st1" cx="545.9" cy="-1165.7" r="3.9"/>
    <path class="st1" d="M545.9-1086.4c-2.2 0-3.9-1.8-3.9-3.9 0-2.2 1.8-3.9 3.9-3.9 2.2 0 3.9 1.8 3.9 3.9 0 2.1-1.8 3.9-3.9 3.9z"/>
    <circle class="st1" cx="545.9" cy="-1015" r="3.9"/>
    <circle class="st1" cx="545.9" cy="-939.6" r="3.9"/>
    <circle class="st1" cx="545.9" cy="-864.2" r="3.9"/>
    <circle class="st1" cx="545.9" cy="-788.9" r="3.9"/>
    <path class="st1" d="M545.9-709.6c-2.2 0-3.9-1.8-3.9-3.9 0-2.2 1.8-3.9 3.9-3.9 2.2 0 3.9 1.8 3.9 3.9 0 2.2-1.8 3.9-3.9 3.9z"/>
    <circle class="st1" cx="545.9" cy="-638.1" r="3.9"/>
    <circle class="st1" cx="545.9" cy="-562.7" r="3.9"/>
    <circle class="st1" cx="545.9" cy="-487.4" r="3.9"/>
    <circle class="st1" cx="545.9" cy="-412" r="3.9"/>
    <circle class="st1" cx="545.9" cy="-336.6" r="3.9"/>
    <circle class="st1" cx="545.9" cy="-261.2" r="3.9"/>
    <circle class="st1" cx="545.9" cy="-185.9" r="3.9"/>
    <path class="st1" d="M545.9-106.6c-2.2 0-3.9-1.8-3.9-3.9 0-2.2 1.8-3.9 3.9-3.9 2.2 0 3.9 1.8 3.9 3.9 0 2.2-1.8 3.9-3.9 3.9z"/>
    <circle class="st1" cx="545.9" cy="-35.1" r="3.9"/>
    <circle class="st1" cx="478.4" cy="-1467.2" r="3.9"/>
    <circle class="st1" cx="478.4" cy="-1391.9" r="3.9"/>
    <circle class="st1" cx="478.4" cy="-1316.5" r="3.9"/>
    <circle class="st1" cx="478.4" cy="-1241.1" r="3.9"/>
    <circle class="st1" cx="478.4" cy="-1165.7" r="3.9"/>
    <path class="st1" d="M478.4-1086.4c-2.2 0-3.9-1.8-3.9-3.9 0-2.2 1.8-3.9 3.9-3.9s3.9 1.8 3.9 3.9c0 2.1-1.8 3.9-3.9 3.9z"/>
    <circle class="st1" cx="478.4" cy="-1015" r="3.9"/>
    <circle class="st1" cx="478.4" cy="-939.6" r="3.9"/>
    <circle class="st1" cx="478.4" cy="-864.2" r="3.9"/>
    <circle class="st1" cx="478.4" cy="-788.9" r="3.9"/>
    <path class="st1" d="M478.4-709.6c-2.2 0-3.9-1.8-3.9-3.9 0-2.2 1.8-3.9 3.9-3.9s3.9 1.8 3.9 3.9c0 2.2-1.8 3.9-3.9 3.9z"/>
    <circle class="st1" cx="478.4" cy="-638.1" r="3.9"/>
    <circle class="st1" cx="478.4" cy="-562.7" r="3.9"/>
    <circle class="st1" cx="478.4" cy="-487.4" r="3.9"/>
    <circle class="st1" cx="478.4" cy="-412" r="3.9"/>
    <circle class="st1" cx="478.4" cy="-336.6" r="3.9"/>
    <circle class="st1" cx="478.4" cy="-261.2" r="3.9"/>
    <circle class="st1" cx="478.4" cy="-185.9" r="3.9"/>
    <path class="st1" d="M478.4-106.6c-2.2 0-3.9-1.8-3.9-3.9 0-2.2 1.8-3.9 3.9-3.9s3.9 1.8 3.9 3.9c0 2.2-1.8 3.9-3.9 3.9z"/>
    <circle class="st1" cx="478.4" cy="-35.1" r="3.9"/>
    <circle class="st1" cx="410.9" cy="-1467.2" r="3.9"/>
    <circle class="st1" cx="410.9" cy="-1391.9" r="3.9"/>
    <circle class="st1" cx="410.9" cy="-1316.5" r="3.9"/>
    <circle class="st1" cx="410.9" cy="-1241.1" r="3.9"/>
    <circle class="st1" cx="410.9" cy="-1165.7" r="3.9"/>
    <path class="st1" d="M410.9-1086.4c-2.2 0-3.9-1.8-3.9-3.9 0-2.2 1.8-3.9 3.9-3.9s3.9 1.8 3.9 3.9c0 2.1-1.8 3.9-3.9 3.9z"/>
    <circle class="st1" cx="410.9" cy="-1015" r="3.9"/>
    <circle class="st1" cx="410.9" cy="-939.6" r="3.9"/>
    <circle class="st1" cx="410.9" cy="-864.2" r="3.9"/>
    <circle class="st1" cx="410.9" cy="-788.9" r="3.9"/>
    <path class="st1" d="M410.9-709.6c-2.2 0-3.9-1.8-3.9-3.9 0-2.2 1.8-3.9 3.9-3.9 2.2 0 3.9 1.8 3.9 3.9 0 2.2-1.8 3.9-3.9 3.9z"/>
    <circle class="st1" cx="410.9" cy="-638.1" r="3.9"/>
    <circle class="st1" cx="410.9" cy="-562.7" r="3.9"/>
    <circle class="st1" cx="410.9" cy="-487.4" r="3.9"/>
    <circle class="st1" cx="410.9" cy="-412" r="3.9"/>
    <circle class="st1" cx="410.9" cy="-336.6" r="3.9"/>
    <circle class="st1" cx="410.9" cy="-261.2" r="3.9"/>
    <circle class="st1" cx="410.9" cy="-185.9" r="3.9"/>
    <path class="st1" d="M410.9-106.6c-2.2 0-3.9-1.8-3.9-3.9 0-2.2 1.8-3.9 3.9-3.9s3.9 1.8 3.9 3.9c0 2.2-1.8 3.9-3.9 3.9z"/>
    <circle class="st1" cx="410.9" cy="-35.1" r="3.9"/>
    <circle class="st1" cx="343.3" cy="-1467.2" r="3.9"/>
    <circle class="st1" cx="343.3" cy="-1391.9" r="3.9"/>
    <circle class="st1" cx="343.3" cy="-1316.5" r="3.9"/>
    <circle class="st1" cx="343.3" cy="-1241.1" r="3.9"/>
    <circle class="st1" cx="343.3" cy="-1165.7" r="3.9"/>
    <path class="st1" d="M343.3-1086.4c-2.2 0-3.9-1.8-3.9-3.9 0-2.2 1.8-3.9 3.9-3.9s3.9 1.8 3.9 3.9c.1 2.1-1.7 3.9-3.9 3.9z"/>
    <circle class="st1" cx="343.3" cy="-1015" r="3.9"/>
    <circle class="st1" cx="343.3" cy="-939.6" r="3.9"/>
    <circle class="st1" cx="343.3" cy="-864.2" r="3.9"/>
    <circle class="st1" cx="343.3" cy="-788.9" r="3.9"/>
    <path class="st1" d="M343.3-709.6c-2.2 0-3.9-1.8-3.9-3.9 0-2.2 1.8-3.9 3.9-3.9s3.9 1.8 3.9 3.9c.1 2.2-1.7 3.9-3.9 3.9z"/>
    <circle class="st1" cx="343.3" cy="-638.1" r="3.9"/>
    <circle class="st1" cx="343.3" cy="-562.7" r="3.9"/>
    <circle class="st1" cx="343.3" cy="-487.4" r="3.9"/>
    <circle class="st1" cx="343.3" cy="-412" r="3.9"/>
    <circle class="st1" cx="343.3" cy="-336.6" r="3.9"/>
    <circle class="st1" cx="343.3" cy="-261.2" r="3.9"/>
    <circle class="st1" cx="343.3" cy="-185.9" r="3.9"/>
    <path class="st1" d="M343.3-106.6c-2.2 0-3.9-1.8-3.9-3.9 0-2.2 1.8-3.9 3.9-3.9 2.2 0 3.9 1.8 3.9 3.9.1 2.2-1.7 3.9-3.9 3.9z"/>
    <circle class="st1" cx="343.3" cy="-35.1" r="3.9"/>
    <circle class="st1" cx="274" cy="-1467.2" r="3.9"/>
    <circle class="st1" cx="274" cy="-1391.9" r="3.9"/>
    <circle class="st1" cx="274" cy="-1316.5" r="3.9"/>
    <circle class="st1" cx="274" cy="-1241.1" r="3.9"/>
    <circle class="st1" cx="274" cy="-1165.7" r="3.9"/>
    <path class="st1" d="M274-1086.4c-2.2 0-3.9-1.8-3.9-3.9 0-2.2 1.8-3.9 3.9-3.9s3.9 1.8 3.9 3.9c0 2.1-1.8 3.9-3.9 3.9z"/>
    <circle class="st1" cx="274" cy="-1015" r="3.9"/>
    <circle class="st1" cx="274" cy="-939.6" r="3.9"/>
    <circle class="st1" cx="274" cy="-864.2" r="3.9"/>
    <circle class="st1" cx="274" cy="-788.9" r="3.9"/>
    <path class="st1" d="M274-709.6c-2.2 0-3.9-1.8-3.9-3.9 0-2.2 1.8-3.9 3.9-3.9s3.9 1.8 3.9 3.9c0 2.2-1.8 3.9-3.9 3.9z"/>
    <circle class="st1" cx="274" cy="-638.1" r="3.9"/>
    <circle class="st1" cx="274" cy="-562.7" r="3.9"/>
    <circle class="st1" cx="274" cy="-487.4" r="3.9"/>
    <circle class="st1" cx="274" cy="-412" r="3.9"/>
    <circle class="st1" cx="274" cy="-336.6" r="3.9"/>
    <circle class="st1" cx="274" cy="-261.2" r="3.9"/>
    <circle class="st1" cx="274" cy="-185.9" r="3.9"/>
    <path class="st1" d="M274-106.6c-2.2 0-3.9-1.8-3.9-3.9 0-2.2 1.8-3.9 3.9-3.9s3.9 1.8 3.9 3.9c0 2.2-1.8 3.9-3.9 3.9z"/>
    <circle class="st1" cx="274" cy="-35.1" r="3.9"/>
    <circle class="st1" cx="206.5" cy="-1467.2" r="3.9"/>
    <circle class="st1" cx="206.5" cy="-1391.9" r="3.9"/>
    <circle class="st1" cx="206.5" cy="-1316.5" r="3.9"/>
    <circle class="st1" cx="206.5" cy="-1241.1" r="3.9"/>
    <circle class="st1" cx="206.5" cy="-1165.7" r="3.9"/>
    <path class="st1" d="M206.5-1086.4c-2.2 0-3.9-1.8-3.9-3.9 0-2.2 1.8-3.9 3.9-3.9s3.9 1.8 3.9 3.9c0 2.1-1.8 3.9-3.9 3.9z"/>
    <circle class="st1" cx="206.5" cy="-1015" r="3.9"/>
    <circle class="st1" cx="206.5" cy="-939.6" r="3.9"/>
    <circle class="st1" cx="206.5" cy="-864.2" r="3.9"/>
    <circle class="st1" cx="206.5" cy="-788.9" r="3.9"/>
    <path class="st1" d="M206.5-709.6c-2.2 0-3.9-1.8-3.9-3.9 0-2.2 1.8-3.9 3.9-3.9s3.9 1.8 3.9 3.9c0 2.2-1.8 3.9-3.9 3.9z"/>
    <circle class="st1" cx="206.5" cy="-638.1" r="3.9"/>
    <circle class="st1" cx="206.5" cy="-562.7" r="3.9"/>
    <circle class="st1" cx="206.5" cy="-487.4" r="3.9"/>
    <circle class="st1" cx="206.5" cy="-412" r="3.9"/>
    <circle class="st1" cx="206.5" cy="-336.6" r="3.9"/>
    <circle class="st1" cx="206.5" cy="-261.2" r="3.9"/>
    <circle class="st1" cx="206.5" cy="-185.9" r="3.9"/>
    <path class="st1" d="M206.5-106.6c-2.2 0-3.9-1.8-3.9-3.9 0-2.2 1.8-3.9 3.9-3.9 2.2 0 3.9 1.8 3.9 3.9 0 2.2-1.8 3.9-3.9 3.9z"/>
    <circle class="st1" cx="206.5" cy="-35.1" r="3.9"/>
    <circle class="st1" cx="139" cy="-1467.2" r="3.9"/>
    <circle class="st1" cx="139" cy="-1391.9" r="3.9"/>
    <circle class="st1" cx="139" cy="-1316.5" r="3.9"/>
    <circle class="st1" cx="139" cy="-1241.1" r="3.9"/>
    <circle class="st1" cx="139" cy="-1165.7" r="3.9"/>
    <path class="st1" d="M139-1086.4c-2.2 0-3.9-1.8-3.9-3.9 0-2.2 1.8-3.9 3.9-3.9s3.9 1.8 3.9 3.9c0 2.1-1.8 3.9-3.9 3.9z"/>
    <circle class="st1" cx="139" cy="-1015" r="3.9"/>
    <circle class="st1" cx="139" cy="-939.6" r="3.9"/>
    <circle class="st1" cx="139" cy="-864.2" r="3.9"/>
    <circle class="st1" cx="139" cy="-788.9" r="3.9"/>
    <path class="st1" d="M139-709.6c-2.2 0-3.9-1.8-3.9-3.9 0-2.2 1.8-3.9 3.9-3.9s3.9 1.8 3.9 3.9c0 2.2-1.8 3.9-3.9 3.9z"/>
    <circle class="st1" cx="139" cy="-638.1" r="3.9"/>
    <circle class="st1" cx="139" cy="-562.7" r="3.9"/>
    <circle class="st1" cx="139" cy="-487.4" r="3.9"/>
    <circle class="st1" cx="139" cy="-412" r="3.9"/>
    <circle class="st1" cx="139" cy="-336.6" r="3.9"/>
    <circle class="st1" cx="139" cy="-261.2" r="3.9"/>
    <circle class="st1" cx="139" cy="-185.9" r="3.9"/>
    <path class="st1" d="M139-106.6c-2.2 0-3.9-1.8-3.9-3.9 0-2.2 1.8-3.9 3.9-3.9s3.9 1.8 3.9 3.9c0 2.2-1.8 3.9-3.9 3.9z"/>
    <circle class="st1" cx="139" cy="-35.1" r="3.9"/>
    <circle class="st1" cx="71.4" cy="-1467.2" r="3.9"/>
    <circle class="st1" cx="71.4" cy="-1391.9" r="3.9"/>
    <circle class="st1" cx="71.4" cy="-1316.5" r="3.9"/>
    <circle class="st1" cx="71.4" cy="-1241.1" r="3.9"/>
    <circle class="st1" cx="71.4" cy="-1165.7" r="3.9"/>
    <path class="st1" d="M71.4-1086.4c-2.2 0-3.9-1.8-3.9-3.9 0-2.2 1.8-3.9 3.9-3.9s3.9 1.8 3.9 3.9c.1 2.1-1.7 3.9-3.9 3.9z"/>
    <circle class="st1" cx="71.4" cy="-1015" r="3.9"/>
    <circle class="st1" cx="71.4" cy="-939.6" r="3.9"/>
    <circle class="st1" cx="71.4" cy="-864.2" r="3.9"/>
    <circle class="st1" cx="71.4" cy="-788.9" r="3.9"/>
    <path class="st1" d="M71.4-709.6c-2.2 0-3.9-1.8-3.9-3.9 0-2.2 1.8-3.9 3.9-3.9s3.9 1.8 3.9 3.9c.1 2.2-1.7 3.9-3.9 3.9z"/>
    <circle class="st1" cx="71.4" cy="-638.1" r="3.9"/>
    <circle class="st1" cx="71.4" cy="-562.7" r="3.9"/>
    <circle class="st1" cx="71.4" cy="-487.4" r="3.9"/>
    <circle class="st1" cx="71.4" cy="-412" r="3.9"/>
    <circle class="st1" cx="71.4" cy="-336.6" r="3.9"/>
    <circle class="st1" cx="71.4" cy="-261.2" r="3.9"/>
    <circle class="st1" cx="71.4" cy="-185.9" r="3.9"/>
    <path class="st1" d="M71.4-106.6c-2.2 0-3.9-1.8-3.9-3.9 0-2.2 1.8-3.9 3.9-3.9s3.9 1.8 3.9 3.9c.1 2.2-1.7 3.9-3.9 3.9z"/>
    <circle class="st1" cx="71.4" cy="-35.1" r="3.9"/>
    <circle class="st1" cx="3.9" cy="-1467.2" r="3.9"/>
    <circle class="st1" cx="3.9" cy="-1391.9" r="3.9"/>
    <circle class="st1" cx="3.9" cy="-1316.5" r="3.9"/>
    <circle class="st1" cx="3.9" cy="-1241.1" r="3.9"/>
    <circle class="st1" cx="3.9" cy="-1165.7" r="3.9"/>
    <path class="st1" d="M3.9-1086.4c-2.2 0-3.9-1.8-3.9-3.9 0-2.2 1.8-3.9 3.9-3.9 2.2 0 3.9 1.8 3.9 3.9.1 2.1-1.7 3.9-3.9 3.9z"/>
    <circle class="st1" cx="3.9" cy="-1015" r="3.9"/>
    <circle class="st1" cx="3.9" cy="-939.6" r="3.9"/>
    <circle class="st1" cx="3.9" cy="-864.2" r="3.9"/>
    <circle class="st1" cx="3.9" cy="-788.9" r="3.9"/>
    <path class="st1" d="M3.9-709.6c-2.2 0-3.9-1.8-3.9-3.9 0-2.2 1.8-3.9 3.9-3.9 2.2 0 3.9 1.8 3.9 3.9.1 2.2-1.7 3.9-3.9 3.9z"/>
    <circle class="st1" cx="3.9" cy="-638.1" r="3.9"/>
    <circle class="st1" cx="3.9" cy="-562.7" r="3.9"/>
    <circle class="st1" cx="3.9" cy="-487.4" r="3.9"/>
    <circle class="st1" cx="3.9" cy="-412" r="3.9"/>
    <circle class="st1" cx="3.9" cy="-336.6" r="3.9"/>
    <circle class="st1" cx="3.9" cy="-261.2" r="3.9"/>
    <circle class="st1" cx="3.9" cy="-185.9" r="3.9"/>
    <path class="st1" d="M3.9-106.6c-2.2 0-3.9-1.8-3.9-3.9 0-2.2 1.8-3.9 3.9-3.9 2.2 0 3.9 1.8 3.9 3.9.1 2.2-1.7 3.9-3.9 3.9z"/>
    <circle class="st1" cx="3.9" cy="-35.1" r="3.9"/>
  </pattern>
  <pattern id="SVGID_1_" xlink:href="#stippels" patternTransform="translate(-5898.981 -4791.624) scale(.4362)"/>
  <path style="fill:url(#SVGID_1_)" d="M112.3 143.1h361.4V541H112.3z"/>
  <circle cx="380.6" cy="199.7" r="121.5" style="fill:none;stroke:#99d1cc;stroke-width:4;stroke-miterlimit:10"/>
  <circle cx="546.8" cy="315.4" r="182.1" style="fill:#ffde42"/>
  <path class="st5" d="M553.6 289.5v-22.1c0-.7.3-1.3.7-1.8.5-.5 1.1-.7 1.8-.7h68.7c1.4 0 2.5 1.1 2.5 2.5v131.3m-73.7 0v-56.6"/>
  <path class="st5" d="M568.4 265.3c0-12.2 9.9-22 22-22 12.2 0 22 9.9 22 22"/>
  <path class="st6" d="M590.5 241.5V225"/>
  <path class="st5" d="M568.7 282.3h14.9v14.3h-14.9zm28.7 0h14.9v14.3h-14.9zm-25.3 28.3h11.5v14.3h-15.9m29.7-14.3h14.9v14.3h-14.9zm-28.7 56.6h14.9v14.3h-14.9zm28.7 0h14.9v14.3h-14.9zm-28.7-28.3h14.9v14.3h-14.9zm28.7 0h14.9v14.3h-14.9zM518 400l-6.9-41.9c14.8-4.9 43.6-22.1 51.2-41.7 2.2-5.6 4-11.1-3.2-15.8-7-4.6-13 1.9-16.1 5.8-10.5 13.5-25.7 21.7-41 26l-11.4 15.7-21.9-10.6c-17.6 3.6-27.8 13.5-25.8 31.2l5.3 31.3m22.7-28.1 4 26.8m-22.3-94c.4 3.8 1.6 7.6 3.8 11.1 7.5 11.7 23 15.1 34.7 7.6 10.7-6.8 14.4-20.4 9.3-31.6m1.9-1.5c-4.6-16.4-19.6-24.6-33.8-20.8-2.6.7-5 1.8-7.1 3.1-10.4 6.7-14.7 20.3-11.5 30.7"/>
  <path class="st6" d="m448.1 304.5 63.1-17.1"/>
</svg>
