<svg version="1.1" id="Laag_1" xmlns="http://www.w3.org/2000/svg" xmlns:xlink="http://www.w3.org/1999/xlink" x="0" y="0" viewBox="0 0 841.9 595.3" style="enable-background:new 0 0 841.9 595.3" xml:space="preserve">
  <style>
    .st1{fill:#03173d}.st5{fill:none;stroke:#03173d;stroke-width:4;stroke-linejoin:round;stroke-miterlimit:10}
  </style>
  <pattern width="1218.9" height="1502.4" patternUnits="userSpaceOnUse" id="stippels" viewBox="3.9 -1502.4 1218.9 1502.4" style="overflow:visible">
    <path style="fill:none" d="M3.9-1502.4h1218.9V0H3.9z"/>
    <circle class="st1" cx="1222.8" cy="-1467.2" r="3.9"/>
    <circle class="st1" cx="1222.8" cy="-1391.9" r="3.9"/>
    <circle class="st1" cx="1222.8" cy="-1316.5" r="3.9"/>
    <circle class="st1" cx="1222.8" cy="-1241.1" r="3.9"/>
    <circle class="st1" cx="1222.8" cy="-1165.7" r="3.9"/>
    <path class="st1" d="M1222.8-1086.4c-2.2 0-3.9-1.8-3.9-3.9 0-2.2 1.8-3.9 3.9-3.9 2.2 0 3.9 1.8 3.9 3.9.1 2.1-1.7 3.9-3.9 3.9z"/>
    <circle class="st1" cx="1222.8" cy="-1015" r="3.9"/>
    <circle class="st1" cx="1222.8" cy="-939.6" r="3.9"/>
    <circle class="st1" cx="1222.8" cy="-864.2" r="3.9"/>
    <circle class="st1" cx="1222.8" cy="-788.9" r="3.9"/>
    <path class="st1" d="M1222.8-709.6c-2.2 0-3.9-1.8-3.9-3.9 0-2.2 1.8-3.9 3.9-3.9 2.2 0 3.9 1.8 3.9 3.9.1 2.2-1.7 3.9-3.9 3.9z"/>
    <circle class="st1" cx="1222.8" cy="-638.1" r="3.9"/>
    <circle class="st1" cx="1222.8" cy="-562.7" r="3.9"/>
    <circle class="st1" cx="1222.8" cy="-487.4" r="3.9"/>
    <circle class="st1" cx="1222.8" cy="-412" r="3.9"/>
    <circle class="st1" cx="1222.8" cy="-336.6" r="3.9"/>
    <circle class="st1" cx="1222.8" cy="-261.2" r="3.9"/>
    <circle class="st1" cx="1222.8" cy="-185.9" r="3.9"/>
    <path class="st1" d="M1222.8-106.6c-2.2 0-3.9-1.8-3.9-3.9 0-2.2 1.8-3.9 3.9-3.9 2.2 0 3.9 1.8 3.9 3.9.1 2.2-1.7 3.9-3.9 3.9z"/>
    <circle class="st1" cx="1222.8" cy="-35.1" r="3.9"/>
    <circle class="st1" cx="1155.3" cy="-1467.2" r="3.9"/>
    <circle class="st1" cx="1155.3" cy="-1391.9" r="3.9"/>
    <circle class="st1" cx="1155.3" cy="-1316.5" r="3.9"/>
    <circle class="st1" cx="1155.3" cy="-1241.1" r="3.9"/>
    <circle class="st1" cx="1155.3" cy="-1165.7" r="3.9"/>
    <path class="st1" d="M1155.3-1086.4c-2.2 0-3.9-1.8-3.9-3.9 0-2.2 1.8-3.9 3.9-3.9 2.2 0 3.9 1.8 3.9 3.9.1 2.1-1.7 3.9-3.9 3.9z"/>
    <circle class="st1" cx="1155.3" cy="-1015" r="3.9"/>
    <circle class="st1" cx="1155.3" cy="-939.6" r="3.9"/>
    <circle class="st1" cx="1155.3" cy="-864.2" r="3.9"/>
    <circle class="st1" cx="1155.3" cy="-788.9" r="3.9"/>
    <path class="st1" d="M1155.3-709.6c-2.2 0-3.9-1.8-3.9-3.9 0-2.2 1.8-3.9 3.9-3.9s3.9 1.8 3.9 3.9c.1 2.2-1.7 3.9-3.9 3.9z"/>
    <circle class="st1" cx="1155.3" cy="-638.1" r="3.9"/>
    <circle class="st1" cx="1155.3" cy="-562.7" r="3.9"/>
    <circle class="st1" cx="1155.3" cy="-487.4" r="3.9"/>
    <circle class="st1" cx="1155.3" cy="-412" r="3.9"/>
    <circle class="st1" cx="1155.3" cy="-336.6" r="3.9"/>
    <circle class="st1" cx="1155.3" cy="-261.2" r="3.9"/>
    <circle class="st1" cx="1155.3" cy="-185.9" r="3.9"/>
    <path class="st1" d="M1155.3-106.6c-2.2 0-3.9-1.8-3.9-3.9 0-2.2 1.8-3.9 3.9-3.9 2.2 0 3.9 1.8 3.9 3.9.1 2.2-1.7 3.9-3.9 3.9z"/>
    <circle class="st1" cx="1155.3" cy="-35.1" r="3.9"/>
    <circle class="st1" cx="1087.8" cy="-1467.2" r="3.9"/>
    <circle class="st1" cx="1087.8" cy="-1391.9" r="3.9"/>
    <circle class="st1" cx="1087.8" cy="-1316.5" r="3.9"/>
    <circle class="st1" cx="1087.8" cy="-1241.1" r="3.9"/>
    <circle class="st1" cx="1087.8" cy="-1165.7" r="3.9"/>
    <path class="st1" d="M1087.8-1086.4c-2.2 0-3.9-1.8-3.9-3.9 0-2.2 1.8-3.9 3.9-3.9 2.2 0 3.9 1.8 3.9 3.9 0 2.1-1.7 3.9-3.9 3.9z"/>
    <circle class="st1" cx="1087.8" cy="-1015" r="3.9"/>
    <circle class="st1" cx="1087.8" cy="-939.6" r="3.9"/>
    <circle class="st1" cx="1087.8" cy="-864.2" r="3.9"/>
    <circle class="st1" cx="1087.8" cy="-788.9" r="3.9"/>
    <path class="st1" d="M1087.8-709.6c-2.2 0-3.9-1.8-3.9-3.9 0-2.2 1.8-3.9 3.9-3.9s3.9 1.8 3.9 3.9c0 2.2-1.7 3.9-3.9 3.9z"/>
    <circle class="st1" cx="1087.8" cy="-638.1" r="3.9"/>
    <circle class="st1" cx="1087.8" cy="-562.7" r="3.9"/>
    <circle class="st1" cx="1087.8" cy="-487.4" r="3.9"/>
    <circle class="st1" cx="1087.8" cy="-412" r="3.9"/>
    <circle class="st1" cx="1087.8" cy="-336.6" r="3.9"/>
    <circle class="st1" cx="1087.8" cy="-261.2" r="3.9"/>
    <circle class="st1" cx="1087.8" cy="-185.9" r="3.9"/>
    <path class="st1" d="M1087.8-106.6c-2.2 0-3.9-1.8-3.9-3.9 0-2.2 1.8-3.9 3.9-3.9 2.2 0 3.9 1.8 3.9 3.9 0 2.2-1.7 3.9-3.9 3.9z"/>
    <circle class="st1" cx="1087.8" cy="-35.1" r="3.9"/>
    <circle class="st1" cx="1020.3" cy="-1467.2" r="3.9"/>
    <circle class="st1" cx="1020.3" cy="-1391.9" r="3.9"/>
    <circle class="st1" cx="1020.3" cy="-1316.5" r="3.9"/>
    <circle class="st1" cx="1020.3" cy="-1241.1" r="3.9"/>
    <circle class="st1" cx="1020.3" cy="-1165.7" r="3.9"/>
    <path class="st1" d="M1020.3-1086.4c-2.2 0-3.9-1.8-3.9-3.9 0-2.2 1.8-3.9 3.9-3.9 2.2 0 3.9 1.8 3.9 3.9 0 2.1-1.7 3.9-3.9 3.9z"/>
    <circle class="st1" cx="1020.3" cy="-1015" r="3.9"/>
    <circle class="st1" cx="1020.3" cy="-939.6" r="3.9"/>
    <circle class="st1" cx="1020.3" cy="-864.2" r="3.9"/>
    <circle class="st1" cx="1020.3" cy="-788.9" r="3.9"/>
    <path class="st1" d="M1020.3-709.6c-2.2 0-3.9-1.8-3.9-3.9 0-2.2 1.8-3.9 3.9-3.9 2.2 0 3.9 1.8 3.9 3.9 0 2.2-1.7 3.9-3.9 3.9z"/>
    <circle class="st1" cx="1020.3" cy="-638.1" r="3.9"/>
    <circle class="st1" cx="1020.3" cy="-562.7" r="3.9"/>
    <circle class="st1" cx="1020.3" cy="-487.4" r="3.9"/>
    <circle class="st1" cx="1020.3" cy="-412" r="3.9"/>
    <circle class="st1" cx="1020.3" cy="-336.6" r="3.9"/>
    <circle class="st1" cx="1020.3" cy="-261.2" r="3.9"/>
    <circle class="st1" cx="1020.3" cy="-185.9" r="3.9"/>
    <path class="st1" d="M1020.3-106.6c-2.2 0-3.9-1.8-3.9-3.9 0-2.2 1.8-3.9 3.9-3.9 2.2 0 3.9 1.8 3.9 3.9 0 2.2-1.7 3.9-3.9 3.9z"/>
    <circle class="st1" cx="1020.3" cy="-35.1" r="3.9"/>
    <circle class="st1" cx="952.8" cy="-1467.2" r="3.9"/>
    <circle class="st1" cx="952.8" cy="-1391.9" r="3.9"/>
    <circle class="st1" cx="952.8" cy="-1316.5" r="3.9"/>
    <circle class="st1" cx="952.8" cy="-1241.1" r="3.9"/>
    <circle class="st1" cx="952.8" cy="-1165.7" r="3.9"/>
    <path class="st1" d="M952.8-1086.4c-2.2 0-3.9-1.8-3.9-3.9 0-2.2 1.8-3.9 3.9-3.9 2.2 0 3.9 1.8 3.9 3.9 0 2.1-1.7 3.9-3.9 3.9z"/>
    <circle class="st1" cx="952.8" cy="-1015" r="3.9"/>
    <circle class="st1" cx="952.8" cy="-939.6" r="3.9"/>
    <circle class="st1" cx="952.8" cy="-864.2" r="3.9"/>
    <circle class="st1" cx="952.8" cy="-788.9" r="3.9"/>
    <path class="st1" d="M952.8-709.6c-2.2 0-3.9-1.8-3.9-3.9 0-2.2 1.8-3.9 3.9-3.9 2.2 0 3.9 1.8 3.9 3.9 0 2.2-1.7 3.9-3.9 3.9z"/>
    <circle class="st1" cx="952.8" cy="-638.1" r="3.9"/>
    <circle class="st1" cx="952.8" cy="-562.7" r="3.9"/>
    <circle class="st1" cx="952.8" cy="-487.4" r="3.9"/>
    <circle class="st1" cx="952.8" cy="-412" r="3.9"/>
    <circle class="st1" cx="952.8" cy="-336.6" r="3.9"/>
    <circle class="st1" cx="952.8" cy="-261.2" r="3.9"/>
    <circle class="st1" cx="952.8" cy="-185.9" r="3.9"/>
    <path class="st1" d="M952.8-106.6c-2.2 0-3.9-1.8-3.9-3.9 0-2.2 1.8-3.9 3.9-3.9 2.2 0 3.9 1.8 3.9 3.9 0 2.2-1.7 3.9-3.9 3.9z"/>
    <circle class="st1" cx="952.8" cy="-35.1" r="3.9"/>
    <circle class="st1" cx="883.4" cy="-1467.2" r="3.9"/>
    <circle class="st1" cx="883.4" cy="-1391.9" r="3.9"/>
    <circle class="st1" cx="883.4" cy="-1316.5" r="3.9"/>
    <circle class="st1" cx="883.4" cy="-1241.1" r="3.9"/>
    <circle class="st1" cx="883.4" cy="-1165.7" r="3.9"/>
    <path class="st1" d="M883.4-1086.4c-2.2 0-3.9-1.8-3.9-3.9 0-2.2 1.8-3.9 3.9-3.9 2.2 0 3.9 1.8 3.9 3.9.1 2.1-1.7 3.9-3.9 3.9z"/>
    <circle class="st1" cx="883.4" cy="-1015" r="3.9"/>
    <circle class="st1" cx="883.4" cy="-939.6" r="3.9"/>
    <circle class="st1" cx="883.4" cy="-864.2" r="3.9"/>
    <circle class="st1" cx="883.4" cy="-788.9" r="3.9"/>
    <path class="st1" d="M883.4-709.6c-2.2 0-3.9-1.8-3.9-3.9 0-2.2 1.8-3.9 3.9-3.9 2.2 0 3.9 1.8 3.9 3.9.1 2.2-1.7 3.9-3.9 3.9z"/>
    <circle class="st1" cx="883.4" cy="-638.1" r="3.9"/>
    <circle class="st1" cx="883.4" cy="-562.7" r="3.9"/>
    <circle class="st1" cx="883.4" cy="-487.4" r="3.9"/>
    <circle class="st1" cx="883.4" cy="-412" r="3.9"/>
    <circle class="st1" cx="883.4" cy="-336.6" r="3.9"/>
    <circle class="st1" cx="883.4" cy="-261.2" r="3.9"/>
    <circle class="st1" cx="883.4" cy="-185.9" r="3.9"/>
    <path class="st1" d="M883.4-106.6c-2.2 0-3.9-1.8-3.9-3.9 0-2.2 1.8-3.9 3.9-3.9 2.2 0 3.9 1.8 3.9 3.9.1 2.2-1.7 3.9-3.9 3.9z"/>
    <circle class="st1" cx="883.4" cy="-35.1" r="3.9"/>
    <circle class="st1" cx="815.9" cy="-1467.2" r="3.9"/>
    <circle class="st1" cx="815.9" cy="-1391.9" r="3.9"/>
    <circle class="st1" cx="815.9" cy="-1316.5" r="3.9"/>
    <circle class="st1" cx="815.9" cy="-1241.1" r="3.9"/>
    <circle class="st1" cx="815.9" cy="-1165.7" r="3.9"/>
    <path class="st1" d="M815.9-1086.4c-2.2 0-3.9-1.8-3.9-3.9 0-2.2 1.8-3.9 3.9-3.9s3.9 1.8 3.9 3.9c0 2.1-1.7 3.9-3.9 3.9z"/>
    <circle class="st1" cx="815.9" cy="-1015" r="3.9"/>
    <circle class="st1" cx="815.9" cy="-939.6" r="3.9"/>
    <circle class="st1" cx="815.9" cy="-864.2" r="3.9"/>
    <circle class="st1" cx="815.9" cy="-788.9" r="3.9"/>
    <path class="st1" d="M815.9-709.6c-2.2 0-3.9-1.8-3.9-3.9 0-2.2 1.8-3.9 3.9-3.9 2.2 0 3.9 1.8 3.9 3.9 0 2.2-1.7 3.9-3.9 3.9z"/>
    <circle class="st1" cx="815.9" cy="-638.1" r="3.9"/>
    <circle class="st1" cx="815.9" cy="-562.7" r="3.9"/>
    <circle class="st1" cx="815.9" cy="-487.4" r="3.9"/>
    <circle class="st1" cx="815.9" cy="-412" r="3.9"/>
    <circle class="st1" cx="815.9" cy="-336.6" r="3.9"/>
    <circle class="st1" cx="815.9" cy="-261.2" r="3.9"/>
    <circle class="st1" cx="815.9" cy="-185.9" r="3.9"/>
    <path class="st1" d="M815.9-106.6c-2.2 0-3.9-1.8-3.9-3.9 0-2.2 1.8-3.9 3.9-3.9 2.2 0 3.9 1.8 3.9 3.9 0 2.2-1.7 3.9-3.9 3.9z"/>
    <circle class="st1" cx="815.9" cy="-35.1" r="3.9"/>
    <circle class="st1" cx="748.4" cy="-1467.2" r="3.9"/>
    <circle class="st1" cx="748.4" cy="-1391.9" r="3.9"/>
    <circle class="st1" cx="748.4" cy="-1316.5" r="3.9"/>
    <circle class="st1" cx="748.4" cy="-1241.1" r="3.9"/>
    <circle class="st1" cx="748.4" cy="-1165.7" r="3.9"/>
    <path class="st1" d="M748.4-1086.4c-2.2 0-3.9-1.8-3.9-3.9 0-2.2 1.8-3.9 3.9-3.9 2.2 0 3.9 1.8 3.9 3.9 0 2.1-1.7 3.9-3.9 3.9z"/>
    <circle class="st1" cx="748.4" cy="-1015" r="3.9"/>
    <circle class="st1" cx="748.4" cy="-939.6" r="3.9"/>
    <circle class="st1" cx="748.4" cy="-864.2" r="3.9"/>
    <circle class="st1" cx="748.4" cy="-788.9" r="3.9"/>
    <path class="st1" d="M748.4-709.6c-2.2 0-3.9-1.8-3.9-3.9 0-2.2 1.8-3.9 3.9-3.9 2.2 0 3.9 1.8 3.9 3.9 0 2.2-1.7 3.9-3.9 3.9z"/>
    <circle class="st1" cx="748.4" cy="-638.1" r="3.9"/>
    <circle class="st1" cx="748.4" cy="-562.7" r="3.9"/>
    <circle class="st1" cx="748.4" cy="-487.4" r="3.9"/>
    <circle class="st1" cx="748.4" cy="-412" r="3.9"/>
    <circle class="st1" cx="748.4" cy="-336.6" r="3.9"/>
    <circle class="st1" cx="748.4" cy="-261.2" r="3.9"/>
    <circle class="st1" cx="748.4" cy="-185.9" r="3.9"/>
    <path class="st1" d="M748.4-106.6c-2.2 0-3.9-1.8-3.9-3.9 0-2.2 1.8-3.9 3.9-3.9 2.2 0 3.9 1.8 3.9 3.9 0 2.2-1.7 3.9-3.9 3.9z"/>
    <circle class="st1" cx="748.4" cy="-35.1" r="3.9"/>
    <circle class="st1" cx="680.9" cy="-1467.2" r="3.9"/>
    <circle class="st1" cx="680.9" cy="-1391.9" r="3.9"/>
    <circle class="st1" cx="680.9" cy="-1316.5" r="3.9"/>
    <circle class="st1" cx="680.9" cy="-1241.1" r="3.9"/>
    <circle class="st1" cx="680.9" cy="-1165.7" r="3.9"/>
    <path class="st1" d="M680.9-1086.4c-2.2 0-3.9-1.8-3.9-3.9 0-2.2 1.8-3.9 3.9-3.9 2.2 0 3.9 1.8 3.9 3.9 0 2.1-1.7 3.9-3.9 3.9z"/>
    <circle class="st1" cx="680.9" cy="-1015" r="3.9"/>
    <circle class="st1" cx="680.9" cy="-939.6" r="3.9"/>
    <circle class="st1" cx="680.9" cy="-864.2" r="3.9"/>
    <circle class="st1" cx="680.9" cy="-788.9" r="3.9"/>
    <path class="st1" d="M680.9-709.6c-2.2 0-3.9-1.8-3.9-3.9 0-2.2 1.8-3.9 3.9-3.9 2.2 0 3.9 1.8 3.9 3.9 0 2.2-1.7 3.9-3.9 3.9z"/>
    <circle class="st1" cx="680.9" cy="-638.1" r="3.9"/>
    <circle class="st1" cx="680.9" cy="-562.7" r="3.9"/>
    <circle class="st1" cx="680.9" cy="-487.4" r="3.9"/>
    <circle class="st1" cx="680.9" cy="-412" r="3.9"/>
    <circle class="st1" cx="680.9" cy="-336.6" r="3.9"/>
    <circle class="st1" cx="680.9" cy="-261.2" r="3.9"/>
    <circle class="st1" cx="680.9" cy="-185.9" r="3.9"/>
    <path class="st1" d="M680.9-106.6c-2.2 0-3.9-1.8-3.9-3.9 0-2.2 1.8-3.9 3.9-3.9 2.2 0 3.9 1.8 3.9 3.9 0 2.2-1.7 3.9-3.9 3.9z"/>
    <circle class="st1" cx="680.9" cy="-35.1" r="3.9"/>
    <circle class="st1" cx="613.4" cy="-1467.2" r="3.9"/>
    <circle class="st1" cx="613.4" cy="-1391.9" r="3.9"/>
    <circle class="st1" cx="613.4" cy="-1316.5" r="3.9"/>
    <circle class="st1" cx="613.4" cy="-1241.1" r="3.9"/>
    <circle class="st1" cx="613.4" cy="-1165.7" r="3.9"/>
    <path class="st1" d="M613.4-1086.4c-2.2 0-3.9-1.8-3.9-3.9 0-2.2 1.8-3.9 3.9-3.9s3.9 1.8 3.9 3.9c0 2.1-1.7 3.9-3.9 3.9z"/>
    <circle class="st1" cx="613.4" cy="-1015" r="3.9"/>
    <circle class="st1" cx="613.4" cy="-939.6" r="3.9"/>
    <circle class="st1" cx="613.4" cy="-864.2" r="3.9"/>
    <circle class="st1" cx="613.4" cy="-788.9" r="3.9"/>
    <path class="st1" d="M613.4-709.6c-2.2 0-3.9-1.8-3.9-3.9 0-2.2 1.8-3.9 3.9-3.9s3.9 1.8 3.9 3.9c0 2.2-1.7 3.9-3.9 3.9z"/>
    <circle class="st1" cx="613.4" cy="-638.1" r="3.9"/>
    <circle class="st1" cx="613.4" cy="-562.7" r="3.9"/>
    <circle class="st1" cx="613.4" cy="-487.4" r="3.9"/>
    <circle class="st1" cx="613.4" cy="-412" r="3.9"/>
    <circle class="st1" cx="613.4" cy="-336.6" r="3.9"/>
    <circle class="st1" cx="613.4" cy="-261.2" r="3.9"/>
    <circle class="st1" cx="613.4" cy="-185.9" r="3.9"/>
    <path class="st1" d="M613.4-106.6c-2.2 0-3.9-1.8-3.9-3.9 0-2.2 1.8-3.9 3.9-3.9 2.2 0 3.9 1.8 3.9 3.9 0 2.2-1.7 3.9-3.9 3.9z"/>
    <circle class="st1" cx="613.4" cy="-35.1" r="3.9"/>
    <circle class="st1" cx="545.9" cy="-1467.2" r="3.9"/>
    <circle class="st1" cx="545.9" cy="-1391.9" r="3.9"/>
    <circle class="st1" cx="545.9" cy="-1316.5" r="3.9"/>
    <circle class="st1" cx="545.9" cy="-1241.1" r="3.9"/>
    <circle class="st1" cx="545.9" cy="-1165.7" r="3.9"/>
    <path class="st1" d="M545.9-1086.4c-2.2 0-3.9-1.8-3.9-3.9 0-2.2 1.8-3.9 3.9-3.9 2.2 0 3.9 1.8 3.9 3.9 0 2.1-1.8 3.9-3.9 3.9z"/>
    <circle class="st1" cx="545.9" cy="-1015" r="3.9"/>
    <circle class="st1" cx="545.9" cy="-939.6" r="3.9"/>
    <circle class="st1" cx="545.9" cy="-864.2" r="3.9"/>
    <circle class="st1" cx="545.9" cy="-788.9" r="3.9"/>
    <path class="st1" d="M545.9-709.6c-2.2 0-3.9-1.8-3.9-3.9 0-2.2 1.8-3.9 3.9-3.9 2.2 0 3.9 1.8 3.9 3.9 0 2.2-1.8 3.9-3.9 3.9z"/>
    <circle class="st1" cx="545.9" cy="-638.1" r="3.9"/>
    <circle class="st1" cx="545.9" cy="-562.7" r="3.9"/>
    <circle class="st1" cx="545.9" cy="-487.4" r="3.9"/>
    <circle class="st1" cx="545.9" cy="-412" r="3.9"/>
    <circle class="st1" cx="545.9" cy="-336.6" r="3.9"/>
    <circle class="st1" cx="545.9" cy="-261.2" r="3.9"/>
    <circle class="st1" cx="545.9" cy="-185.9" r="3.9"/>
    <path class="st1" d="M545.9-106.6c-2.2 0-3.9-1.8-3.9-3.9 0-2.2 1.8-3.9 3.9-3.9 2.2 0 3.9 1.8 3.9 3.9 0 2.2-1.8 3.9-3.9 3.9z"/>
    <circle class="st1" cx="545.9" cy="-35.1" r="3.9"/>
    <circle class="st1" cx="478.4" cy="-1467.2" r="3.9"/>
    <circle class="st1" cx="478.4" cy="-1391.9" r="3.9"/>
    <circle class="st1" cx="478.4" cy="-1316.5" r="3.9"/>
    <circle class="st1" cx="478.4" cy="-1241.1" r="3.9"/>
    <circle class="st1" cx="478.4" cy="-1165.7" r="3.9"/>
    <path class="st1" d="M478.4-1086.4c-2.2 0-3.9-1.8-3.9-3.9 0-2.2 1.8-3.9 3.9-3.9s3.9 1.8 3.9 3.9c0 2.1-1.8 3.9-3.9 3.9z"/>
    <circle class="st1" cx="478.4" cy="-1015" r="3.9"/>
    <circle class="st1" cx="478.4" cy="-939.6" r="3.9"/>
    <circle class="st1" cx="478.4" cy="-864.2" r="3.9"/>
    <circle class="st1" cx="478.4" cy="-788.9" r="3.9"/>
    <path class="st1" d="M478.4-709.6c-2.2 0-3.9-1.8-3.9-3.9 0-2.2 1.8-3.9 3.9-3.9s3.9 1.8 3.9 3.9c0 2.2-1.8 3.9-3.9 3.9z"/>
    <circle class="st1" cx="478.4" cy="-638.1" r="3.9"/>
    <circle class="st1" cx="478.4" cy="-562.7" r="3.9"/>
    <circle class="st1" cx="478.4" cy="-487.4" r="3.9"/>
    <circle class="st1" cx="478.4" cy="-412" r="3.9"/>
    <circle class="st1" cx="478.4" cy="-336.6" r="3.9"/>
    <circle class="st1" cx="478.4" cy="-261.2" r="3.9"/>
    <circle class="st1" cx="478.4" cy="-185.9" r="3.9"/>
    <path class="st1" d="M478.4-106.6c-2.2 0-3.9-1.8-3.9-3.9 0-2.2 1.8-3.9 3.9-3.9s3.9 1.8 3.9 3.9c0 2.2-1.8 3.9-3.9 3.9z"/>
    <circle class="st1" cx="478.4" cy="-35.1" r="3.9"/>
    <circle class="st1" cx="410.9" cy="-1467.2" r="3.9"/>
    <circle class="st1" cx="410.9" cy="-1391.9" r="3.9"/>
    <circle class="st1" cx="410.9" cy="-1316.5" r="3.9"/>
    <circle class="st1" cx="410.9" cy="-1241.1" r="3.9"/>
    <circle class="st1" cx="410.9" cy="-1165.7" r="3.9"/>
    <path class="st1" d="M410.9-1086.4c-2.2 0-3.9-1.8-3.9-3.9 0-2.2 1.8-3.9 3.9-3.9s3.9 1.8 3.9 3.9c0 2.1-1.8 3.9-3.9 3.9z"/>
    <circle class="st1" cx="410.9" cy="-1015" r="3.9"/>
    <circle class="st1" cx="410.9" cy="-939.6" r="3.9"/>
    <circle class="st1" cx="410.9" cy="-864.2" r="3.9"/>
    <circle class="st1" cx="410.9" cy="-788.9" r="3.9"/>
    <path class="st1" d="M410.9-709.6c-2.2 0-3.9-1.8-3.9-3.9 0-2.2 1.8-3.9 3.9-3.9 2.2 0 3.9 1.8 3.9 3.9 0 2.2-1.8 3.9-3.9 3.9z"/>
    <circle class="st1" cx="410.9" cy="-638.1" r="3.9"/>
    <circle class="st1" cx="410.9" cy="-562.7" r="3.9"/>
    <circle class="st1" cx="410.9" cy="-487.4" r="3.9"/>
    <circle class="st1" cx="410.9" cy="-412" r="3.9"/>
    <circle class="st1" cx="410.9" cy="-336.6" r="3.9"/>
    <circle class="st1" cx="410.9" cy="-261.2" r="3.9"/>
    <circle class="st1" cx="410.9" cy="-185.9" r="3.9"/>
    <path class="st1" d="M410.9-106.6c-2.2 0-3.9-1.8-3.9-3.9 0-2.2 1.8-3.9 3.9-3.9s3.9 1.8 3.9 3.9c0 2.2-1.8 3.9-3.9 3.9z"/>
    <circle class="st1" cx="410.9" cy="-35.1" r="3.9"/>
    <circle class="st1" cx="343.3" cy="-1467.2" r="3.9"/>
    <circle class="st1" cx="343.3" cy="-1391.9" r="3.9"/>
    <circle class="st1" cx="343.3" cy="-1316.5" r="3.9"/>
    <circle class="st1" cx="343.3" cy="-1241.1" r="3.9"/>
    <circle class="st1" cx="343.3" cy="-1165.7" r="3.9"/>
    <path class="st1" d="M343.3-1086.4c-2.2 0-3.9-1.8-3.9-3.9 0-2.2 1.8-3.9 3.9-3.9s3.9 1.8 3.9 3.9c.1 2.1-1.7 3.9-3.9 3.9z"/>
    <circle class="st1" cx="343.3" cy="-1015" r="3.9"/>
    <circle class="st1" cx="343.3" cy="-939.6" r="3.9"/>
    <circle class="st1" cx="343.3" cy="-864.2" r="3.9"/>
    <circle class="st1" cx="343.3" cy="-788.9" r="3.9"/>
    <path class="st1" d="M343.3-709.6c-2.2 0-3.9-1.8-3.9-3.9 0-2.2 1.8-3.9 3.9-3.9s3.9 1.8 3.9 3.9c.1 2.2-1.7 3.9-3.9 3.9z"/>
    <circle class="st1" cx="343.3" cy="-638.1" r="3.9"/>
    <circle class="st1" cx="343.3" cy="-562.7" r="3.9"/>
    <circle class="st1" cx="343.3" cy="-487.4" r="3.9"/>
    <circle class="st1" cx="343.3" cy="-412" r="3.9"/>
    <circle class="st1" cx="343.3" cy="-336.6" r="3.9"/>
    <circle class="st1" cx="343.3" cy="-261.2" r="3.9"/>
    <circle class="st1" cx="343.3" cy="-185.9" r="3.9"/>
    <path class="st1" d="M343.3-106.6c-2.2 0-3.9-1.8-3.9-3.9 0-2.2 1.8-3.9 3.9-3.9 2.2 0 3.9 1.8 3.9 3.9.1 2.2-1.7 3.9-3.9 3.9z"/>
    <circle class="st1" cx="343.3" cy="-35.1" r="3.9"/>
    <circle class="st1" cx="274" cy="-1467.2" r="3.9"/>
    <circle class="st1" cx="274" cy="-1391.9" r="3.9"/>
    <circle class="st1" cx="274" cy="-1316.5" r="3.9"/>
    <circle class="st1" cx="274" cy="-1241.1" r="3.9"/>
    <circle class="st1" cx="274" cy="-1165.7" r="3.9"/>
    <path class="st1" d="M274-1086.4c-2.2 0-3.9-1.8-3.9-3.9 0-2.2 1.8-3.9 3.9-3.9s3.9 1.8 3.9 3.9c0 2.1-1.8 3.9-3.9 3.9z"/>
    <circle class="st1" cx="274" cy="-1015" r="3.9"/>
    <circle class="st1" cx="274" cy="-939.6" r="3.9"/>
    <circle class="st1" cx="274" cy="-864.2" r="3.9"/>
    <circle class="st1" cx="274" cy="-788.9" r="3.9"/>
    <path class="st1" d="M274-709.6c-2.2 0-3.9-1.8-3.9-3.9 0-2.2 1.8-3.9 3.9-3.9s3.9 1.8 3.9 3.9c0 2.2-1.8 3.9-3.9 3.9z"/>
    <circle class="st1" cx="274" cy="-638.1" r="3.9"/>
    <circle class="st1" cx="274" cy="-562.7" r="3.9"/>
    <circle class="st1" cx="274" cy="-487.4" r="3.9"/>
    <circle class="st1" cx="274" cy="-412" r="3.9"/>
    <circle class="st1" cx="274" cy="-336.6" r="3.9"/>
    <circle class="st1" cx="274" cy="-261.2" r="3.9"/>
    <circle class="st1" cx="274" cy="-185.9" r="3.9"/>
    <path class="st1" d="M274-106.6c-2.2 0-3.9-1.8-3.9-3.9 0-2.2 1.8-3.9 3.9-3.9s3.9 1.8 3.9 3.9c0 2.2-1.8 3.9-3.9 3.9z"/>
    <circle class="st1" cx="274" cy="-35.1" r="3.9"/>
    <circle class="st1" cx="206.5" cy="-1467.2" r="3.9"/>
    <circle class="st1" cx="206.5" cy="-1391.9" r="3.9"/>
    <circle class="st1" cx="206.5" cy="-1316.5" r="3.9"/>
    <circle class="st1" cx="206.5" cy="-1241.1" r="3.9"/>
    <circle class="st1" cx="206.5" cy="-1165.7" r="3.9"/>
    <path class="st1" d="M206.5-1086.4c-2.2 0-3.9-1.8-3.9-3.9 0-2.2 1.8-3.9 3.9-3.9s3.9 1.8 3.9 3.9c0 2.1-1.8 3.9-3.9 3.9z"/>
    <circle class="st1" cx="206.5" cy="-1015" r="3.9"/>
    <circle class="st1" cx="206.5" cy="-939.6" r="3.9"/>
    <circle class="st1" cx="206.5" cy="-864.2" r="3.9"/>
    <circle class="st1" cx="206.5" cy="-788.9" r="3.9"/>
    <path class="st1" d="M206.5-709.6c-2.2 0-3.9-1.8-3.9-3.9 0-2.2 1.8-3.9 3.9-3.9s3.9 1.8 3.9 3.9c0 2.2-1.8 3.9-3.9 3.9z"/>
    <circle class="st1" cx="206.5" cy="-638.1" r="3.9"/>
    <circle class="st1" cx="206.5" cy="-562.7" r="3.9"/>
    <circle class="st1" cx="206.5" cy="-487.4" r="3.9"/>
    <circle class="st1" cx="206.5" cy="-412" r="3.9"/>
    <circle class="st1" cx="206.5" cy="-336.6" r="3.9"/>
    <circle class="st1" cx="206.5" cy="-261.2" r="3.9"/>
    <circle class="st1" cx="206.5" cy="-185.9" r="3.9"/>
    <path class="st1" d="M206.5-106.6c-2.2 0-3.9-1.8-3.9-3.9 0-2.2 1.8-3.9 3.9-3.9 2.2 0 3.9 1.8 3.9 3.9 0 2.2-1.8 3.9-3.9 3.9z"/>
    <circle class="st1" cx="206.5" cy="-35.1" r="3.9"/>
    <circle class="st1" cx="139" cy="-1467.2" r="3.9"/>
    <circle class="st1" cx="139" cy="-1391.9" r="3.9"/>
    <circle class="st1" cx="139" cy="-1316.5" r="3.9"/>
    <circle class="st1" cx="139" cy="-1241.1" r="3.9"/>
    <circle class="st1" cx="139" cy="-1165.7" r="3.9"/>
    <path class="st1" d="M139-1086.4c-2.2 0-3.9-1.8-3.9-3.9 0-2.2 1.8-3.9 3.9-3.9s3.9 1.8 3.9 3.9c0 2.1-1.8 3.9-3.9 3.9z"/>
    <circle class="st1" cx="139" cy="-1015" r="3.9"/>
    <circle class="st1" cx="139" cy="-939.6" r="3.9"/>
    <circle class="st1" cx="139" cy="-864.2" r="3.9"/>
    <circle class="st1" cx="139" cy="-788.9" r="3.9"/>
    <path class="st1" d="M139-709.6c-2.2 0-3.9-1.8-3.9-3.9 0-2.2 1.8-3.9 3.9-3.9s3.9 1.8 3.9 3.9c0 2.2-1.8 3.9-3.9 3.9z"/>
    <circle class="st1" cx="139" cy="-638.1" r="3.9"/>
    <circle class="st1" cx="139" cy="-562.7" r="3.9"/>
    <circle class="st1" cx="139" cy="-487.4" r="3.9"/>
    <circle class="st1" cx="139" cy="-412" r="3.9"/>
    <circle class="st1" cx="139" cy="-336.6" r="3.9"/>
    <circle class="st1" cx="139" cy="-261.2" r="3.9"/>
    <circle class="st1" cx="139" cy="-185.9" r="3.9"/>
    <path class="st1" d="M139-106.6c-2.2 0-3.9-1.8-3.9-3.9 0-2.2 1.8-3.9 3.9-3.9s3.9 1.8 3.9 3.9c0 2.2-1.8 3.9-3.9 3.9z"/>
    <circle class="st1" cx="139" cy="-35.1" r="3.9"/>
    <circle class="st1" cx="71.4" cy="-1467.2" r="3.9"/>
    <circle class="st1" cx="71.4" cy="-1391.9" r="3.9"/>
    <circle class="st1" cx="71.4" cy="-1316.5" r="3.9"/>
    <circle class="st1" cx="71.4" cy="-1241.1" r="3.9"/>
    <circle class="st1" cx="71.4" cy="-1165.7" r="3.9"/>
    <path class="st1" d="M71.4-1086.4c-2.2 0-3.9-1.8-3.9-3.9 0-2.2 1.8-3.9 3.9-3.9s3.9 1.8 3.9 3.9c.1 2.1-1.7 3.9-3.9 3.9z"/>
    <circle class="st1" cx="71.4" cy="-1015" r="3.9"/>
    <circle class="st1" cx="71.4" cy="-939.6" r="3.9"/>
    <circle class="st1" cx="71.4" cy="-864.2" r="3.9"/>
    <circle class="st1" cx="71.4" cy="-788.9" r="3.9"/>
    <path class="st1" d="M71.4-709.6c-2.2 0-3.9-1.8-3.9-3.9 0-2.2 1.8-3.9 3.9-3.9s3.9 1.8 3.9 3.9c.1 2.2-1.7 3.9-3.9 3.9z"/>
    <circle class="st1" cx="71.4" cy="-638.1" r="3.9"/>
    <circle class="st1" cx="71.4" cy="-562.7" r="3.9"/>
    <circle class="st1" cx="71.4" cy="-487.4" r="3.9"/>
    <circle class="st1" cx="71.4" cy="-412" r="3.9"/>
    <circle class="st1" cx="71.4" cy="-336.6" r="3.9"/>
    <circle class="st1" cx="71.4" cy="-261.2" r="3.9"/>
    <circle class="st1" cx="71.4" cy="-185.9" r="3.9"/>
    <path class="st1" d="M71.4-106.6c-2.2 0-3.9-1.8-3.9-3.9 0-2.2 1.8-3.9 3.9-3.9s3.9 1.8 3.9 3.9c.1 2.2-1.7 3.9-3.9 3.9z"/>
    <circle class="st1" cx="71.4" cy="-35.1" r="3.9"/>
    <circle class="st1" cx="3.9" cy="-1467.2" r="3.9"/>
    <circle class="st1" cx="3.9" cy="-1391.9" r="3.9"/>
    <circle class="st1" cx="3.9" cy="-1316.5" r="3.9"/>
    <circle class="st1" cx="3.9" cy="-1241.1" r="3.9"/>
    <circle class="st1" cx="3.9" cy="-1165.7" r="3.9"/>
    <path class="st1" d="M3.9-1086.4c-2.2 0-3.9-1.8-3.9-3.9 0-2.2 1.8-3.9 3.9-3.9 2.2 0 3.9 1.8 3.9 3.9.1 2.1-1.7 3.9-3.9 3.9z"/>
    <circle class="st1" cx="3.9" cy="-1015" r="3.9"/>
    <circle class="st1" cx="3.9" cy="-939.6" r="3.9"/>
    <circle class="st1" cx="3.9" cy="-864.2" r="3.9"/>
    <circle class="st1" cx="3.9" cy="-788.9" r="3.9"/>
    <path class="st1" d="M3.9-709.6c-2.2 0-3.9-1.8-3.9-3.9 0-2.2 1.8-3.9 3.9-3.9 2.2 0 3.9 1.8 3.9 3.9.1 2.2-1.7 3.9-3.9 3.9z"/>
    <circle class="st1" cx="3.9" cy="-638.1" r="3.9"/>
    <circle class="st1" cx="3.9" cy="-562.7" r="3.9"/>
    <circle class="st1" cx="3.9" cy="-487.4" r="3.9"/>
    <circle class="st1" cx="3.9" cy="-412" r="3.9"/>
    <circle class="st1" cx="3.9" cy="-336.6" r="3.9"/>
    <circle class="st1" cx="3.9" cy="-261.2" r="3.9"/>
    <circle class="st1" cx="3.9" cy="-185.9" r="3.9"/>
    <path class="st1" d="M3.9-106.6c-2.2 0-3.9-1.8-3.9-3.9 0-2.2 1.8-3.9 3.9-3.9 2.2 0 3.9 1.8 3.9 3.9.1 2.2-1.7 3.9-3.9 3.9z"/>
    <circle class="st1" cx="3.9" cy="-35.1" r="3.9"/>
  </pattern>
  <pattern id="SVGID_1_" xlink:href="#stippels" patternTransform="translate(-5898.981 -4791.624) scale(.4362)"/>
  <path style="fill:url(#SVGID_1_)" d="M112.2 106.7H589v397.9H112.2z"/>
  <circle cx="608.7" cy="402.3" r="121.5" style="fill:none;stroke:#99d1cc;stroke-width:4;stroke-miterlimit:10"/>
  <circle cx="546.2" cy="253.6" r="182.1" style="fill:#ffde42"/>
  <path class="st5" d="M621.7 184.9c-5-5.7-11-8.7-16.9-7.8-12.3 2-19.6 20.1-16.3 40.6 3.3 20.4 15.8 35.4 28.1 33.5 5-.8 9.2-4.3 12.2-9.6m20.6-5-21.6-6.5m-4-33.1 19.2-12.9"/>
  <path class="st5" d="m597.2 206.3 11.2-1.1c3.3-.6 6.7 3.2 7.5 8.3.9 5.1-1.1 9.7-4.4 10.3l-10.9 2.6m51.9-17.1-23.4 3.9m-82.2 124.5-9.2-47.9c14.6-4.8 29.6-13.2 39.2-28.4 1.4-2.2 2.6-4.5 3.8-6.9m-86 56.3 5.6 26.9m22.9-105.6c0 14.4-11.7 26-26 26-14.4 0-26-11.6-26-26s11.7-26 26-26 26 11.6 26 26z"/>
  <path d="M601.9 245.7s-23-2.7-41.5-1.2c-6.1.5-12.1-4.3-14.2-7.2-3.7-.7-9.6-5.7-10.3-11.6-1.1-8.9 4.1-14.1 8.2-16 3.1-6.1 8.5-9.5 13.3-10.6 20.7-4.7 32.1-13.1 38.6-17" style="fill:none;stroke:#03173d;stroke-width:4;stroke-linecap:round;stroke-linejoin:round;stroke-miterlimit:10"/>
  <path class="st5" d="M549.2 252.5c-7.2 5.4-20.6 9.5-32.8 12.3l-5.4 13.5-19.2-9c-20.2 3.3-29 15.6-25.2 34.9 1.5 7.7 6.9 33.6 6.9 33.6"/>
</svg>
