<svg version="1.1" id="Laag_1" xmlns="http://www.w3.org/2000/svg" x="0" y="0" viewBox="0 0 841.9 652.1" style="enable-background:new 0 0 841.9 652.1" xml:space="preserve">
  <style>
    .st0{fill:#99d1cc}.st1{fill:none;stroke-miterlimit:10;stroke:#03173d;stroke-width:2.5617;stroke-linejoin:round}
  </style>
  <circle class="st0" cx="378.7" cy="385.1" r="116.6"/>
  <path class="st1" d="m412.9 395.4-2.2-6.7c-3.4-8.2-10.4-12.2-19.4-13.9l-12.6 9.9-12.6-9.9c-9 1.7-16 5.7-19.4 13.9l-2.1 6.3m85 8.7c-.5-3.2-5-5.4-9.8-4.8-4.8.6-8.3 3.7-8.3 6.7 0 1.4.1 2.2.6 3.1m-84.3-5c.6-3.7 5-5.4 9.8-4.8 4.8.6 8.3 3.5 8.3 6.5 0 1.3 0 1.9-.5 3"/>
  <path class="st1" d="M330.6 420.7s-1.3-10.6-2.7-17c2.2 7.9 99.2 9 101.8 0-1 4.6-2.7 17-2.7 17m-3 21.1s-1.1 6.6-1.9 10.4c-17.1 6.2-66.3 6.3-86.8 0-1.1-5.2-1.9-10.2-1.9-10.2"/>
  <path class="st1" d="M329.7 416.1s-6.9 1.6-6.2 11.7c.8 12.6 4.1 14.1 7.7 14.1 6.4-.1 12.5-2.2 11.6-11.8-.8-8.9-5.5-9.8-8.8-9.7-1.1.1-4.4.2-4.4.2m97.9-4.5s6.9 1.6 6.2 11.7c-.8 12.6-4.1 14.1-7.7 14.1-6.4-.1-12.5-2.2-11.6-11.8.8-8.9 5.5-9.8 8.8-9.7 1.1.1 4.4.2 4.4.2m-54.9-97.3c-7.4 2.4-12.7 9.1-12.7 16.9v4.5m37.6 0v-4.5c0-7.8-5.3-14.5-12.7-16.9m-28.8 21.4h45.1"/>
  <path class="st1" d="M397.3 344.7v5.3c0 10.3-8.3 18.6-18.6 18.6s-18.6-8.4-18.6-18.6v-5.3m26.2-5.8c-2.2-8.2-1.8-15-1.6-18.2h-12.2c.3 2.7.8 9.5-1.5 18.2"/>
  <circle class="st0" cx="604.1" cy="547.4" r="75.8"/>
  <path class="st1" d="M635.5 518.8c-2.1-2.4-4.6-3.6-7-3.2-5.1.8-8.1 8.4-6.8 16.9 1.4 8.5 6.6 14.7 11.7 13.9 2.1-.3 3.8-1.8 5.1-4m8.5-2.1-9-2.7m-1.7-13.8 8-5.3"/>
  <path class="st1" d="m625.3 527.7 4.7-.5c1.4-.2 2.8 1.3 3.1 3.4.4 2.1-.5 4.1-1.8 4.3l-4.5 1.1m21.5-7.1-9.8 1.7m-34.1 51.8-3.8-19.9c6.1-2 12.3-5.5 16.3-11.8.6-.9 1.1-1.9 1.6-2.9m-35.9 23.3 2.4 11.3"/>
  <path class="st1" d="M594.5 538.4c0 6-4.8 10.8-10.8 10.8-6 0-10.8-4.8-10.8-10.8 0-6 4.8-10.8 10.8-10.8 5.9 0 10.8 4.8 10.8 10.8zm32.7 5.7s-9.6-1.1-17.3-.5c-2.5.2-5-1.8-5.9-3-1.6-.3-4-2.4-4.3-4.8-.4-3.7 1.7-5.9 3.4-6.7 1.3-2.5 3.5-4 5.5-4.4 8.6-2 13.4-5.5 16.1-7.1m-19.4 29.3c-3 2.3-8.6 4-13.6 5.1l-2.2 5.6-8-3.8c-8.4 1.4-12.1 6.5-10.5 14.5.6 3.2 2.9 14 2.9 14"/>
  <circle class="st0" cx="555.9" cy="142.4" r="63.4"/>
  <path class="st1" d="M523.4 173.8v-11.1c0-8.5 7.2-13.9 17.7-14.2 10.9-.3 17.5-.7 32.5-9 1.9-1 4.6-.3 5.7 1.2 2 2.4 1.6 5.7-.8 7.5-5.6 4.2-14.4 8.9-24.4 12.2v13.4m-13-31.4c5.7 0 10.4-4.7 10.4-10.4s-4.7-10.4-10.4-10.4-10.4 4.7-10.4 10.4 4.6 10.4 10.4 10.4zm17.9-21.8h31.1M559 131h14.9m4.2 8.3 2.8-5.3"/>
  <circle class="st0" cx="221.7" cy="112.3" r="83.3"/>
  <path class="st1" d="M224.8 100.5V90.4c0-.3.1-.6.3-.8.2-.2.5-.3.8-.3h31.4c.6 0 1.2.5 1.2 1.2v60.1m-33.7-.1v-25.9"/>
  <path class="st1" d="M231.6 89.4c0-5.6 4.5-10.1 10.1-10.1s10.1 4.5 10.1 10.1m-10.1-10.9V71m-10 26.2h6.8v6.5h-6.8zm13.1 0h6.8v6.5h-6.8zm-11.5 13h5.2v6.5h-7.2m13.5-6.5h6.8v6.5h-6.8zm-13.1 25.9h6.8v6.5h-6.8zm13.1 0h6.8v6.5h-6.8zm-13.1-13h6.8v6.5h-6.8zm13.1 0h6.8v6.5h-6.8zm-36.3 28-3.2-19.2c6.8-2.2 19.9-10.1 23.4-19.1 1-2.6 1.8-5.1-1.5-7.2-3.2-2.1-6 .9-7.4 2.7-4.8 6.2-11.8 9.9-18.8 11.9l-5.2 7.2-10-4.8c-8 1.7-12.7 6.2-11.8 14.3l2.4 14.3m10.5-13 1.9 12.3m-10.2-43c.2 1.8.7 3.5 1.8 5.1 3.4 5.3 10.5 6.9 15.9 3.5 4.9-3.1 6.6-9.3 4.2-14.5m.8-.8c-2.1-7.5-8.9-11.3-15.5-9.5-1.2.3-2.3.8-3.3 1.4-4.8 3.1-6.7 9.3-5.3 14.1m-.7.5 28.9-7.8"/>
  <path d="M550.2 155.6 435.4 303.7M464.6 429l84.7 72.7M323.5 291.8l-78.7-133.2" style="stroke:#99d1cc;stroke-width:4;fill:none;stroke-miterlimit:10"/>
</svg>
